<svg width="16" height="16" viewBox="0 0 16 16" fill="none"
  xmlns="http://www.w3.org/2000/svg">
  <path d="M0.714821 1C0.403712 1 0.170382 1.28518 0.22223 1.57037L2.32223 14.4296C2.37408 14.7667 2.65927 15 2.99631 15H13.1593C13.3926 15 13.6 14.8185 13.6519 14.5852L15.7778 1.5963C15.8297 1.28518 15.5963 1.02593 15.2852 1.02593L0.714821 1ZM9.63338 10.2815H6.39261L5.53703 5.69262H10.4371L9.63338 10.2815Z" fill="#2684FF"/>
  <path d="M15.0777 5.69257H10.4111L9.63328 10.2814H6.39251L2.58142 14.8185C2.58142 14.8185 2.7629 14.9741 3.02216 14.9741H13.1851C13.4185 14.9741 13.6259 14.7925 13.6777 14.5592L15.0777 5.69257Z" fill="url(#paint0_linear_2129_4098)"/>
  <defs>
    <linearGradient id="paint0_linear_2129_4098" x1="16.1694" y1="6.98566" x2="8.43594" y2="13.0224" gradientUnits="userSpaceOnUse">
      <stop offset="0.176" stop-color="#0052CC"/>
      <stop offset="1" stop-color="#2684FF"/>
    </linearGradient>
  </defs>
</svg>
