<svg width="16" height="16" viewBox="0 0 16 16" fill="none"
  xmlns="http://www.w3.org/2000/svg">
  <path d="M8.22927 9.66939C9.16339 9.66939 9.92064 8.92307 9.92064 8.00244C9.92064 7.0818 9.16339 6.33548 8.22927 6.33548C7.29515 6.33548 6.53789 7.0818 6.53789 8.00244C6.53789 8.92307 7.29515 9.66939 8.22927 9.66939Z" fill="#161616"/>
  <path d="M8.22927 1.00244C4.91963 1.00244 2.13908 3.2336 1.35039 6.25244C1.34303 6.27954 1.33908 6.30743 1.33862 6.33549C1.33862 6.51867 1.48979 6.66888 1.6769 6.66888H4.54108C4.60591 6.6691 4.66941 6.65074 4.72386 6.61606C4.7783 6.58137 4.82135 6.53184 4.84776 6.47348C4.84776 6.47348 4.8521 6.46555 4.85396 6.46127C5.44439 5.20586 6.73368 4.33453 8.23051 4.33453C10.2856 4.33453 11.9515 5.97584 11.9515 8.00122C11.9515 10.0266 10.2862 11.6679 8.23113 11.6679C6.73491 11.6679 5.44563 10.7966 4.85458 9.54117C4.85272 9.5369 4.84838 9.52896 4.84838 9.52896C4.79386 9.4105 4.67367 9.33357 4.5417 9.33357H1.67752C1.49041 9.33357 1.33924 9.48256 1.33924 9.66696C1.33956 9.69502 1.34352 9.72293 1.35101 9.75C2.1397 12.7688 4.92087 15 8.22989 15C12.1529 14.9994 15.3386 11.8658 15.3386 8C15.3386 4.13425 12.1585 1 8.23609 1L8.22927 1.00244Z" fill="#161616"/>
</svg>

