<svg width="16" height="16" viewBox="0 0 16 16" fill="none"
  xmlns="http://www.w3.org/2000/svg">
  <path fill-rule="evenodd" clip-rule="evenodd" d="M8.33836 1.00236C4.47316 1.00236 1.33862 4.13637 1.33862 8.00208C1.33862 11.095 3.34408 13.718 6.12544 14.644C6.47553 14.7088 6.6042 14.4918 6.6042 14.3068C6.6042 14.1399 6.59722 13.5885 6.59438 13.0041C4.6468 13.4276 4.23625 12.1778 4.23625 12.1778C3.91793 11.3686 3.45905 11.1534 3.45905 11.1534C2.82398 10.7186 3.50738 10.7281 3.50738 10.7281C4.21013 10.7772 4.58013 11.449 4.58013 11.449C5.20488 12.5192 6.21819 12.2094 6.61737 12.0308C6.68041 11.5784 6.86127 11.2694 7.06176 11.0945C5.50688 10.918 3.87245 10.3176 3.87245 7.63519C3.87245 6.87118 4.14632 6.24646 4.59356 5.75657C4.52071 5.57986 4.28094 4.86831 4.661 3.90432C4.661 3.90432 5.24878 3.71598 6.58663 4.62182C7.14471 4.46706 7.74334 4.38903 8.33786 4.38645C8.93286 4.38903 9.53254 4.46679 10.0914 4.62182C11.4274 3.7165 12.0147 3.90432 12.0147 3.90432C12.3953 4.86857 12.1566 5.58063 12.0837 5.75659C12.5325 6.24646 12.804 6.87118 12.804 7.63519C12.804 10.3238 11.166 10.9149 9.60772 11.0883C9.85887 11.3053 10.0831 11.7314 10.0831 12.384C10.0831 13.3201 10.0751 14.0745 10.0751 14.3047C10.0751 14.491 10.2012 14.7088 10.5562 14.6406C13.336 13.7141 15.3389 11.0909 15.3389 7.99974C15.3389 4.13453 12.2049 1 8.33889 1L8.33838 1.00234L8.33836 1.00236Z" fill="black"/>
</svg>

