<svg width="49" height="48" viewBox="0 0 49 48" fill="none"
  xmlns="http://www.w3.org/2000/svg">
  <g clip-path="url(#clip0_2127_3871)">
    <path d="M24.3369 46.105L33.1797 18.9048H15.507L24.3369 46.105Z" fill="#E24329"/>
    <path d="M3.12118 18.9049L0.428337 27.1687C0.184658 27.919 0.447815 28.7473 1.09099 29.2151L24.3371 46.105L3.12118 18.9049Z" fill="#FCA326"/>
    <path d="M3.12122 18.9049H15.5071L10.1765 2.52353C9.90372 1.68544 8.71475 1.68544 8.43212 2.52353L3.12122 18.9049Z" fill="#E24329"/>
    <path d="M45.5657 18.9049L48.2489 27.1687C48.4926 27.919 48.2294 28.7473 47.5863 29.2151L24.3369 46.105L45.5657 18.9049Z" fill="#FCA326"/>
    <path d="M45.5657 18.9049H33.1799L38.5006 2.52353C38.7734 1.68544 39.9624 1.68544 40.245 2.52353L45.5657 18.9049Z" fill="#E24329"/>
    <path d="M24.3369 46.105L33.1797 18.9049H45.5657L24.3369 46.105Z" fill="#FC6D26"/>
    <path d="M24.337 46.105L3.12122 18.9049H15.5071L24.337 46.105Z" fill="#FC6D26"/>
  </g>
  <defs>
    <clipPath id="clip0_2127_3871">
      <rect width="48" height="48" fill="white" transform="translate(0.338623)"/>
    </clipPath>
  </defs>
</svg>
