<svg width="32" height="32" viewBox="0 0 32 32" fill="none"
  xmlns="http://www.w3.org/2000/svg">
  <g clip-path="url(#clip0_3691_61959)">
    <path fill-rule="evenodd" clip-rule="evenodd" d="M27.2589 15.4201C27.2589 21.76 22.2182 26.8997 16 26.8997C9.78199 26.8997 4.74121 21.76 4.74121 15.4201C4.74121 9.07997 9.78199 3.94028 16 3.94028C22.2182 3.94028 27.2589 9.07997 27.2589 15.4201Z" fill="#D33833"/>
    <path d="M5.20015 18.2632C5.20015 18.2632 4.38509 6.29186 15.451 5.94978L14.679 4.66714L8.67433 6.67666L6.95865 8.64334L5.4575 11.508L4.59961 14.8429L4.85696 17.0661" fill="#EF3D3A"/>
    <path d="M8.28889 7.58894C6.3135 9.60372 5.09111 12.3855 5.09111 15.463C5.09111 18.5398 6.3135 21.322 8.28889 23.3364C10.2652 25.3508 12.9889 26.5938 16.0001 26.5938C19.0113 26.5938 21.7352 25.3508 23.7114 23.3364C25.6866 21.322 26.9093 18.5398 26.9093 15.463C26.9093 12.3855 25.6866 9.60372 23.7114 7.58894C21.7352 5.57493 19.0113 4.33191 16.0001 4.33166C12.9889 4.33191 10.2652 5.57493 8.28889 7.58894ZM7.78887 23.8237C5.68949 21.6835 4.3916 18.7256 4.3916 15.463C4.3916 12.1998 5.68949 9.24227 7.78887 7.10192C9.88776 4.96118 12.7932 3.63428 16.0001 3.63467C19.207 3.63428 22.1127 4.96118 24.2113 7.10192C26.3108 9.24227 27.6089 12.2001 27.6086 15.463C27.6089 18.7256 26.3108 21.6835 24.2113 23.8237C22.1127 25.9643 19.207 27.291 16.0001 27.291C12.7932 27.291 9.88776 25.9643 7.78887 23.8237Z" fill="#231F20"/>
    <path fill-rule="evenodd" clip-rule="evenodd" d="M20.7395 15.4835L19.0238 15.7401L16.7076 15.9966L15.2064 16.0393L13.7481 15.9966L12.6329 15.6545L11.6464 14.5857L10.8744 12.4052L10.7028 11.9348L9.67343 11.5929L9.07294 10.6095L8.64404 9.19857L9.11591 7.95864L10.231 7.57384L11.1317 8.00148L11.5607 8.94204L12.0754 8.85649L12.2469 8.6428L12.0754 7.6594L12.0324 6.41946L12.2898 4.70931L12.2797 3.73245L13.0618 2.4861L14.4343 1.5027L16.8363 0.47658L19.4955 0.861374L21.8116 2.52881L22.884 4.23897L23.5702 5.4789L23.7417 8.55725L23.227 11.2081L22.2835 13.5596L21.3827 14.7995" fill="#F0D6B7"/>
    <path fill-rule="evenodd" clip-rule="evenodd" d="M19.2813 22.88L13.1478 23.1366V24.1627L13.6625 27.7541L13.4052 28.0535L9.11613 26.5997L8.81581 26.0867L8.38692 21.2554L7.40056 18.3481L7.18604 17.664L10.6172 15.3126L11.6896 14.8849L12.6331 16.0393L13.448 16.7662L14.3917 17.0654L14.8206 17.1937L15.3353 19.4169L15.7213 19.8872L16.7079 19.5452L16.0215 20.8707L19.7531 22.6235L19.2813 22.88Z" fill="#335061"/>
    <path fill-rule="evenodd" clip-rule="evenodd" d="M9.11599 7.95874L10.2311 7.57394L11.1318 8.00158L11.5608 8.94214L12.0755 8.85659L12.2041 8.34353L11.9468 7.36025L12.2041 5.00865L11.9896 3.726L12.7617 2.82815L14.4344 1.50279L13.9626 0.86147L11.6036 2.01585L10.6171 2.78544L10.0595 3.98253L9.20168 5.13691L8.94434 6.50511L9.11599 7.95874Z" fill="#6D6B6D"/>
    <path fill-rule="evenodd" clip-rule="evenodd" d="M10.8746 3.93984C10.8746 3.93984 11.518 2.35795 14.0914 1.58836C16.6649 0.818777 14.2201 1.03247 14.2201 1.03247L11.4323 2.10142L10.3599 3.17025L9.88818 4.02539L10.8746 3.93984Z" fill="#DCD9D8"/>
    <path fill-rule="evenodd" clip-rule="evenodd" d="M9.5874 7.65964C9.5874 7.65964 8.68711 4.6681 12.1168 4.24079L11.9882 3.72797L9.63036 4.28361L8.94434 6.50579L9.11591 7.95874L9.5874 7.65964Z" fill="#DCD9D8"/>
    <path fill-rule="evenodd" clip-rule="evenodd" d="M10.9604 11.6356L11.522 11.0932C11.522 11.0932 11.7755 11.1225 11.8183 11.4218C11.8612 11.7211 11.9898 14.4147 13.8341 15.8684C14.0024 16.0011 12.4617 15.6545 12.4617 15.6545L11.0891 13.5168" fill="#F7E4CD"/>
    <path fill-rule="evenodd" clip-rule="evenodd" d="M18.8522 10.8235C18.8522 10.8235 18.9522 9.5281 19.3021 9.62772C19.6521 9.72733 19.6521 10.0762 19.6521 10.0762C19.6521 10.0762 18.8022 10.6243 18.8522 10.8235Z" fill="#F7E4CD"/>
    <path d="M22.412 6.07812C22.412 6.07812 21.7054 6.22683 21.6403 6.84735C21.5752 7.46799 22.412 6.97555 22.5406 6.93286" fill="#F7E4CD"/>
    <path d="M17.2221 6.12099C17.2221 6.12099 16.2788 6.24919 16.2788 6.8474C16.2788 7.44573 17.3507 7.40304 17.6508 7.14663" fill="#F7E4CD"/>
    <path fill-rule="evenodd" clip-rule="evenodd" d="M11.3876 8.9005C11.3876 8.9005 9.75844 7.91755 9.58703 8.8578C9.41556 9.79793 9.02961 10.4818 9.84425 11.4646L9.28694 11.2937L8.77249 9.96896L8.60107 8.68691L9.58703 7.66114L10.7017 7.74665L11.3448 8.25947L11.3876 8.9005Z" fill="#F7E4CD"/>
    <path fill-rule="evenodd" clip-rule="evenodd" d="M12.1613 6.20581C12.1613 6.20581 12.8904 2.44342 16.5791 1.71655C19.616 1.1182 21.2113 1.84481 21.8118 2.52885C21.8118 2.52885 19.1096 -0.677638 16.5362 0.305639C13.9627 1.28904 12.0756 3.08475 12.1184 4.239C12.1914 6.20504 12.1613 6.20581 12.1613 6.20581Z" fill="#F7E4CD"/>
    <path fill-rule="evenodd" clip-rule="evenodd" d="M22.1113 2.95718C22.1113 2.95718 20.8682 2.91448 20.8252 4.02564C20.8252 4.02564 20.8251 4.19653 20.9109 4.36743C20.9109 4.36743 21.8971 3.25628 22.4972 3.85461" fill="#F7E4CD"/>
    <path fill-rule="evenodd" clip-rule="evenodd" d="M16.6645 4.48379C16.6645 4.48379 16.4505 2.77828 14.9918 3.76981C14.0486 4.41084 14.1344 5.30827 14.3059 5.47917C14.4773 5.6502 14.4307 5.99443 14.5612 5.75815C14.6917 5.52187 14.6487 4.75263 15.1204 4.53904C15.592 4.32533 16.3651 4.08661 16.6645 4.48379Z" fill="#F7E4CD"/>
    <path fill-rule="evenodd" clip-rule="evenodd" d="M12.6331 16.0394L8.60144 17.8351C8.60144 17.8351 10.2742 24.4622 9.4163 26.5144L8.81581 26.3007L8.77294 23.7781L7.65791 18.9896L7.18604 17.6642L11.3893 14.8425L12.6331 16.0394Z" fill="#49728B"/>
    <path fill-rule="evenodd" clip-rule="evenodd" d="M13.0476 19.7064L13.6193 20.4017V22.9658H12.9333C12.9333 22.9658 12.8477 21.171 12.8477 20.9572C12.8477 20.7435 12.9333 19.9743 12.9333 19.9743" fill="#49728B"/>
    <path fill-rule="evenodd" clip-rule="evenodd" d="M13.061 23.351L11.1318 23.4364L11.6892 23.821L13.061 24.0347" fill="#49728B"/>
    <path fill-rule="evenodd" clip-rule="evenodd" d="M19.667 22.9248L21.2532 22.8821L21.639 26.8138L20.0099 27.0273L19.667 22.9248Z" fill="#335061"/>
    <path fill-rule="evenodd" clip-rule="evenodd" d="M20.0962 22.9229L22.4981 22.7946C22.4981 22.7946 23.4845 20.3148 23.4845 20.1866C23.4845 20.0583 24.3424 16.5952 24.3424 16.5952L22.4123 14.5858L22.0263 14.2437L20.9969 15.2698V19.246L20.0962 22.9229Z" fill="#335061"/>
    <path fill-rule="evenodd" clip-rule="evenodd" d="M21.1674 22.6244L19.667 22.9235L19.8813 24.1202C20.4385 24.3766 21.3818 23.6928 21.3818 23.6928" fill="#49728B"/>
    <path fill-rule="evenodd" clip-rule="evenodd" d="M21.2114 15.1428L24.2124 17.365L24.2982 16.3393L22.0259 14.2454L21.2114 15.1428Z" fill="#49728B"/>
    <path fill-rule="evenodd" clip-rule="evenodd" d="M14.5502 31.3461L13.6622 27.7542L13.2205 25.1039L13.1475 23.1367L17.1665 22.9234L19.667 22.923L19.4396 27.4127L19.8257 30.8758L19.7828 31.5172L16.5232 31.7737L14.5502 31.3461Z" fill="white"/>
    <path fill-rule="evenodd" clip-rule="evenodd" d="M19.1093 22.8801C19.1093 22.8801 18.8949 27.3267 19.5383 30.4905C19.5383 30.4905 18.2516 31.3029 16.3643 31.5166L19.9672 31.3883L20.396 31.1318L19.8813 24.1201L19.7527 22.6235" fill="#DCD9D8"/>
    <path fill-rule="evenodd" clip-rule="evenodd" d="M21.713 26.4722L23.3858 26.0018L26.5596 25.8308L27.0315 24.3772L26.1736 21.8546L25.1872 21.7264L23.8146 22.1539L22.4978 22.7948L21.7987 22.667L21.2539 22.8804" fill="white"/>
    <path fill-rule="evenodd" clip-rule="evenodd" d="M21.6831 25.6166C21.6831 25.6166 22.7982 25.1036 22.9698 25.1463L22.4981 22.7947L23.0557 22.581C23.0557 22.581 23.4417 24.8042 23.4417 25.0608C23.4417 25.0608 25.8435 25.189 26.058 25.189C26.058 25.189 26.5727 24.2056 26.444 23.1795L26.9159 24.5477L26.9587 25.3173L26.2725 26.3434L25.5005 26.5144L24.2137 26.4717L23.7849 25.9159L22.2836 26.1296L21.8118 26.3007" fill="#DCD9D8"/>
    <path d="M19.9975 22.5813L19.0539 20.187L18.0674 18.7761C18.0674 18.7761 18.2818 18.1774 18.5821 18.1774C18.8824 18.1774 19.5686 18.1774 19.5686 18.1774L20.5122 18.5195L20.4265 20.1014L19.9975 22.5813Z" fill="white"/>
    <path fill-rule="evenodd" clip-rule="evenodd" d="M20.1811 21.7689C20.1811 21.7689 18.9806 19.4613 18.9806 19.1194C18.9806 19.1194 19.1949 18.6065 19.495 18.7348C19.7952 18.863 20.4383 19.2048 20.4383 19.2048V18.3928L18.9806 18.0936L17.9946 18.2218L19.6666 22.1535L20.0095 22.1963" fill="#DCD9D8"/>
    <path d="M14.9352 16.126L13.7475 15.9973L12.6328 15.6554V16.04L13.1775 16.6387L14.8923 17.408" fill="white"/>
    <path fill-rule="evenodd" clip-rule="evenodd" d="M13.0192 16.2541C13.0192 16.2541 14.3483 16.8097 14.777 16.6815L14.8197 17.1938L13.6195 16.938L12.8906 16.4251L13.0192 16.2541Z" fill="#DCD9D8"/>
    <path fill-rule="evenodd" clip-rule="evenodd" d="M21.7077 18.3232C20.9802 18.302 20.323 18.2158 19.7476 18.054C19.7867 17.8189 19.7135 17.5881 19.7723 17.4188C19.9327 17.3036 20.2015 17.3054 20.4439 17.2784C20.2343 17.1757 19.9397 17.135 19.6978 17.1944C19.6922 17.0312 19.6187 16.93 19.5742 16.8023C19.9832 16.6568 20.9487 15.7029 21.4918 16.0188C21.7506 16.169 21.8606 17.0272 21.8806 17.4445C21.8974 17.7907 21.8491 18.1399 21.7077 18.3232Z" fill="#D33833"/>
    <path fill-rule="evenodd" clip-rule="evenodd" d="M21.8354 18.5938L21.9184 18.4861C22.0265 18.3461 22.0844 18.1651 22.1156 17.9922C22.1476 17.8146 22.1557 17.62 22.1466 17.4317M21.8354 18.5938L21.6995 18.5898L21.8354 18.5938ZM21.6995 18.5898C20.9567 18.568 20.2768 18.4799 19.6751 18.3107L21.6995 18.5898ZM20.0256 17.851C20.0247 17.8033 20.0221 17.7594 20.0199 17.7213C20.0194 17.7129 20.0189 17.7047 20.0185 17.6968C20.0162 17.6567 20.015 17.6249 20.0149 17.5993C20.0418 17.5921 20.075 17.5854 20.1158 17.5793C20.1827 17.5695 20.2411 17.5646 20.3068 17.5591C20.3559 17.555 20.4092 17.5505 20.4731 17.5434L21.3834 17.4418L20.5609 17.0389C20.3878 16.9541 20.1726 16.9033 19.9579 16.9003C20.0121 16.8663 20.0662 16.8304 20.1182 16.7956C20.1547 16.7711 20.1915 16.7462 20.2285 16.7211C20.3558 16.6348 20.4861 16.5466 20.62 16.4659C20.7934 16.3614 20.9528 16.2823 21.0904 16.2447C21.2255 16.2078 21.305 16.22 21.3547 16.2477C21.3546 16.2476 21.3545 16.2476 21.3544 16.2477C21.3538 16.2484 21.3785 16.2709 21.414 16.3526C21.4514 16.4384 21.4856 16.5541 21.5149 16.6884C21.5733 16.9559 21.6044 17.2594 21.6139 17.4573L21.6139 17.4574C21.6216 17.6153 21.614 17.7683 21.5907 17.8976C21.5797 17.9585 21.5661 18.0093 21.5514 18.0507C20.9915 18.0262 20.4815 17.9608 20.0256 17.851ZM19.4837 17.5214C19.4786 17.5962 19.4825 17.6658 19.4856 17.72C19.4857 17.7222 19.4858 17.7244 19.486 17.7266C19.4862 17.7306 19.4864 17.7346 19.4866 17.7385C19.4929 17.8494 19.4974 17.9307 19.4842 18.0103L19.445 18.246L19.6751 18.3107M19.4837 17.5214L19.4423 17.5316L19.431 17.2036C19.4295 17.163 19.4204 17.1285 19.4026 17.084C19.3947 17.0643 19.3866 17.046 19.3763 17.0226C19.3734 17.0162 19.3704 17.0094 19.3672 17.0021C19.3534 16.9709 19.3369 16.9326 19.3221 16.8901L19.2349 16.6399L19.4845 16.5511C19.5492 16.5281 19.6574 16.4624 19.8211 16.3526C19.8534 16.331 19.8873 16.308 19.9224 16.2842C20.0513 16.1969 20.1974 16.0979 20.3447 16.0091C20.5318 15.8964 20.7411 15.7872 20.95 15.7302C21.159 15.6732 21.4035 15.6591 21.6256 15.7882C21.7676 15.8708 21.8514 16.0209 21.9031 16.1399C21.9598 16.2703 22.0029 16.4234 22.0359 16.5746C22.1022 16.8781 22.1361 17.2122 22.1466 17.4316" fill="#D33833"/>
    <path fill-rule="evenodd" clip-rule="evenodd" d="M18.227 17.1383C18.2251 17.1932 18.2228 17.2484 18.2206 17.3038C17.9935 17.4525 17.6268 17.4507 17.3775 17.5757C17.745 17.5917 18.0342 17.6799 18.2845 17.8043C18.279 17.9425 18.2737 18.0806 18.2683 18.2188C17.852 18.5029 17.4717 18.926 16.9815 19.1924C16.7497 19.3184 15.9364 19.6426 15.6898 19.5853C15.5503 19.553 15.5377 19.3804 15.482 19.2178C15.3631 18.8694 15.0896 18.3149 15.0657 17.7906C15.0353 17.1283 14.9683 16.0183 15.6843 16.1547C16.2619 16.2646 16.9338 16.5298 17.381 16.7734C17.6543 16.9224 17.8124 17.1065 18.227 17.1383Z" fill="#D33833"/>
    <path fill-rule="evenodd" clip-rule="evenodd" d="M17.1084 19.427C16.9747 19.4997 16.6981 19.6179 16.4268 19.7103L17.1084 19.427ZM16.4268 19.7103C16.2898 19.757 16.1468 19.7996 16.018 19.827L16.4268 19.7103ZM16.018 19.827C15.9028 19.8514 15.7538 19.8743 15.6292 19.8454L16.018 19.827ZM15.629 19.8453C15.4351 19.8004 15.348 19.6517 15.3072 19.5515C15.2871 19.5023 15.2724 19.4512 15.2613 19.4122C15.2597 19.4064 15.2581 19.4007 15.2565 19.3952C15.2466 19.3601 15.2388 19.3322 15.2293 19.3045L15.2293 19.3045L15.2292 19.3041C15.2029 19.2273 15.168 19.1381 15.1268 19.0327C15.125 19.0282 15.1232 19.0236 15.1214 19.019C15.0787 18.91 15.0309 18.7873 14.986 18.6581C14.8968 18.4019 14.8126 18.1036 14.7989 17.8031M15.7915 19.3239C15.7867 19.3091 15.7813 19.2908 15.7745 19.2669C15.7732 19.2622 15.7718 19.2573 15.7703 19.2522C15.7608 19.2181 15.7485 19.1746 15.7339 19.1318C15.7037 19.0433 15.6647 18.9439 15.6254 18.8433C15.6229 18.8371 15.6205 18.8309 15.6181 18.8246C15.5753 18.7153 15.5309 18.6013 15.4897 18.4828C15.4064 18.2436 15.3419 18.0026 15.3317 17.7787L15.3317 17.7786C15.3313 17.769 15.3308 17.7592 15.3304 17.7494C15.3148 17.4125 15.2968 17.0213 15.3561 16.7259C15.3868 16.5734 15.4309 16.4876 15.4707 16.4472C15.494 16.4236 15.5302 16.3971 15.634 16.4169L15.634 16.4169C16.1798 16.5207 16.8255 16.775 17.253 17.0078C17.2979 17.0323 17.3454 17.0633 17.3971 17.0971C17.4579 17.1367 17.5246 17.1803 17.6004 17.222C17.4897 17.2483 17.3663 17.2831 17.2576 17.3376L16.3402 17.7977L17.3655 17.8424C17.619 17.8535 17.8277 17.9025 18.0106 17.9744C18.0093 18.0072 18.008 18.0399 18.0067 18.0727C18.0067 18.0744 18.0066 18.0762 18.0065 18.078C17.8646 18.1833 17.7265 18.3004 17.594 18.4126C17.5559 18.445 17.5181 18.4769 17.4809 18.5081C17.2746 18.6809 17.074 18.8387 16.8538 18.9584L16.8537 18.9584C16.7557 19.0117 16.5097 19.1186 16.2548 19.2055C16.1287 19.2484 16.0076 19.284 15.9073 19.3052C15.8548 19.3164 15.817 19.3215 15.7915 19.3239ZM18.2266 17.1386L18.247 16.8727C18.0098 16.8545 17.9098 16.7895 17.7539 16.6884C17.6873 16.6451 17.6104 16.5952 17.5082 16.5395L17.5082 16.5395C17.0412 16.2852 16.3433 16.009 15.7338 15.893C15.4796 15.8446 15.2556 15.9057 15.091 16.0726C14.943 16.2227 14.8715 16.4302 14.8332 16.6209C14.7605 16.9829 14.7816 17.4329 14.7965 17.7505C14.7973 17.7684 14.7981 17.7859 14.7989 17.803M15.6839 16.1549L15.6839 16.155L15.6839 16.1549L18.4931 17.1479C18.4917 17.1889 18.49 17.2304 18.4884 17.2712C18.4878 17.2858 18.4872 17.3002 18.4867 17.3146L18.4812 17.4519L18.3663 17.5272C18.3601 17.5312 18.3538 17.5352 18.3475 17.5391C18.3661 17.5478 18.3845 17.5567 18.4028 17.5658L18.5575 17.6426L18.5506 17.8152C18.5469 17.9079 18.5433 18.0004 18.5397 18.0931C18.5379 18.1385 18.5362 18.1839 18.5344 18.2295L18.5291 18.3637L18.4182 18.4393C18.2625 18.5456 18.1133 18.6719 17.9481 18.8118C17.9076 18.846 17.8662 18.8811 17.8235 18.9169C17.613 19.0932 17.3784 19.2803 17.1085 19.427" fill="#D33833"/>
    <path fill-rule="evenodd" clip-rule="evenodd" d="M18.6422 17.9278C18.5787 17.5671 18.5052 17.4641 18.5336 17.1494C19.4989 16.5078 19.6801 18.2513 18.6422 17.9278Z" fill="#D33833"/>
    <path fill-rule="evenodd" clip-rule="evenodd" d="M19.2225 16.8074C18.9707 16.6817 18.6742 16.7357 18.3856 16.9275L18.2791 16.9982L18.2676 17.1256C18.2508 17.3119 18.2644 17.4426 18.2918 17.5754C18.3035 17.632 18.3145 17.6773 18.3255 17.7227C18.3425 17.7925 18.3595 17.8626 18.3791 17.9743L18.4073 18.1343L18.5624 18.1826C18.8882 18.2841 19.1802 18.2373 19.3819 18.0462C19.5704 17.8674 19.6289 17.609 19.6036 17.3891C19.5784 17.1699 19.462 16.9271 19.2225 16.8074ZM18.8682 17.7017C18.9557 17.7052 18.9969 17.6762 19.015 17.6591C19.0542 17.6219 19.0847 17.5452 19.0737 17.4499C19.0627 17.3538 19.0177 17.3013 18.9842 17.2846C18.9676 17.2763 18.9104 17.2554 18.794 17.3078C18.7958 17.3662 18.8033 17.4152 18.8142 17.4676C18.8192 17.4921 18.8271 17.5252 18.8364 17.5646C18.8459 17.6046 18.857 17.651 18.8682 17.7017Z" fill="#D33833"/>
    <path fill-rule="evenodd" clip-rule="evenodd" d="M20.0402 18.2205C20.0402 18.2205 19.74 17.793 19.9544 17.6648C20.1688 17.5366 20.3832 17.6649 20.5118 17.4512C20.6404 17.2375 20.5118 17.1093 20.5546 16.8529C20.5975 16.5965 20.812 16.5537 21.0263 16.511C21.2405 16.4683 21.8409 16.3828 21.9266 16.5965L21.6693 15.8272L21.1549 15.6564L19.5257 16.5965L19.4399 17.0666V18.0067" fill="#EF3D3A"/>
    <path fill-rule="evenodd" clip-rule="evenodd" d="M15.5363 19.6313C15.4848 18.9644 15.4303 18.2984 15.3696 17.6321C15.2789 16.6372 15.6094 16.8108 16.4745 16.8108C16.6067 16.8108 17.2881 16.9679 17.3369 17.0672C17.5707 17.5433 16.9459 17.4375 17.6062 17.7965C18.1636 18.0994 19.1483 17.6125 18.923 16.939C18.797 16.7893 18.2663 16.8924 18.0761 16.794C17.7412 16.621 17.4063 16.4479 17.0714 16.2748C16.6452 16.0544 15.6604 15.7331 15.2061 16.0411C14.0549 16.8215 15.2787 18.7713 15.6894 19.5854" fill="#EF3D3A"/>
    <path fill-rule="evenodd" clip-rule="evenodd" d="M16.6646 4.4837C15.4961 4.21242 14.9155 4.97113 14.5613 5.75806C14.245 5.68165 14.3709 5.25293 14.4508 5.03447C14.6599 4.46114 15.5028 3.69793 16.1915 3.80139C16.4878 3.84588 16.8889 4.11601 16.6646 4.4837Z" fill="#231F20"/>
    <path fill-rule="evenodd" clip-rule="evenodd" d="M22.3609 5.81128C22.3793 5.81205 22.398 5.81269 22.4164 5.81346C22.6804 6.36026 22.9089 6.93949 23.2421 7.42218C23.0189 7.94026 21.5523 8.39872 21.575 7.46846C21.8921 7.33026 22.4396 7.44026 22.7208 7.26372C22.5582 6.81898 22.3236 6.44039 22.3609 5.81128Z" fill="#231F20"/>
    <path fill-rule="evenodd" clip-rule="evenodd" d="M17.2637 5.82558C17.5142 6.2834 17.5958 6.76442 17.9519 7.11045C18.1123 7.26622 18.4242 7.45609 18.2696 7.88929C18.2334 7.99147 17.9694 8.21929 17.817 8.26404C17.2602 8.42788 15.9628 8.29788 16.4022 7.60596C16.8626 7.62737 17.4815 7.90404 17.8257 7.57083C17.5614 7.14968 17.0902 6.31647 17.2637 5.82558Z" fill="#231F20"/>
    <path fill-rule="evenodd" clip-rule="evenodd" d="M22.1521 10.4797C21.3135 11.0167 20.3783 11.6007 19.004 11.4653C18.7104 11.2108 18.5985 10.6445 18.8837 10.2705C19.0322 10.525 18.9389 10.993 19.3527 11.0634C20.1325 11.1964 21.04 10.588 21.6009 10.3753C21.9487 9.79079 21.5709 9.57582 21.2576 9.19962C20.6162 8.42888 19.7557 7.47357 19.787 6.3197C20.0463 6.1323 20.0687 6.60573 20.1059 6.69192C20.4408 7.47331 21.2837 8.47262 21.8989 9.14139C22.05 9.30608 22.2987 9.4641 22.3264 9.573C22.4062 9.88969 22.1188 10.2691 22.1521 10.4797Z" fill="#231F20"/>
    <path fill-rule="evenodd" clip-rule="evenodd" d="M11.0948 9.91458C10.832 9.7651 10.7695 9.10663 10.461 9.08792C10.0201 9.06125 10.1005 9.94215 10.1023 10.4573C9.79883 10.1827 9.74547 9.33715 9.9684 8.90291C9.71433 8.77856 9.60088 9.04009 9.45996 9.13227C9.64107 7.82073 11.3847 8.52394 11.0948 9.91458Z" fill="#231F20"/>
    <path fill-rule="evenodd" clip-rule="evenodd" d="M22.6854 11.0267C22.2952 11.7671 21.7432 12.5825 20.5981 12.6062C20.5748 12.3671 20.557 12.0033 20.5994 11.8593C21.4747 11.7754 22.0152 11.3313 22.6854 11.0267Z" fill="#231F20"/>
    <path fill-rule="evenodd" clip-rule="evenodd" d="M17.1978 11.5068C17.9281 11.8897 19.2703 11.9308 20.2629 11.9018C20.3162 12.1186 20.3149 12.3865 20.3169 12.6508C19.041 12.7143 17.5323 12.3995 17.1978 11.5068Z" fill="#231F20"/>
    <path fill-rule="evenodd" clip-rule="evenodd" d="M17.0591 12.2214C17.5642 13.4853 19.2999 13.3398 20.7637 13.3049C20.6992 13.469 20.5596 13.6629 20.3859 13.733C19.9169 13.9233 18.6232 14.0676 17.972 13.7229C17.559 13.5041 17.2937 13.0096 17.0674 12.7197C16.9581 12.5797 16.414 12.2221 17.0591 12.2214Z" fill="#231F20"/>
    <path fill-rule="evenodd" clip-rule="evenodd" d="M22.0904 19.1971C21.4977 20.2089 20.9307 21.2481 20.2275 22.1406C20.5223 21.2766 20.6485 19.8306 20.693 18.7282C21.3097 18.4405 21.8378 18.7929 22.0904 19.1971Z" fill="#81B0C4"/>
    <path fill-rule="evenodd" clip-rule="evenodd" d="M25.281 22.8344C24.6174 22.9668 24.1512 23.6097 23.5039 23.5684C23.8597 23.0685 24.483 22.8578 25.281 22.8344Z" fill="#231F20"/>
    <path fill-rule="evenodd" clip-rule="evenodd" d="M25.5737 23.8698C25.0329 23.9267 24.3977 24.014 23.8491 23.969C24.1088 23.5736 25.1093 23.7101 25.5737 23.8698Z" fill="#231F20"/>
    <path fill-rule="evenodd" clip-rule="evenodd" d="M25.7613 24.7626C25.1535 24.7758 24.398 24.7637 23.8203 24.7154C24.162 24.3495 25.3671 24.5796 25.7613 24.7626Z" fill="#231F20"/>
    <path fill-rule="evenodd" clip-rule="evenodd" d="M20.947 27.207C21.0342 27.9679 21.3368 28.7389 21.2988 29.5723C20.9628 29.6852 20.7697 29.784 20.3194 29.7834C20.2877 29.0752 20.1926 27.9925 20.2211 27.3174C20.4425 27.332 20.7691 27.1597 20.947 27.207Z" fill="#DCD9D8"/>
    <path fill-rule="evenodd" clip-rule="evenodd" d="M19.9655 15.9867C19.6603 16.1853 19.4004 16.4332 19.1073 16.6453C18.4573 16.6773 18.1025 16.6004 17.625 16.2284C17.6328 16.1985 17.6808 16.2118 17.6826 16.1752C18.3784 16.4843 19.2629 16.0493 19.9655 15.9867Z" fill="#F0D6B7"/>
    <path fill-rule="evenodd" clip-rule="evenodd" d="M16.3125 20.717C16.5037 19.8912 17.2527 19.4635 17.933 19.0088C18.6351 19.897 19.0621 21.0393 19.5323 22.1416C18.4213 21.8078 17.2862 21.2661 16.3125 20.717Z" fill="#81B0C4"/>
    <path fill-rule="evenodd" clip-rule="evenodd" d="M20.2211 27.3163C20.1927 27.9917 20.2878 29.0749 20.3195 29.7835C20.77 29.7841 20.9632 29.6852 21.2994 29.5722C21.3373 28.7385 21.0346 27.9671 20.9473 27.2058C20.7694 27.1585 20.4427 27.3309 20.2211 27.3163ZM13.2066 23.4749C13.5037 26.1971 13.9339 28.4854 14.723 30.8959C16.4744 31.426 18.5858 31.4722 20.1339 30.9939C19.8496 29.6333 19.9738 27.977 19.8077 26.5251C19.6825 25.4339 19.7463 24.3359 19.5746 23.2226C17.6988 22.8336 15.0475 23.1316 13.2066 23.4749ZM20.0182 23.2397C20.0024 24.4088 20.0707 25.562 20.1602 26.7326C20.6106 26.6652 20.9162 26.6202 21.3346 26.5287C21.1988 25.4018 21.2155 24.1338 20.9387 23.1369C20.6188 23.1399 20.3372 23.1332 20.0182 23.2397ZM22.3028 23.0512C22.089 23.0024 21.8402 23.0493 21.636 23.0533C21.732 24.0063 21.9649 25.0579 22.0468 26.0583C22.3681 26.0682 22.5398 25.9172 22.8041 25.8664C22.8182 24.9883 22.7271 23.7785 22.3028 23.0512ZM25.762 26.2018C26.4318 26.0396 26.8529 25.222 26.6656 24.3822C26.5399 23.8179 26.316 22.7552 26.0764 22.3941C25.8993 22.1271 25.4192 21.7774 25.0359 22.0221C24.4124 22.4202 23.3139 22.5357 22.8592 23.0175C23.0872 23.7743 23.1579 24.8137 23.252 25.7726C24.031 25.821 24.9895 25.5589 25.6373 25.837C25.1851 25.9831 24.5982 25.9842 24.2074 26.1971C24.5268 26.3508 25.2745 26.3198 25.762 26.2018ZM19.5339 22.1417C19.0634 21.0389 18.6362 19.8961 17.9338 19.0074C17.2533 19.4624 16.5038 19.8903 16.3126 20.7164C17.2867 21.2658 18.4224 21.8077 19.5339 22.1417ZM20.6935 18.7266C20.6489 19.8296 20.5227 21.2763 20.2278 22.1407C20.9312 21.2478 21.4986 20.2081 22.0915 19.1958C21.8388 18.7914 21.3104 18.4388 20.6935 18.7266ZM19.3789 18.261C19.1125 18.2324 18.8862 18.5664 18.5397 18.422C18.4603 18.5095 18.3882 18.6043 18.3072 18.6897C19.0726 19.6091 19.4204 20.9136 20.0115 21.994C20.3287 20.9561 20.2921 19.8191 20.362 18.6862C19.9262 18.7138 19.6844 18.2934 19.3789 18.261ZM18.5337 17.149C18.5052 17.4639 18.5787 17.5669 18.6423 17.9278C19.6807 18.2514 19.4994 16.5072 18.5337 17.149ZM17.3822 16.7722C16.9347 16.5285 16.2626 16.2631 15.6847 16.1531C14.9683 16.0165 15.0354 17.1272 15.0658 17.7898C15.0897 18.3144 15.3634 18.8692 15.4822 19.2177C15.538 19.3804 15.5506 19.5531 15.6902 19.5854C15.9369 19.6427 16.7506 19.3183 16.9825 19.1923C17.4729 18.9257 17.8534 18.5024 18.2699 18.2182C18.2753 18.0799 18.2806 17.9418 18.2861 17.8035C18.0357 17.6791 17.7463 17.5909 17.3787 17.5748C17.6281 17.4498 17.9949 17.4516 18.2222 17.3028C18.2244 17.2474 18.2267 17.1921 18.2286 17.1372C17.8138 17.1054 17.6556 16.9212 17.3822 16.7722ZM13.1085 15.9983C12.7371 16.3741 14.15 16.8864 14.5999 16.914C14.5974 16.6762 14.7358 16.452 14.7079 16.2814C14.1737 16.1879 13.4715 16.2496 13.1085 15.9983ZM17.683 16.1748C17.6812 16.2115 17.6332 16.1982 17.6254 16.2281C18.1031 16.6003 18.458 16.6772 19.1083 16.6452C19.4016 16.433 19.6616 16.185 19.967 15.9863C19.264 16.0489 18.3791 16.4841 17.683 16.1748ZM21.8819 17.444C21.8618 17.0265 21.7518 16.1679 21.4929 16.0176C20.9495 15.7014 19.9836 16.6559 19.5744 16.8015C19.6189 16.9293 19.6924 17.0305 19.698 17.1938C19.9401 17.1344 20.2347 17.175 20.4445 17.2778C20.2019 17.3048 19.933 17.303 19.7725 17.4182C19.7137 17.5877 19.787 17.8185 19.7478 18.0538C20.3235 18.2156 20.981 18.3018 21.7088 18.3231C21.8504 18.1397 21.8986 17.7903 21.8819 17.444ZM12.4833 16.3618C12.3667 16.279 11.5778 15.2558 11.4698 15.2983C10.0423 15.8594 8.70755 16.8297 7.51482 17.7475C8.65202 20.1799 9.11107 23.16 9.19219 26.0323C10.4949 26.6397 11.6391 27.5152 13.4069 27.6067C13.2023 26.1639 13.0156 24.8768 12.8995 23.5185C12.4553 23.3318 11.8181 23.5269 11.4024 23.4606C11.3989 22.9613 12.0372 23.242 12.0904 22.9062C12.1305 22.6522 11.7392 22.633 11.8666 22.233C12.1915 22.3508 12.3622 22.6109 12.7087 22.7085C13.0254 22.0179 12.7043 20.7961 12.7499 20.2189C12.7586 20.1105 12.8042 19.6185 13.0478 19.7048C13.2633 19.7812 13.0354 21.0134 13.0591 21.5596C13.0806 22.0629 12.9981 22.5499 13.2026 22.8659C14.9108 22.6341 16.6466 22.4843 18.4948 22.4338C18.0882 22.2598 17.6052 22.0952 17.0756 21.7977C16.7885 21.6364 15.8835 21.3007 15.8007 21.0288C15.6685 20.5957 16.1475 20.365 16.2294 19.9937C15.3671 20.4624 15.1989 19.5443 14.9949 18.8939C14.8101 18.3048 14.7049 17.8647 14.6596 17.5249C13.9168 17.172 13.1227 16.8145 12.4833 16.3618ZM21.1275 15.422C22.3168 14.8472 22.5312 17.5706 22.065 18.4479C22.137 18.7096 22.3849 18.8098 22.486 19.045C21.8223 20.2302 21.0851 21.3364 20.4079 22.5076C20.9117 22.1951 21.6312 22.4517 22.224 22.2178C22.4407 22.1323 22.5976 21.6379 22.7616 21.2423C23.2129 20.154 23.6867 18.7819 23.8974 17.7434C23.945 17.5067 24.0747 16.9911 24.0457 16.7805C23.9938 16.4034 23.4805 16.1238 23.2194 15.8906C22.7385 15.4599 22.4356 15.0809 21.9339 14.6781C21.7304 14.9775 21.2938 15.1786 21.1275 15.422ZM9.76333 4.90845C9.19661 5.53002 9.31524 6.69466 9.38385 7.52325C10.4082 6.8809 11.7678 7.57404 11.755 8.6666C12.2441 8.65365 11.9377 8.05773 11.8492 7.67383C11.5601 6.41992 12.3363 5.05762 11.8844 3.91093C11.0071 3.97725 10.2863 4.33447 9.76333 4.90845ZM13.8183 1.30088C12.5353 1.66336 10.8911 2.59263 10.3639 3.7415C10.7721 3.68237 11.0555 3.47714 11.4582 3.45175C11.6104 3.44187 11.8098 3.51537 11.9847 3.47202C12.3333 3.38582 12.6275 2.60674 12.8904 2.31686C13.1468 2.03378 13.4549 1.91283 13.6657 1.65476C13.8012 1.58961 14.0015 1.59409 14.0092 1.39131C13.9505 1.32871 13.8887 1.281 13.8183 1.30088ZM20.4968 1.6418C19.1652 0.892868 16.9112 0.329531 15.4947 1.03345C14.3517 1.60153 12.8067 2.54145 12.28 3.73252C12.7721 4.8819 12.1342 5.93508 12.0935 7.10203C12.0719 7.72296 12.3868 8.26501 12.4109 8.94096C12.2426 9.21788 11.7281 9.252 11.372 9.23302C11.2521 8.63505 11.0423 7.96294 10.4245 7.89548C9.55046 7.80017 8.91137 8.52128 8.87166 9.27483C8.82467 10.161 9.55448 11.6298 10.5889 11.5278C10.9885 11.4884 11.0867 11.0891 11.522 11.0932C11.758 11.5626 11.158 11.7099 11.0963 12.0456C11.0802 12.1323 11.1461 12.4712 11.1844 12.6301C11.3722 13.4039 11.7911 14.4054 12.2033 14.9945C12.7266 15.7418 13.7546 15.8544 14.8605 15.9277C15.058 15.5035 15.7857 15.5384 16.2598 15.6493C15.6916 15.425 15.1633 14.8811 14.7255 14.3998C14.2227 13.8475 13.7132 13.255 13.6875 12.5331C14.6378 13.8473 15.4229 14.995 17.151 15.5731C18.4585 16.0103 19.9856 15.3728 20.9903 14.6695C21.4072 14.3772 21.6561 13.9134 21.9524 13.4888C23.0612 11.899 23.5786 9.62974 23.4648 7.43026C23.418 6.52317 23.42 5.61916 23.1147 5.00888C22.7956 4.37076 21.7163 3.79986 21.0845 4.37705C20.9674 3.75651 21.6099 3.37274 22.3645 3.59605C21.8264 2.9038 21.2617 2.072 20.4968 1.6418ZM22.9778 22.1086C24.0184 21.593 25.9626 20.7207 26.615 22.1105C26.8557 22.6228 27.1382 23.4889 27.2629 24.0177C27.439 24.7638 27.0719 26.332 26.3026 26.5824C25.6231 26.8035 24.8302 26.79 24.0117 26.6261C23.9153 26.5462 23.808 26.4069 23.733 26.2617C23.1485 26.2391 22.6013 26.293 22.1396 26.5324C22.1834 26.9633 21.891 27.0324 21.6169 27.1212C21.4138 27.9242 22.0234 28.9729 21.8775 29.7052C21.7734 30.2269 21.1295 30.3075 20.6563 30.4051C20.6408 30.695 20.677 30.937 20.7093 31.1823C20.6011 31.5798 20.1157 31.806 19.6558 31.8614C18.1428 32.0428 15.8454 32.1243 14.39 31.6026C13.9839 30.6096 13.664 29.4019 13.3257 28.268C11.9063 28.4191 10.7583 27.6575 9.67602 27.1585C9.30131 26.9853 8.78295 26.8899 8.64297 26.5926C8.50726 26.3048 8.56279 25.7531 8.52912 25.232C8.44342 23.901 8.37004 22.6172 8.01744 21.2544C7.85912 20.6428 7.58317 20.1032 7.39066 19.5139C7.21273 18.9678 6.90185 18.2929 6.82078 17.7482C6.70056 16.9411 7.46304 16.8962 7.95059 16.5464C8.70428 16.0055 9.29588 15.7064 10.1121 15.2182C10.3539 15.0737 11.083 14.7077 11.1659 14.5392C11.3308 14.2051 10.8829 13.7339 10.7632 13.472C10.5738 13.0579 10.475 12.706 10.4479 12.2974C9.76317 12.1895 9.24411 11.7833 8.93057 11.3253C8.41191 10.5672 8.05222 9.16478 8.50097 8.098C8.53616 8.01399 8.71167 7.84879 8.73756 7.71975C8.78863 7.46566 8.64145 7.12781 8.6323 6.85756C8.58516 5.47102 8.86765 4.27636 9.80404 3.85822C10.1842 2.34867 11.5447 1.84678 12.8266 1.09656C13.3058 0.816168 13.834 0.63698 14.3795 0.436888C16.3364 -0.28101 19.3388 -0.145817 20.9629 1.0786C21.6516 1.59781 22.7524 2.69409 23.1461 3.48779C24.186 5.58325 24.1122 9.08525 23.3848 11.6343C23.287 11.9765 23.1452 12.4795 22.9472 12.8906C22.8091 13.1777 22.38 13.752 22.4321 14.0055C22.4858 14.2675 23.4105 14.9675 23.6088 15.1581C23.9659 15.5014 24.6442 15.9572 24.6992 16.3904C24.7582 16.8515 24.4954 17.4824 24.3622 17.9273C23.917 19.4122 23.4826 20.7848 22.9778 22.1086Z" fill="#231F20"/>
    <path fill-rule="evenodd" clip-rule="evenodd" d="M16.0355 11.8303C16.0919 11.7554 16.4021 11.6417 16.8362 11.85C16.8362 11.85 16.3217 11.9355 16.3645 12.7905L16.1502 12.7477C16.1502 12.7477 15.9286 11.9724 16.0355 11.8303Z" fill="#F7E4CD"/>
    <path fill-rule="evenodd" clip-rule="evenodd" d="M19.7958 19.182C19.7958 19.3118 19.6903 19.417 19.56 19.417C19.4298 19.417 19.3242 19.3118 19.3242 19.182C19.3242 19.0523 19.4298 18.9469 19.56 18.9469C19.6903 18.9469 19.7958 19.0523 19.7958 19.182Z" fill="#1D1919"/>
    <path fill-rule="evenodd" clip-rule="evenodd" d="M20.0317 20.2723C20.0317 20.4021 19.9261 20.5073 19.7958 20.5073C19.6657 20.5073 19.5601 20.4021 19.5601 20.2723C19.5601 20.1426 19.6657 20.0372 19.7958 20.0372C19.9261 20.0372 20.0317 20.1426 20.0317 20.2723Z" fill="#1D1919"/>
  </g>
  <defs>
    <clipPath id="clip0_3691_61959">
      <rect width="32" height="32" fill="white"/>
    </clipPath>
  </defs>
</svg>
