<?xml version="1.0" encoding="utf-8"?>
<svg width="540" height="304" viewBox="0 0 540 304" fill="none" xmlns="http://www.w3.org/2000/svg">
  <g transform="matrix(1, 0, 0, 1, -20, -20)">
    <rect x="20" y="20" width="540" height="304" rx="6" fill="#E1E3ED"/>
    <g filter="url(#filter1_d_13163_138476)">
      <rect x="164" y="38" width="252" height="268" rx="8" fill="white" shape-rendering="crispEdges"/>
      <rect x="164.5" y="38.5" width="251" height="267" rx="3.5" stroke="#D0D2E0"/>
    </g>
    <circle cx="290" cy="110" r="42" stroke="#6470F3" stroke-width="4"/>
    <path d="M290 68C313.196 68 332 86.804 332 110C332 133.196 313.196 152 290 152C278.402 152 267.902 147.299 260.302 139.698" stroke="#6470F3" stroke-width="4"/>
    <path d="M332 110C332 86.804 313.196 68 290 68" stroke="#6470F3" stroke-width="4" stroke-linecap="round"/>
    <path d="M336 110H290M290 64V110M290 110L257.473 142.527" stroke="white" stroke-width="4"/>
    <mask id="mask0_13163_138476" style="mask-type:alpha" maskUnits="userSpaceOnUse" x="250" y="70" width="80" height="77">
      <path d="M326 110.006C326 129.888 309.882 146.006 290 146.006C270.118 146.006 254 129.888 254 110.006H250V70H330V110.006H326Z" fill="#00595D"/>
    </mask>
    <g mask="url(#mask0_13163_138476)">
      <path d="M290 146.006C309.882 146.006 326 129.888 326 110.006C326 90.1236 309.882 74.0059 290 74.0059C270.118 74.0059 254 90.1236 254 110.006C254 129.888 270.118 146.006 290 146.006Z" fill="#9AA2FC"/>
      <path fill-rule="evenodd" clip-rule="evenodd" d="M282.926 118.727C282.926 118.727 273.449 114.068 267.641 116.942C254.87 123.263 254.87 132.095 254.87 148.583V152.294H325.43V148.583C325.43 132.092 325.973 122.888 310.685 116.831C304.91 114.542 297.047 118.724 297.047 118.724C297.092 119.132 282.878 119.132 282.923 118.724L282.926 118.727Z" fill="#6470F3"/>
      <path fill-rule="evenodd" clip-rule="evenodd" d="M297.2 116.189V121.706H298.4C310.328 121.706 320 131.378 320 143.306V146.006H260V143.306C260 131.378 269.672 121.706 281.6 121.706H282.8V116.189C277.628 113.732 273.911 108.713 273.293 102.77C271.547 102.524 270.2 101.021 270.2 99.2057V95.0057C270.2 93.2207 271.496 91.7417 273.2 91.4567V89.6057C273.2 80.3267 280.721 72.8057 290 72.8057C299.279 72.8057 306.8 80.3267 306.8 89.6057V91.4567C308.504 91.7417 309.8 93.2237 309.8 95.0057V99.2057C309.8 101.021 308.456 102.524 306.707 102.77C306.086 108.713 302.369 113.732 297.2 116.189Z" fill="#FFDBB4"/>
      <path d="M278.039 91.1839C279.212 89.5309 282.434 88.6039 285.206 89.2849C285.527 89.3629 285.854 89.1679 285.932 88.8439C286.01 88.5229 285.815 88.1959 285.491 88.1179C282.269 87.3259 278.543 88.3999 277.058 90.4849C276.866 90.7549 276.929 91.1299 277.199 91.3219C277.469 91.5139 277.844 91.4509 278.036 91.1809L278.039 91.1839Z" fill="#35241B"/>
      <path d="M302.261 91.1839C301.088 89.5309 297.866 88.6039 295.094 89.2849C294.773 89.3629 294.446 89.1679 294.368 88.8439C294.29 88.5229 294.485 88.1959 294.809 88.1179C298.031 87.3259 301.757 88.3999 303.242 90.4849C303.434 90.7549 303.371 91.1299 303.101 91.3219C302.831 91.5139 302.456 91.4509 302.264 91.1809L302.261 91.1839Z" fill="#35241B"/>
      <path fill-rule="evenodd" clip-rule="evenodd" d="M306.8 96.5059V103.406C306.8 112.685 299.279 120.206 290 120.206C280.721 120.206 273.2 112.685 273.2 103.406V101.006C273.2 110.285 280.721 117.806 290 117.806C299.279 117.806 306.8 110.285 306.8 101.006V96.5059V96.5059Z" fill="black" fill-opacity="0.1"/>
      <path fill-rule="evenodd" clip-rule="evenodd" d="M300.188 121.792C311.282 122.701 320 131.992 320 143.32V146.005H260V143.32C260 131.89 268.877 122.533 280.115 121.771C280.106 121.882 280.1 121.996 280.1 122.11C280.1 125.668 284.6 128.554 290.15 128.554C295.7 128.554 300.2 125.668 300.2 122.11C300.2 122.005 300.197 121.9 300.188 121.795V121.792Z" fill="white"/>
      <g opacity="0.6">
        <path fill-rule="evenodd" clip-rule="evenodd" d="M302.042 122.557C302.042 127.016 296.718 130.63 290.15 130.63C283.582 130.63 278.258 127.016 278.258 122.557C278.258 122.361 278.268 122.166 278.289 121.973C278.89 121.881 279.499 121.813 280.115 121.771C280.106 121.882 280.1 121.996 280.1 122.11C280.1 125.668 284.6 128.554 290.15 128.554C295.7 128.554 300.2 125.668 300.2 122.11C300.2 122.005 300.197 121.9 300.188 121.795V121.792C300.805 121.843 301.415 121.92 302.016 122.021C302.033 122.198 302.042 122.377 302.042 122.557Z" fill="#E1E3ED"/>
      </g>
      <path fill-rule="evenodd" clip-rule="evenodd" d="M280.634 121.742C269.153 122.246 260 131.714 260 143.321V146.006H280.808C279.788 142.382 279.2 138.119 279.2 133.556C279.2 129.257 279.722 125.225 280.634 121.742ZM299.489 146.006H319.997V143.321C319.997 131.819 311.003 122.414 299.666 121.757C300.578 125.237 301.097 129.263 301.097 133.556C301.097 138.119 300.509 142.382 299.489 146.006V146.006Z" fill="#1B1E2E"/>
      <path fill-rule="evenodd" clip-rule="evenodd" d="M304.7 138.806L307.568 136.655C308 136.331 308.597 136.337 309.026 136.667L311.003 138.203L304.703 138.803L304.7 138.806Z" fill="#1B1E2E"/>
      <path fill-rule="evenodd" clip-rule="evenodd" d="M280.7 121.406C279.5 127.205 280.001 135.407 282.2 146.006H277.4L273.2 135.206L275 132.506L273.2 130.706L278.9 121.706C279.509 121.517 280.109 121.418 280.7 121.406Z" fill="#2E3247"/>
      <path fill-rule="evenodd" clip-rule="evenodd" d="M299.3 121.406C300.5 127.205 299.999 135.407 297.8 146.006H302.6L306.8 135.206L305 132.506L306.8 130.706L301.1 121.706C300.491 121.517 299.891 121.418 299.3 121.406Z" fill="#2E3247"/>
      <path opacity="0.3" fill-rule="evenodd" clip-rule="evenodd" d="M285.8 106.706C285.8 109.025 287.681 110.906 290 110.906C292.319 110.906 294.2 109.025 294.2 106.706" fill="black"/>
      <g opacity="0.3">
        <path fill-rule="evenodd" clip-rule="evenodd" d="M286.4 101.006C286.4 102.332 288.011 103.406 290 103.406C291.989 103.406 293.6 102.332 293.6 101.006" fill="black"/>
      </g>
      <path fill-rule="evenodd" clip-rule="evenodd" d="M280.7 120.653C279.557 126.176 289.865 126.581 291.182 135.233C291.248 135.665 290.753 135.983 290.774 136.46C290.774 136.46 286.676 134.852 285.5 134.621C282.569 134.051 277.442 133.472 275 131.753C272.687 130.124 267.002 123.755 267.002 123.755L278.9 120.953C279.509 120.764 280.109 120.665 280.7 120.653Z" fill="#6470F3"/>
      <path fill-rule="evenodd" clip-rule="evenodd" d="M299.333 120.653C300.458 126.089 291.872 126.05 290.528 134.663C290.438 135.236 290.798 135.806 290.774 136.46C290.774 136.46 293.624 134.936 294.8 134.702C297.578 134.15 303.263 133.613 305.633 131.921C308.252 130.055 313.448 123.422 313.448 123.422L301.133 120.95C300.524 120.761 299.924 120.662 299.333 120.65V120.653Z" fill="#6470F3"/>
      <path fill-rule="evenodd" clip-rule="evenodd" d="M307.04 96.2898C307.04 96.2898 299.027 100.541 289.979 100.541C280.931 100.541 272.858 96.2358 272.858 96.2358L272.903 90.6228C272.903 90.6228 279.098 88.8198 289.715 88.8198C300.332 88.8198 307.103 90.6558 307.103 90.6558L307.043 96.2928L307.04 96.2898Z" fill="#6470F3"/>
      <path d="M282.05 96.9709C284.37 96.9709 286.25 96.0226 286.25 94.8529C286.25 93.6831 284.37 92.7349 282.05 92.7349C279.73 92.7349 277.85 93.6831 277.85 94.8529C277.85 96.0226 279.73 96.9709 282.05 96.9709Z" fill="#FFDBB4"/>
      <path d="M297.95 96.9709C300.27 96.9709 302.15 96.0226 302.15 94.8529C302.15 93.6831 300.27 92.7349 297.95 92.7349C295.63 92.7349 293.75 93.6831 293.75 94.8529C293.75 96.0226 295.63 96.9709 297.95 96.9709Z" fill="#FFDBB4"/>
      <path d="M282.05 96.6527C283.044 96.6527 283.85 95.8468 283.85 94.8527C283.85 93.8586 283.044 93.0527 282.05 93.0527C281.056 93.0527 280.25 93.8586 280.25 94.8527C280.25 95.8468 281.056 96.6527 282.05 96.6527Z" fill="black"/>
      <path d="M297.95 96.6527C298.944 96.6527 299.75 95.8468 299.75 94.8527C299.75 93.8586 298.944 93.0527 297.95 93.0527C296.956 93.0527 296.15 93.8586 296.15 94.8527C296.15 95.8468 296.956 96.6527 297.95 96.6527Z" fill="black"/>
      <path fill-rule="evenodd" clip-rule="evenodd" d="M272.9 91.4056C273.005 91.8526 273.401 91.7716 273.5 91.4056C273.362 90.9406 274.49 82.7807 277.4 80.6057C278.486 79.8497 284.303 79.1747 290.093 79.1807C295.823 79.1837 301.526 79.8587 302.6 80.6057C305.51 82.7807 306.638 90.9406 306.5 91.4056C306.599 91.7716 306.995 91.8526 307.1 91.4056C307.316 88.3156 307.1 72.2867 290 72.5027C272.9 72.7217 272.684 88.3156 272.9 91.4056Z" fill="#35241B"/>
    </g>
    <rect x="222.5" y="174" width="135" height="16" rx="8" fill="#6470F3"/>
    <rect x="238.5" y="198" width="103" height="12" rx="6" fill="#AFB3C7"/>
    <path d="M246.5 234.5H290V273.5H246.5C244.567 273.5 243 271.933 243 270V238C243 236.067 244.567 234.5 246.5 234.5Z" stroke="#E1E3ED"/>
    <path d="M266.5 252V244L259.5 256H266.5V264L273.5 252H266.5Z" fill="#6470F3" stroke="#6470F3" stroke-width="2" stroke-linecap="round" stroke-linejoin="round"/>
    <path d="M290 234.5H333.5C335.433 234.5 337 236.067 337 238V270C337 271.933 335.433 273.5 333.5 273.5H290V234.5Z" stroke="#E1E3ED"/>
    <path fill-rule="evenodd" clip-rule="evenodd" d="M311.294 245.5C311.294 245.224 311.518 245 311.794 245H314.794C315.07 245 315.294 245.224 315.294 245.5V246.917C315.294 247.138 315.44 247.331 315.649 247.406C316.453 247.693 317.189 248.123 317.826 248.665C317.995 248.808 318.235 248.838 318.427 248.727L319.655 248.018C319.895 247.88 320.2 247.962 320.338 248.201L321.838 250.799C321.977 251.038 321.895 251.344 321.655 251.482L320.428 252.191C320.236 252.301 320.142 252.524 320.181 252.742C320.256 253.15 320.294 253.57 320.294 254C320.294 254.43 320.256 254.85 320.181 255.258C320.142 255.476 320.236 255.699 320.428 255.809L321.655 256.518C321.895 256.656 321.977 256.962 321.838 257.201L320.338 259.799C320.2 260.038 319.895 260.12 319.655 259.982L318.427 259.273C318.235 259.162 317.995 259.192 317.826 259.335C317.189 259.877 316.453 260.307 315.649 260.594C315.44 260.669 315.294 260.862 315.294 261.083V262.5C315.294 262.776 315.07 263 314.794 263H311.794C311.518 263 311.294 262.776 311.294 262.5V261.083C311.294 260.862 311.148 260.669 310.94 260.594C310.136 260.307 309.4 259.877 308.762 259.335C308.594 259.192 308.353 259.162 308.162 259.273L306.933 259.982C306.694 260.12 306.388 260.038 306.25 259.799L304.75 257.201C304.612 256.962 304.694 256.656 304.933 256.518L306.161 255.809C306.352 255.699 306.447 255.476 306.407 255.258C306.333 254.85 306.294 254.43 306.294 254C306.294 253.57 306.333 253.15 306.407 252.742C306.447 252.524 306.352 252.301 306.161 252.191L304.933 251.482C304.694 251.344 304.612 251.038 304.75 250.799L306.25 248.201C306.388 247.962 306.694 247.88 306.933 248.018L308.162 248.727C308.353 248.838 308.594 248.808 308.762 248.665C309.4 248.123 310.136 247.693 310.94 247.406C311.148 247.331 311.294 247.138 311.294 246.917V245.5ZM313.294 257C314.951 257 316.294 255.657 316.294 254C316.294 252.343 314.951 251 313.294 251C311.637 251 310.294 252.343 310.294 254C310.294 255.657 311.637 257 313.294 257Z" fill="#6470F3" stroke="#6470F3" stroke-width="2"/>
    <rect x="44" y="252" width="492" height="48" rx="4" fill="#1B1E2E" fill-opacity="0.95"/>
    <path d="M68 276C68 274.343 69.3431 273 71 273H206V279H71C69.3431 279 68 277.657 68 276V276Z" fill="#5A5F7A"/>
    <path d="M68 276C68 277.657 69.3431 279 71 279H115V273H71C69.3431 273 68 274.343 68 276V276Z" fill="#6470F3"/>
    <circle cx="120" cy="276" r="5" fill="#6470F3" stroke="white" stroke-width="4"/>
    <rect x="208" y="273" width="60" height="6" fill="#E45770"/>
    <rect x="270" y="273" width="15" height="6" fill="#5A5F7A"/>
    <rect x="287" y="273" width="25" height="6" fill="#E45770"/>
    <rect x="314" y="273" width="28" height="6" fill="#5A5F7A"/>
    <rect x="344" y="273" width="8" height="6" fill="#E45770"/>
    <rect x="354" y="273" width="8" height="6" fill="#E45770"/>
    <rect x="364" y="273" width="8" height="6" fill="#E45770"/>
    <path d="M374 273H509C510.657 273 512 274.343 512 276V276C512 277.657 510.657 279 509 279H374V273Z" fill="#5A5F7A"/>
  </g>
  <defs>
    <filter id="filter1_d_13163_138476" x="152" y="28" width="276" height="292" filterUnits="userSpaceOnUse" color-interpolation-filters="sRGB">
      <feFlood flood-opacity="0" result="BackgroundImageFix"/>
      <feColorMatrix in="SourceAlpha" type="matrix" values="0 0 0 0 0 0 0 0 0 0 0 0 0 0 0 0 0 0 127 0" result="hardAlpha"/>
      <feOffset dy="2"/>
      <feGaussianBlur stdDeviation="6"/>
      <feComposite in2="hardAlpha" operator="out"/>
      <feColorMatrix type="matrix" values="0 0 0 0 0 0 0 0 0 0 0 0 0 0 0 0 0 0 0.06 0"/>
      <feBlend mode="normal" in2="BackgroundImageFix" result="effect1_dropShadow_13163_138476"/>
      <feBlend mode="normal" in="SourceGraphic" in2="effect1_dropShadow_13163_138476" result="shape"/>
    </filter>
  </defs>
</svg>