<svg width="540" height="304" viewBox="0 0 540 304" fill="none"
  xmlns="http://www.w3.org/2000/svg">
  <path d="M25.1562 21.626H29.1797C30.0443 21.626 30.7812 21.7562 31.3906 22.0166C32 22.277 32.4661 22.6624 32.7891 23.1729C33.1172 23.6781 33.2812 24.3031 33.2812 25.0479C33.2812 25.6156 33.1771 26.1156 32.9688 26.5479C32.7604 26.9801 32.4661 27.3447 32.0859 27.6416C31.7057 27.9333 31.2526 28.1598 30.7266 28.3213L30.1328 28.6104H26.5156L26.5 27.0557H29.2109C29.6797 27.0557 30.0703 26.9723 30.3828 26.8057C30.6953 26.639 30.9297 26.4124 31.0859 26.126C31.2474 25.8343 31.3281 25.5062 31.3281 25.1416C31.3281 24.7458 31.25 24.402 31.0938 24.1104C30.9427 23.8135 30.7083 23.5869 30.3906 23.4307C30.0729 23.2692 29.6693 23.1885 29.1797 23.1885H27.1172V33.001H25.1562V21.626ZM31.6484 33.001L28.9766 27.8916L31.0312 27.8838L33.7422 32.8994V33.001H31.6484ZM40.1328 31.0088V24.5479H42.0234V33.001H40.2422L40.1328 31.0088ZM40.3984 29.251L41.0312 29.2354C41.0312 29.8031 40.9688 30.3265 40.8438 30.8057C40.7188 31.2796 40.526 31.6937 40.2656 32.0479C40.0052 32.3968 39.6719 32.6702 39.2656 32.8682C38.8594 33.0609 38.3724 33.1572 37.8047 33.1572C37.3932 33.1572 37.0156 33.0973 36.6719 32.9775C36.3281 32.8577 36.0312 32.6729 35.7812 32.4229C35.5365 32.1729 35.3464 31.8473 35.2109 31.4463C35.0755 31.0452 35.0078 30.5661 35.0078 30.0088V24.5479H36.8906V30.0244C36.8906 30.3317 36.9271 30.5895 37 30.7979C37.0729 31.001 37.1719 31.165 37.2969 31.29C37.4219 31.415 37.5677 31.5036 37.7344 31.5557C37.901 31.6077 38.0781 31.6338 38.2656 31.6338C38.8021 31.6338 39.224 31.5296 39.5312 31.3213C39.8438 31.1077 40.0651 30.8213 40.1953 30.4619C40.3307 30.1025 40.3984 29.6989 40.3984 29.251ZM45.8203 26.3525V33.001H43.9375V24.5479H45.7109L45.8203 26.3525ZM45.4844 28.4619L44.875 28.4541C44.8802 27.8551 44.9635 27.3057 45.125 26.8057C45.2917 26.3057 45.5208 25.876 45.8125 25.5166C46.1094 25.1572 46.4635 24.8812 46.875 24.6885C47.2865 24.4906 47.7448 24.3916 48.25 24.3916C48.6562 24.3916 49.0234 24.4489 49.3516 24.5635C49.6849 24.6729 49.9688 24.8525 50.2031 25.1025C50.4427 25.3525 50.625 25.6781 50.75 26.0791C50.875 26.4749 50.9375 26.9619 50.9375 27.54V33.001H49.0469V27.5322C49.0469 27.126 48.987 26.8057 48.8672 26.5713C48.7526 26.3317 48.5833 26.1624 48.3594 26.0635C48.1406 25.9593 47.8672 25.9072 47.5391 25.9072C47.2161 25.9072 46.9271 25.9749 46.6719 26.1104C46.4167 26.2458 46.2005 26.4307 46.0234 26.665C45.8516 26.8994 45.7188 27.1702 45.625 27.4775C45.5312 27.7848 45.4844 28.113 45.4844 28.4619ZM62 31.251V21.001H63.8906V33.001H62.1797L62 31.251ZM56.5 28.8682V28.7041C56.5 28.0635 56.5755 27.4801 56.7266 26.9541C56.8776 26.4229 57.0964 25.9671 57.3828 25.5869C57.6693 25.2015 58.0182 24.9072 58.4297 24.7041C58.8411 24.4958 59.3047 24.3916 59.8203 24.3916C60.3307 24.3916 60.7786 24.4906 61.1641 24.6885C61.5495 24.8864 61.8776 25.1702 62.1484 25.54C62.4193 25.9046 62.6354 26.3421 62.7969 26.8525C62.9583 27.3577 63.0729 27.9202 63.1406 28.54V29.0635C63.0729 29.6676 62.9583 30.2197 62.7969 30.7197C62.6354 31.2197 62.4193 31.652 62.1484 32.0166C61.8776 32.3812 61.5469 32.6624 61.1562 32.8604C60.7708 33.0583 60.3203 33.1572 59.8047 33.1572C59.2943 33.1572 58.8333 33.0505 58.4219 32.8369C58.0156 32.6234 57.6693 32.3239 57.3828 31.9385C57.0964 31.5531 56.8776 31.0999 56.7266 30.5791C56.5755 30.0531 56.5 29.4827 56.5 28.8682ZM58.3828 28.7041V28.8682C58.3828 29.2536 58.4167 29.613 58.4844 29.9463C58.5573 30.2796 58.6693 30.5739 58.8203 30.8291C58.9714 31.0791 59.1667 31.277 59.4062 31.4229C59.651 31.5635 59.9427 31.6338 60.2812 31.6338C60.7083 31.6338 61.0599 31.54 61.3359 31.3525C61.612 31.165 61.8281 30.9124 61.9844 30.5947C62.1458 30.2718 62.2552 29.9124 62.3125 29.5166V28.1025C62.2812 27.7952 62.2161 27.5088 62.1172 27.2432C62.0234 26.9775 61.8958 26.7458 61.7344 26.5479C61.5729 26.3447 61.3724 26.1885 61.1328 26.0791C60.8984 25.9645 60.6198 25.9072 60.2969 25.9072C59.9531 25.9072 59.6615 25.9801 59.4219 26.126C59.1823 26.2718 58.9844 26.4723 58.8281 26.7275C58.6771 26.9827 58.5651 27.2796 58.4922 27.6182C58.4193 27.9567 58.3828 28.3187 58.3828 28.7041ZM70.9453 31.0088V24.5479H72.8359V33.001H71.0547L70.9453 31.0088ZM71.2109 29.251L71.8438 29.2354C71.8438 29.8031 71.7812 30.3265 71.6562 30.8057C71.5312 31.2796 71.3385 31.6937 71.0781 32.0479C70.8177 32.3968 70.4844 32.6702 70.0781 32.8682C69.6719 33.0609 69.1849 33.1572 68.6172 33.1572C68.2057 33.1572 67.8281 33.0973 67.4844 32.9775C67.1406 32.8577 66.8438 32.6729 66.5938 32.4229C66.349 32.1729 66.1589 31.8473 66.0234 31.4463C65.888 31.0452 65.8203 30.5661 65.8203 30.0088V24.5479H67.7031V30.0244C67.7031 30.3317 67.7396 30.5895 67.8125 30.7979C67.8854 31.001 67.9844 31.165 68.1094 31.29C68.2344 31.415 68.3802 31.5036 68.5469 31.5557C68.7135 31.6077 68.8906 31.6338 69.0781 31.6338C69.6146 31.6338 70.0365 31.5296 70.3438 31.3213C70.6562 31.1077 70.8776 30.8213 71.0078 30.4619C71.1432 30.1025 71.2109 29.6989 71.2109 29.251ZM76.6562 26.1572V33.001H74.7734V24.5479H76.5703L76.6562 26.1572ZM79.2422 24.4932L79.2266 26.2432C79.112 26.2223 78.987 26.2067 78.8516 26.1963C78.7214 26.1859 78.5911 26.1807 78.4609 26.1807C78.138 26.1807 77.8542 26.2275 77.6094 26.3213C77.3646 26.4098 77.1589 26.54 76.9922 26.7119C76.8307 26.8786 76.7057 27.0817 76.6172 27.3213C76.5286 27.5609 76.4766 27.8291 76.4609 28.126L76.0312 28.1572C76.0312 27.626 76.0833 27.1338 76.1875 26.6807C76.2917 26.2275 76.4479 25.8291 76.6562 25.4854C76.8698 25.1416 77.1354 24.8734 77.4531 24.6807C77.776 24.488 78.1484 24.3916 78.5703 24.3916C78.6849 24.3916 78.8073 24.402 78.9375 24.4229C79.0729 24.4437 79.1745 24.4671 79.2422 24.4932ZM84.9062 31.3057V27.2744C84.9062 26.9723 84.8516 26.7119 84.7422 26.4932C84.6328 26.2744 84.4661 26.1051 84.2422 25.9854C84.0234 25.8656 83.7474 25.8057 83.4141 25.8057C83.1068 25.8057 82.8411 25.8577 82.6172 25.9619C82.3932 26.0661 82.2188 26.2067 82.0938 26.3838C81.9688 26.5609 81.9062 26.7614 81.9062 26.9854H80.0312C80.0312 26.652 80.112 26.3291 80.2734 26.0166C80.4349 25.7041 80.6693 25.4255 80.9766 25.1807C81.2839 24.9359 81.651 24.7432 82.0781 24.6025C82.5052 24.4619 82.9844 24.3916 83.5156 24.3916C84.151 24.3916 84.7135 24.4984 85.2031 24.7119C85.6979 24.9255 86.0859 25.2484 86.3672 25.6807C86.6536 26.1077 86.7969 26.6442 86.7969 27.29V31.0479C86.7969 31.4333 86.8229 31.7796 86.875 32.0869C86.9323 32.389 87.013 32.652 87.1172 32.876V33.001H85.1875C85.099 32.7979 85.0286 32.54 84.9766 32.2275C84.9297 31.9098 84.9062 31.6025 84.9062 31.3057ZM85.1797 27.8604L85.1953 29.0244H83.8438C83.4948 29.0244 83.1875 29.0583 82.9219 29.126C82.6562 29.1885 82.4349 29.2822 82.2578 29.4072C82.0807 29.5322 81.9479 29.6833 81.8594 29.8604C81.7708 30.0374 81.7266 30.238 81.7266 30.4619C81.7266 30.6859 81.7786 30.8916 81.8828 31.0791C81.987 31.2614 82.138 31.4046 82.3359 31.5088C82.5391 31.613 82.7839 31.665 83.0703 31.665C83.4557 31.665 83.7917 31.5869 84.0781 31.4307C84.3698 31.2692 84.599 31.0739 84.7656 30.8447C84.9323 30.6104 85.0208 30.389 85.0312 30.1807L85.6406 31.0166C85.5781 31.2301 85.4714 31.4593 85.3203 31.7041C85.1693 31.9489 84.9714 32.1833 84.7266 32.4072C84.487 32.626 84.1979 32.8057 83.8594 32.9463C83.526 33.0869 83.1406 33.1572 82.7031 33.1572C82.151 33.1572 81.6589 33.0479 81.2266 32.8291C80.7943 32.6051 80.4557 32.3057 80.2109 31.9307C79.9661 31.5505 79.8438 31.1208 79.8438 30.6416C79.8438 30.1937 79.9271 29.7979 80.0938 29.4541C80.2656 29.1051 80.5156 28.8135 80.8438 28.5791C81.1771 28.3447 81.5833 28.1676 82.0625 28.0479C82.5417 27.9229 83.0885 27.8604 83.7031 27.8604H85.1797ZM92.6406 24.5479V25.9229H87.875V24.5479H92.6406ZM89.25 22.4775H91.1328V30.665C91.1328 30.9255 91.1693 31.126 91.2422 31.2666C91.3203 31.402 91.4271 31.4932 91.5625 31.54C91.6979 31.5869 91.8568 31.6104 92.0391 31.6104C92.1693 31.6104 92.2943 31.6025 92.4141 31.5869C92.5339 31.5713 92.6302 31.5557 92.7031 31.54L92.7109 32.9775C92.5547 33.0244 92.3724 33.0661 92.1641 33.1025C91.9609 33.139 91.7266 33.1572 91.4609 33.1572C91.0286 33.1572 90.6458 33.0817 90.3125 32.9307C89.9792 32.7744 89.7188 32.5218 89.5312 32.1729C89.3438 31.8239 89.25 31.3604 89.25 30.7822V22.4775ZM96.1094 24.5479V33.001H94.2188V24.5479H96.1094ZM94.0938 22.3291C94.0938 22.0426 94.1875 21.8057 94.375 21.6182C94.5677 21.4255 94.8333 21.3291 95.1719 21.3291C95.5052 21.3291 95.7682 21.4255 95.9609 21.6182C96.1536 21.8057 96.25 22.0426 96.25 22.3291C96.25 22.6104 96.1536 22.8447 95.9609 23.0322C95.7682 23.2197 95.5052 23.3135 95.1719 23.3135C94.8333 23.3135 94.5677 23.2197 94.375 23.0322C94.1875 22.8447 94.0938 22.6104 94.0938 22.3291ZM97.8125 28.8682V28.6885C97.8125 28.0791 97.901 27.514 98.0781 26.9932C98.2552 26.4671 98.5104 26.0114 98.8438 25.626C99.1823 25.2354 99.5938 24.9333 100.078 24.7197C100.568 24.501 101.12 24.3916 101.734 24.3916C102.354 24.3916 102.906 24.501 103.391 24.7197C103.88 24.9333 104.294 25.2354 104.633 25.626C104.971 26.0114 105.229 26.4671 105.406 26.9932C105.583 27.514 105.672 28.0791 105.672 28.6885V28.8682C105.672 29.4775 105.583 30.0426 105.406 30.5635C105.229 31.0843 104.971 31.54 104.633 31.9307C104.294 32.3161 103.883 32.6182 103.398 32.8369C102.914 33.0505 102.365 33.1572 101.75 33.1572C101.13 33.1572 100.576 33.0505 100.086 32.8369C99.6016 32.6182 99.1901 32.3161 98.8516 31.9307C98.513 31.54 98.2552 31.0843 98.0781 30.5635C97.901 30.0426 97.8125 29.4775 97.8125 28.8682ZM99.6953 28.6885V28.8682C99.6953 29.2484 99.7344 29.6077 99.8125 29.9463C99.8906 30.2848 100.013 30.5817 100.18 30.8369C100.346 31.0921 100.56 31.2926 100.82 31.4385C101.081 31.5843 101.391 31.6572 101.75 31.6572C102.099 31.6572 102.401 31.5843 102.656 31.4385C102.917 31.2926 103.13 31.0921 103.297 30.8369C103.464 30.5817 103.586 30.2848 103.664 29.9463C103.747 29.6077 103.789 29.2484 103.789 28.8682V28.6885C103.789 28.3135 103.747 27.9593 103.664 27.626C103.586 27.2874 103.461 26.988 103.289 26.7275C103.122 26.4671 102.909 26.264 102.648 26.1182C102.393 25.9671 102.089 25.8916 101.734 25.8916C101.38 25.8916 101.073 25.9671 100.812 26.1182C100.557 26.264 100.346 26.4671 100.18 26.7275C100.013 26.988 99.8906 27.2874 99.8125 27.626C99.7344 27.9593 99.6953 28.3135 99.6953 28.6885ZM109.117 26.3525V33.001H107.234V24.5479H109.008L109.117 26.3525ZM108.781 28.4619L108.172 28.4541C108.177 27.8551 108.26 27.3057 108.422 26.8057C108.589 26.3057 108.818 25.876 109.109 25.5166C109.406 25.1572 109.76 24.8812 110.172 24.6885C110.583 24.4906 111.042 24.3916 111.547 24.3916C111.953 24.3916 112.32 24.4489 112.648 24.5635C112.982 24.6729 113.266 24.8525 113.5 25.1025C113.74 25.3525 113.922 25.6781 114.047 26.0791C114.172 26.4749 114.234 26.9619 114.234 27.54V33.001H112.344V27.5322C112.344 27.126 112.284 26.8057 112.164 26.5713C112.049 26.3317 111.88 26.1624 111.656 26.0635C111.438 25.9593 111.164 25.9072 110.836 25.9072C110.513 25.9072 110.224 25.9749 109.969 26.1104C109.714 26.2458 109.497 26.4307 109.32 26.665C109.148 26.8994 109.016 27.1702 108.922 27.4775C108.828 27.7848 108.781 28.113 108.781 28.4619Z" fill="#434861"/>
  <path d="M540 55.001H0V57.001H540V55.001Z" fill="#F3F4FA" mask="url(#path-2-inside-1_13525_8748)"/>
  <rect y="247.001" width="16" height="2" fill="url(#paint0_linear_13525_8748)"/>
  <rect x="16" y="247.001" width="524" height="2" fill="#D0D2E0"/>
  <rect x="96.5" y="200.501" width="7" height="39" rx="3.5" fill="#69D3A7" stroke="#69D3A7"/>
  <g clip-path="url(#clip0_13525_8748)">
    <circle cx="100" cy="248.001" r="3" fill="white" stroke="#D0D2E0" stroke-width="2" stroke-linecap="round" stroke-linejoin="round"/>
  </g>
  <rect x="122.5" y="203.501" width="7" height="36" rx="3.5" fill="#69D3A7" stroke="#69D3A7"/>
  <g clip-path="url(#clip1_13525_8748)">
    <circle cx="126" cy="248.001" r="3" fill="white" stroke="#D0D2E0" stroke-width="2" stroke-linecap="round" stroke-linejoin="round"/>
  </g>
  <rect x="148.5" y="197.501" width="7" height="42" rx="3.5" fill="#69D3A7" stroke="#69D3A7"/>
  <g clip-path="url(#clip2_13525_8748)">
    <circle cx="152" cy="248.001" r="3" fill="white" stroke="#D0D2E0" stroke-width="2" stroke-linecap="round" stroke-linejoin="round"/>
  </g>
  <rect x="174.5" y="200.501" width="7" height="39" rx="3.5" fill="#69D3A7" stroke="#69D3A7"/>
  <g clip-path="url(#clip3_13525_8748)">
    <circle cx="178" cy="248.001" r="3" fill="white" stroke="#D0D2E0" stroke-width="2" stroke-linecap="round" stroke-linejoin="round"/>
  </g>
  <rect x="200.5" y="197.501" width="7" height="42" rx="3.5" fill="#69D3A7" stroke="#69D3A7"/>
  <g clip-path="url(#clip4_13525_8748)">
    <circle cx="204" cy="248.001" r="3" fill="white" stroke="#D0D2E0" stroke-width="2" stroke-linecap="round" stroke-linejoin="round"/>
  </g>
  <rect x="227" y="247.001" width="15" height="2" fill="white"/>
  <path d="M228 256.001L228.6 255.201C231.999 250.668 237.334 248.001 243 248.001V248.001" stroke="#D0D2E0" stroke-width="2" stroke-linecap="round"/>
  <path d="M148.359 279.47V270.501H150.014V281.001H148.517L148.359 279.47ZM143.547 277.385V277.241C143.547 276.681 143.613 276.17 143.745 275.71C143.877 275.245 144.069 274.846 144.319 274.514C144.57 274.176 144.875 273.919 145.235 273.741C145.595 273.559 146.001 273.468 146.452 273.468C146.899 273.468 147.291 273.554 147.628 273.728C147.965 273.901 148.252 274.149 148.489 274.473C148.726 274.792 148.915 275.174 149.057 275.621C149.198 276.063 149.298 276.555 149.357 277.098V277.556C149.298 278.084 149.198 278.567 149.057 279.005C148.915 279.442 148.726 279.821 148.489 280.14C148.252 280.459 147.963 280.705 147.621 280.878C147.284 281.051 146.89 281.138 146.438 281.138C145.992 281.138 145.589 281.044 145.229 280.857C144.873 280.671 144.57 280.409 144.319 280.071C144.069 279.734 143.877 279.338 143.745 278.882C143.613 278.422 143.547 277.923 143.547 277.385ZM145.194 277.241V277.385C145.194 277.722 145.224 278.036 145.283 278.328C145.347 278.62 145.445 278.877 145.577 279.101C145.709 279.319 145.88 279.493 146.09 279.62C146.304 279.743 146.559 279.805 146.855 279.805C147.229 279.805 147.537 279.723 147.778 279.559C148.02 279.395 148.209 279.174 148.346 278.896C148.487 278.613 148.583 278.299 148.633 277.952V276.715C148.605 276.446 148.549 276.195 148.462 275.963C148.38 275.73 148.268 275.528 148.127 275.354C147.986 275.177 147.81 275.04 147.601 274.944C147.396 274.844 147.152 274.794 146.869 274.794C146.568 274.794 146.313 274.858 146.104 274.985C145.894 275.113 145.721 275.288 145.584 275.512C145.452 275.735 145.354 275.995 145.29 276.291C145.226 276.587 145.194 276.904 145.194 277.241ZM154.997 281.138C154.45 281.138 153.956 281.049 153.514 280.871C153.076 280.689 152.702 280.436 152.393 280.112C152.087 279.789 151.853 279.408 151.688 278.971C151.524 278.533 151.442 278.062 151.442 277.556V277.282C151.442 276.703 151.527 276.179 151.695 275.71C151.864 275.241 152.099 274.84 152.399 274.507C152.7 274.17 153.056 273.912 153.466 273.734C153.876 273.557 154.32 273.468 154.799 273.468C155.327 273.468 155.79 273.557 156.187 273.734C156.583 273.912 156.911 274.163 157.171 274.486C157.435 274.805 157.631 275.186 157.759 275.628C157.891 276.07 157.957 276.558 157.957 277.091V277.795H152.242V276.612H156.33V276.482C156.321 276.186 156.262 275.908 156.152 275.648C156.048 275.389 155.886 275.179 155.667 275.02C155.448 274.86 155.157 274.78 154.792 274.78C154.519 274.78 154.275 274.84 154.061 274.958C153.851 275.072 153.675 275.238 153.534 275.457C153.393 275.676 153.284 275.94 153.206 276.25C153.133 276.555 153.097 276.899 153.097 277.282V277.556C153.097 277.879 153.14 278.18 153.227 278.458C153.318 278.731 153.45 278.971 153.623 279.176C153.796 279.381 154.006 279.543 154.252 279.661C154.498 279.775 154.778 279.832 155.093 279.832C155.489 279.832 155.842 279.752 156.152 279.593C156.462 279.433 156.731 279.208 156.959 278.916L157.827 279.757C157.668 279.989 157.46 280.213 157.205 280.427C156.95 280.636 156.638 280.807 156.269 280.939C155.904 281.072 155.48 281.138 154.997 281.138ZM161.553 279.695L163.364 273.604H165.073L162.503 281.001H161.437L161.553 279.695ZM160.165 273.604L162.011 279.723L162.1 281.001H161.033L158.449 273.604H160.165ZM169.257 281.138C168.71 281.138 168.215 281.049 167.773 280.871C167.336 280.689 166.962 280.436 166.652 280.112C166.347 279.789 166.112 279.408 165.948 278.971C165.784 278.533 165.702 278.062 165.702 277.556V277.282C165.702 276.703 165.786 276.179 165.955 275.71C166.124 275.241 166.358 274.84 166.659 274.507C166.96 274.17 167.315 273.912 167.726 273.734C168.136 273.557 168.58 273.468 169.059 273.468C169.587 273.468 170.05 273.557 170.446 273.734C170.843 273.912 171.171 274.163 171.431 274.486C171.695 274.805 171.891 275.186 172.019 275.628C172.151 276.07 172.217 276.558 172.217 277.091V277.795H166.502V276.612H170.59V276.482C170.581 276.186 170.521 275.908 170.412 275.648C170.307 275.389 170.146 275.179 169.927 275.02C169.708 274.86 169.416 274.78 169.052 274.78C168.778 274.78 168.535 274.84 168.32 274.958C168.111 275.072 167.935 275.238 167.794 275.457C167.653 275.676 167.543 275.94 167.466 276.25C167.393 276.555 167.356 276.899 167.356 277.282V277.556C167.356 277.879 167.4 278.18 167.486 278.458C167.577 278.731 167.71 278.971 167.883 279.176C168.056 279.381 168.266 279.543 168.512 279.661C168.758 279.775 169.038 279.832 169.353 279.832C169.749 279.832 170.102 279.752 170.412 279.593C170.722 279.433 170.991 279.208 171.219 278.916L172.087 279.757C171.927 279.989 171.72 280.213 171.465 280.427C171.21 280.636 170.897 280.807 170.528 280.939C170.164 281.072 169.74 281.138 169.257 281.138ZM175.266 270.501V281.001H173.611V270.501H175.266ZM176.756 277.385V277.228C176.756 276.694 176.833 276.2 176.988 275.744C177.143 275.284 177.367 274.885 177.658 274.548C177.954 274.206 178.314 273.942 178.738 273.755C179.167 273.563 179.65 273.468 180.188 273.468C180.73 273.468 181.213 273.563 181.637 273.755C182.065 273.942 182.427 274.206 182.724 274.548C183.02 274.885 183.245 275.284 183.4 275.744C183.555 276.2 183.633 276.694 183.633 277.228V277.385C183.633 277.918 183.555 278.412 183.4 278.868C183.245 279.324 183.02 279.723 182.724 280.064C182.427 280.402 182.067 280.666 181.644 280.857C181.22 281.044 180.739 281.138 180.201 281.138C179.659 281.138 179.174 281.044 178.745 280.857C178.321 280.666 177.961 280.402 177.665 280.064C177.369 279.723 177.143 279.324 176.988 278.868C176.833 278.412 176.756 277.918 176.756 277.385ZM178.403 277.228V277.385C178.403 277.717 178.438 278.032 178.506 278.328C178.574 278.624 178.681 278.884 178.827 279.107C178.973 279.331 179.16 279.506 179.388 279.634C179.616 279.761 179.887 279.825 180.201 279.825C180.507 279.825 180.771 279.761 180.994 279.634C181.222 279.506 181.409 279.331 181.555 279.107C181.701 278.884 181.808 278.624 181.876 278.328C181.949 278.032 181.985 277.717 181.985 277.385V277.228C181.985 276.899 181.949 276.59 181.876 276.298C181.808 276.002 181.698 275.74 181.548 275.512C181.402 275.284 181.215 275.106 180.987 274.979C180.764 274.846 180.497 274.78 180.188 274.78C179.878 274.78 179.609 274.846 179.381 274.979C179.158 275.106 178.973 275.284 178.827 275.512C178.681 275.74 178.574 276.002 178.506 276.298C178.438 276.59 178.403 276.899 178.403 277.228ZM186.668 275.026V283.845H185.021V273.604H186.538L186.668 275.026ZM191.487 277.234V277.378C191.487 277.916 191.424 278.415 191.296 278.875C191.173 279.331 190.988 279.729 190.742 280.071C190.501 280.409 190.202 280.671 189.847 280.857C189.491 281.044 189.081 281.138 188.616 281.138C188.156 281.138 187.753 281.053 187.406 280.885C187.064 280.712 186.775 280.468 186.538 280.153C186.301 279.839 186.11 279.47 185.964 279.046C185.823 278.618 185.722 278.148 185.663 277.638V277.084C185.722 276.542 185.823 276.049 185.964 275.607C186.11 275.165 186.301 274.785 186.538 274.466C186.775 274.147 187.064 273.901 187.406 273.728C187.748 273.554 188.147 273.468 188.603 273.468C189.067 273.468 189.48 273.559 189.84 273.741C190.2 273.919 190.503 274.174 190.749 274.507C190.995 274.835 191.18 275.231 191.303 275.696C191.426 276.157 191.487 276.669 191.487 277.234ZM189.84 277.378V277.234C189.84 276.893 189.808 276.576 189.744 276.284C189.68 275.988 189.58 275.728 189.443 275.505C189.307 275.282 189.131 275.108 188.917 274.985C188.707 274.858 188.454 274.794 188.158 274.794C187.867 274.794 187.616 274.844 187.406 274.944C187.197 275.04 187.021 275.174 186.88 275.348C186.739 275.521 186.629 275.724 186.552 275.956C186.474 276.184 186.42 276.432 186.388 276.701V278.027C186.442 278.355 186.536 278.656 186.668 278.93C186.8 279.203 186.987 279.422 187.229 279.586C187.475 279.745 187.789 279.825 188.172 279.825C188.468 279.825 188.721 279.761 188.931 279.634C189.14 279.506 189.311 279.331 189.443 279.107C189.58 278.88 189.68 278.618 189.744 278.321C189.808 278.025 189.84 277.711 189.84 277.378Z" fill="#5A5F7A"/>
  <path d="M210 279.001L213 276.001M213 276.001L210 273.001M213 276.001L205 276.001" stroke="#BFC2D4" stroke-width="2" stroke-linecap="round" stroke-linejoin="round"/>
  <path d="M228.076 281.001H226.429V272.894C226.429 272.342 226.531 271.88 226.736 271.506C226.946 271.128 227.244 270.843 227.632 270.651C228.019 270.455 228.477 270.357 229.006 270.357C229.17 270.357 229.332 270.369 229.491 270.392C229.651 270.41 229.806 270.439 229.956 270.48L229.915 271.752C229.824 271.729 229.724 271.713 229.614 271.704C229.509 271.695 229.396 271.69 229.272 271.69C229.022 271.69 228.805 271.738 228.623 271.834C228.445 271.925 228.309 272.06 228.213 272.237C228.122 272.415 228.076 272.634 228.076 272.894V281.001ZM229.601 273.604V274.808H225.294V273.604H229.601ZM233.894 281.138C233.347 281.138 232.852 281.049 232.41 280.871C231.973 280.689 231.599 280.436 231.289 280.112C230.984 279.789 230.749 279.408 230.585 278.971C230.421 278.533 230.339 278.062 230.339 277.556V277.282C230.339 276.703 230.423 276.179 230.592 275.71C230.76 275.241 230.995 274.84 231.296 274.507C231.597 274.17 231.952 273.912 232.362 273.734C232.772 273.557 233.217 273.468 233.695 273.468C234.224 273.468 234.687 273.557 235.083 273.734C235.479 273.912 235.808 274.163 236.067 274.486C236.332 274.805 236.528 275.186 236.655 275.628C236.787 276.07 236.854 276.558 236.854 277.091V277.795H231.139V276.612H235.227V276.482C235.217 276.186 235.158 275.908 235.049 275.648C234.944 275.389 234.782 275.179 234.563 275.02C234.345 274.86 234.053 274.78 233.688 274.78C233.415 274.78 233.171 274.84 232.957 274.958C232.747 275.072 232.572 275.238 232.431 275.457C232.289 275.676 232.18 275.94 232.103 276.25C232.03 276.555 231.993 276.899 231.993 277.282V277.556C231.993 277.879 232.036 278.18 232.123 278.458C232.214 278.731 232.346 278.971 232.52 279.176C232.693 279.381 232.902 279.543 233.148 279.661C233.395 279.775 233.675 279.832 233.989 279.832C234.386 279.832 234.739 279.752 235.049 279.593C235.359 279.433 235.628 279.208 235.855 278.916L236.724 279.757C236.564 279.989 236.357 280.213 236.102 280.427C235.846 280.636 235.534 280.807 235.165 280.939C234.8 281.072 234.377 281.138 233.894 281.138ZM242.309 279.518V275.99C242.309 275.726 242.261 275.498 242.165 275.307C242.069 275.115 241.924 274.967 241.728 274.862C241.536 274.757 241.295 274.705 241.003 274.705C240.734 274.705 240.502 274.751 240.306 274.842C240.11 274.933 239.957 275.056 239.848 275.211C239.738 275.366 239.684 275.541 239.684 275.737H238.043C238.043 275.446 238.114 275.163 238.255 274.89C238.396 274.616 238.601 274.372 238.87 274.158C239.139 273.944 239.46 273.775 239.834 273.652C240.208 273.529 240.627 273.468 241.092 273.468C241.648 273.468 242.14 273.561 242.568 273.748C243.001 273.935 243.341 274.217 243.587 274.596C243.838 274.969 243.963 275.439 243.963 276.004V279.292C243.963 279.629 243.986 279.932 244.031 280.201C244.081 280.465 244.152 280.696 244.243 280.892V281.001H242.555C242.477 280.823 242.416 280.598 242.37 280.324C242.329 280.046 242.309 279.777 242.309 279.518ZM242.548 276.503L242.562 277.521H241.379C241.074 277.521 240.805 277.551 240.572 277.61C240.34 277.665 240.146 277.747 239.991 277.856C239.836 277.966 239.72 278.098 239.643 278.253C239.565 278.408 239.526 278.583 239.526 278.779C239.526 278.975 239.572 279.155 239.663 279.319C239.754 279.479 239.886 279.604 240.06 279.695C240.237 279.786 240.451 279.832 240.702 279.832C241.039 279.832 241.333 279.764 241.584 279.627C241.839 279.486 242.04 279.315 242.186 279.114C242.331 278.909 242.409 278.715 242.418 278.533L242.951 279.265C242.896 279.451 242.803 279.652 242.671 279.866C242.539 280.08 242.366 280.285 242.151 280.481C241.942 280.673 241.689 280.83 241.393 280.953C241.101 281.076 240.764 281.138 240.381 281.138C239.898 281.138 239.467 281.042 239.089 280.851C238.711 280.655 238.414 280.393 238.2 280.064C237.986 279.732 237.879 279.356 237.879 278.937C237.879 278.545 237.952 278.198 238.098 277.897C238.248 277.592 238.467 277.337 238.754 277.132C239.046 276.927 239.401 276.772 239.82 276.667C240.24 276.558 240.718 276.503 241.256 276.503H242.548ZM249.076 273.604V274.808H244.906V273.604H249.076ZM246.109 271.793H247.757V278.957C247.757 279.185 247.789 279.36 247.853 279.483C247.921 279.602 248.014 279.682 248.133 279.723C248.251 279.764 248.39 279.784 248.55 279.784C248.664 279.784 248.773 279.777 248.878 279.764C248.983 279.75 249.067 279.736 249.131 279.723L249.138 280.98C249.001 281.021 248.841 281.058 248.659 281.09C248.481 281.122 248.276 281.138 248.044 281.138C247.666 281.138 247.331 281.072 247.039 280.939C246.747 280.803 246.52 280.582 246.355 280.276C246.191 279.971 246.109 279.565 246.109 279.06V271.793ZM254.798 279.258V273.604H256.452V281.001H254.894L254.798 279.258ZM255.03 277.72L255.584 277.706C255.584 278.203 255.529 278.661 255.42 279.08C255.311 279.495 255.142 279.857 254.914 280.167C254.686 280.472 254.395 280.712 254.039 280.885C253.684 281.053 253.257 281.138 252.761 281.138C252.401 281.138 252.07 281.085 251.77 280.98C251.469 280.876 251.209 280.714 250.99 280.495C250.776 280.276 250.61 279.992 250.491 279.641C250.373 279.29 250.313 278.87 250.313 278.383V273.604H251.961V278.396C251.961 278.665 251.993 278.891 252.057 279.073C252.12 279.251 252.207 279.395 252.316 279.504C252.426 279.613 252.553 279.691 252.699 279.736C252.845 279.782 253 279.805 253.164 279.805C253.633 279.805 254.003 279.714 254.271 279.531C254.545 279.344 254.739 279.094 254.853 278.779C254.971 278.465 255.03 278.112 255.03 277.72ZM259.795 275.013V281.001H258.147V273.604H259.72L259.795 275.013ZM262.058 273.557L262.044 275.088C261.944 275.07 261.834 275.056 261.716 275.047C261.602 275.038 261.488 275.033 261.374 275.033C261.091 275.033 260.843 275.074 260.629 275.156C260.415 275.234 260.235 275.348 260.089 275.498C259.948 275.644 259.838 275.822 259.761 276.031C259.683 276.241 259.638 276.476 259.624 276.735L259.248 276.763C259.248 276.298 259.294 275.867 259.385 275.471C259.476 275.074 259.613 274.726 259.795 274.425C259.982 274.124 260.214 273.889 260.492 273.721C260.775 273.552 261.101 273.468 261.47 273.468C261.57 273.468 261.677 273.477 261.791 273.495C261.91 273.513 261.998 273.534 262.058 273.557ZM266.214 281.138C265.667 281.138 265.173 281.049 264.73 280.871C264.293 280.689 263.919 280.436 263.609 280.112C263.304 279.789 263.069 279.408 262.905 278.971C262.741 278.533 262.659 278.062 262.659 277.556V277.282C262.659 276.703 262.743 276.179 262.912 275.71C263.081 275.241 263.315 274.84 263.616 274.507C263.917 274.17 264.272 273.912 264.683 273.734C265.093 273.557 265.537 273.468 266.016 273.468C266.544 273.468 267.007 273.557 267.403 273.734C267.8 273.912 268.128 274.163 268.388 274.486C268.652 274.805 268.848 275.186 268.976 275.628C269.108 276.07 269.174 276.558 269.174 277.091V277.795H263.459V276.612H267.547V276.482C267.538 276.186 267.479 275.908 267.369 275.648C267.264 275.389 267.103 275.179 266.884 275.02C266.665 274.86 266.373 274.78 266.009 274.78C265.735 274.78 265.492 274.84 265.277 274.958C265.068 275.072 264.892 275.238 264.751 275.457C264.61 275.676 264.5 275.94 264.423 276.25C264.35 276.555 264.313 276.899 264.313 277.282V277.556C264.313 277.879 264.357 278.18 264.443 278.458C264.535 278.731 264.667 278.971 264.84 279.176C265.013 279.381 265.223 279.543 265.469 279.661C265.715 279.775 265.995 279.832 266.31 279.832C266.706 279.832 267.059 279.752 267.369 279.593C267.679 279.433 267.948 279.208 268.176 278.916L269.044 279.757C268.884 279.989 268.677 280.213 268.422 280.427C268.167 280.636 267.854 280.807 267.485 280.939C267.121 281.072 266.697 281.138 266.214 281.138ZM273.774 276.093V277.405H270.158V276.093H273.774ZM275.224 270.501H276.871V279.422L276.714 281.001H275.224V270.501ZM281.697 277.234V277.378C281.697 277.925 281.636 278.428 281.513 278.889C281.394 279.344 281.212 279.741 280.966 280.078C280.724 280.415 280.424 280.677 280.063 280.864C279.708 281.047 279.296 281.138 278.826 281.138C278.366 281.138 277.965 281.051 277.623 280.878C277.281 280.705 276.994 280.459 276.762 280.14C276.534 279.821 276.349 279.44 276.208 278.998C276.067 278.556 275.966 278.068 275.907 277.535V277.077C275.966 276.539 276.067 276.052 276.208 275.614C276.349 275.172 276.534 274.792 276.762 274.473C276.994 274.149 277.279 273.901 277.616 273.728C277.958 273.554 278.357 273.468 278.812 273.468C279.286 273.468 279.703 273.559 280.063 273.741C280.428 273.924 280.731 274.183 280.973 274.521C281.214 274.853 281.394 275.25 281.513 275.71C281.636 276.17 281.697 276.678 281.697 277.234ZM280.05 277.378V277.234C280.05 276.902 280.022 276.59 279.968 276.298C279.913 276.002 279.822 275.742 279.694 275.519C279.571 275.295 279.403 275.12 279.188 274.992C278.979 274.86 278.717 274.794 278.402 274.794C278.111 274.794 277.86 274.844 277.65 274.944C277.441 275.045 277.265 275.181 277.124 275.354C276.983 275.528 276.871 275.728 276.789 275.956C276.712 276.184 276.659 276.43 276.632 276.694V277.932C276.673 278.273 276.759 278.588 276.892 278.875C277.028 279.158 277.22 279.385 277.466 279.559C277.712 279.727 278.029 279.812 278.416 279.812C278.721 279.812 278.979 279.75 279.188 279.627C279.398 279.504 279.564 279.333 279.688 279.114C279.815 278.891 279.906 278.631 279.961 278.335C280.02 278.039 280.05 277.72 280.05 277.378ZM284.746 275.013V281.001H283.099V273.604H284.671L284.746 275.013ZM287.009 273.557L286.995 275.088C286.895 275.07 286.785 275.056 286.667 275.047C286.553 275.038 286.439 275.033 286.325 275.033C286.043 275.033 285.794 275.074 285.58 275.156C285.366 275.234 285.186 275.348 285.04 275.498C284.899 275.644 284.789 275.822 284.712 276.031C284.634 276.241 284.589 276.476 284.575 276.735L284.199 276.763C284.199 276.298 284.245 275.867 284.336 275.471C284.427 275.074 284.564 274.726 284.746 274.425C284.933 274.124 285.165 273.889 285.443 273.721C285.726 273.552 286.052 273.468 286.421 273.468C286.521 273.468 286.628 273.477 286.742 273.495C286.861 273.513 286.95 273.534 287.009 273.557ZM291.965 279.518V275.99C291.965 275.726 291.917 275.498 291.821 275.307C291.726 275.115 291.58 274.967 291.384 274.862C291.192 274.757 290.951 274.705 290.659 274.705C290.39 274.705 290.158 274.751 289.962 274.842C289.766 274.933 289.613 275.056 289.504 275.211C289.395 275.366 289.34 275.541 289.34 275.737H287.699C287.699 275.446 287.77 275.163 287.911 274.89C288.052 274.616 288.257 274.372 288.526 274.158C288.795 273.944 289.117 273.775 289.49 273.652C289.864 273.529 290.283 273.468 290.748 273.468C291.304 273.468 291.796 273.561 292.225 273.748C292.658 273.935 292.997 274.217 293.243 274.596C293.494 274.969 293.619 275.439 293.619 276.004V279.292C293.619 279.629 293.642 279.932 293.688 280.201C293.738 280.465 293.808 280.696 293.899 280.892V281.001H292.211C292.133 280.823 292.072 280.598 292.026 280.324C291.985 280.046 291.965 279.777 291.965 279.518ZM292.204 276.503L292.218 277.521H291.035C290.73 277.521 290.461 277.551 290.229 277.61C289.996 277.665 289.802 277.747 289.647 277.856C289.493 277.966 289.376 278.098 289.299 278.253C289.221 278.408 289.183 278.583 289.183 278.779C289.183 278.975 289.228 279.155 289.319 279.319C289.41 279.479 289.543 279.604 289.716 279.695C289.894 279.786 290.108 279.832 290.358 279.832C290.696 279.832 290.99 279.764 291.24 279.627C291.495 279.486 291.696 279.315 291.842 279.114C291.988 278.909 292.065 278.715 292.074 278.533L292.607 279.265C292.553 279.451 292.459 279.652 292.327 279.866C292.195 280.08 292.022 280.285 291.808 280.481C291.598 280.673 291.345 280.83 291.049 280.953C290.757 281.076 290.42 281.138 290.037 281.138C289.554 281.138 289.123 281.042 288.745 280.851C288.367 280.655 288.071 280.393 287.856 280.064C287.642 279.732 287.535 279.356 287.535 278.937C287.535 278.545 287.608 278.198 287.754 277.897C287.904 277.592 288.123 277.337 288.41 277.132C288.702 276.927 289.057 276.772 289.477 276.667C289.896 276.558 290.374 276.503 290.912 276.503H292.204ZM296.976 275.184V281.001H295.328V273.604H296.88L296.976 275.184ZM296.682 277.029L296.148 277.022C296.153 276.498 296.226 276.018 296.367 275.58C296.513 275.143 296.714 274.767 296.969 274.452C297.229 274.138 297.538 273.896 297.898 273.728C298.258 273.554 298.66 273.468 299.102 273.468C299.457 273.468 299.778 273.518 300.065 273.618C300.357 273.714 300.605 273.871 300.811 274.09C301.02 274.309 301.18 274.593 301.289 274.944C301.398 275.291 301.453 275.717 301.453 276.223V281.001H299.799V276.216C299.799 275.86 299.746 275.58 299.642 275.375C299.541 275.165 299.393 275.017 299.197 274.931C299.006 274.84 298.767 274.794 298.479 274.794C298.197 274.794 297.944 274.853 297.721 274.972C297.497 275.09 297.308 275.252 297.153 275.457C297.003 275.662 296.887 275.899 296.805 276.168C296.723 276.437 296.682 276.724 296.682 277.029ZM306.156 279.825C306.425 279.825 306.667 279.773 306.881 279.668C307.1 279.559 307.275 279.408 307.407 279.217C307.544 279.025 307.619 278.804 307.633 278.554H309.185C309.175 279.032 309.034 279.467 308.761 279.859C308.487 280.251 308.125 280.563 307.674 280.796C307.223 281.024 306.724 281.138 306.177 281.138C305.612 281.138 305.119 281.042 304.7 280.851C304.281 280.655 303.932 280.386 303.654 280.044C303.376 279.702 303.167 279.308 303.025 278.861C302.889 278.415 302.82 277.936 302.82 277.426V277.187C302.82 276.676 302.889 276.198 303.025 275.751C303.167 275.3 303.376 274.903 303.654 274.562C303.932 274.22 304.281 273.953 304.7 273.762C305.119 273.566 305.609 273.468 306.17 273.468C306.762 273.468 307.282 273.586 307.729 273.823C308.175 274.056 308.526 274.382 308.781 274.801C309.041 275.215 309.175 275.699 309.185 276.25H307.633C307.619 275.977 307.551 275.73 307.428 275.512C307.309 275.288 307.141 275.111 306.922 274.979C306.708 274.846 306.45 274.78 306.149 274.78C305.817 274.78 305.541 274.849 305.322 274.985C305.104 275.118 304.933 275.3 304.81 275.532C304.687 275.76 304.598 276.018 304.543 276.305C304.493 276.587 304.468 276.881 304.468 277.187V277.426C304.468 277.731 304.493 278.027 304.543 278.314C304.593 278.602 304.68 278.859 304.803 279.087C304.93 279.31 305.104 279.49 305.322 279.627C305.541 279.759 305.819 279.825 306.156 279.825ZM312.076 270.501V281.001H310.436V270.501H312.076ZM311.789 277.029L311.256 277.022C311.26 276.512 311.331 276.04 311.468 275.607C311.609 275.174 311.805 274.799 312.056 274.479C312.311 274.156 312.616 273.908 312.972 273.734C313.327 273.557 313.721 273.468 314.154 273.468C314.519 273.468 314.847 273.518 315.139 273.618C315.435 273.718 315.69 273.88 315.904 274.104C316.118 274.322 316.28 274.609 316.39 274.965C316.504 275.316 316.561 275.744 316.561 276.25V281.001H314.906V276.236C314.906 275.881 314.854 275.598 314.749 275.389C314.649 275.179 314.501 275.029 314.305 274.938C314.109 274.842 313.869 274.794 313.587 274.794C313.291 274.794 313.029 274.853 312.801 274.972C312.577 275.09 312.391 275.252 312.24 275.457C312.09 275.662 311.976 275.899 311.898 276.168C311.826 276.437 311.789 276.724 311.789 277.029Z" fill="#5A5F7A"/>
  <rect x="249" y="110.001" width="6" height="129" rx="3" fill="#00814D" stroke="#00814D" stroke-width="2"/>
  <g clip-path="url(#clip5_13525_8748)">
    <circle cx="252" cy="248.001" r="3.5" fill="#00814D" stroke="#00814D" stroke-linecap="round" stroke-linejoin="round"/>
  </g>
  <path d="M240.992 93.4629V95.001H234.184V93.6885L237.403 90.2363C237.727 89.8763 237.982 89.5596 238.169 89.2861C238.356 89.0081 238.49 88.7598 238.572 88.541C238.659 88.3177 238.702 88.1058 238.702 87.9053C238.702 87.6045 238.652 87.347 238.552 87.1328C238.451 86.9141 238.303 86.7454 238.107 86.627C237.916 86.5085 237.679 86.4492 237.396 86.4492C237.096 86.4492 236.836 86.5221 236.617 86.668C236.403 86.8138 236.239 87.0166 236.125 87.2764C236.016 87.5361 235.961 87.8301 235.961 88.1582H233.985C233.985 87.5658 234.127 87.0234 234.409 86.5312C234.692 86.0345 235.09 85.6403 235.605 85.3486C236.12 85.0524 236.731 84.9043 237.438 84.9043C238.135 84.9043 238.723 85.0182 239.201 85.2461C239.684 85.4694 240.049 85.793 240.295 86.2168C240.546 86.6361 240.671 87.1374 240.671 87.7207C240.671 88.0488 240.618 88.3701 240.514 88.6846C240.409 88.9945 240.258 89.3044 240.062 89.6143C239.871 89.9196 239.639 90.2295 239.365 90.5439C239.092 90.8584 238.789 91.1842 238.456 91.5215L236.727 93.4629H240.992ZM248.983 85.0479V86.1074L245.135 95.001H243.057L246.905 86.5859H241.949V85.0479H248.983ZM250.419 94.0508C250.419 93.7591 250.519 93.5153 250.72 93.3193C250.925 93.1234 251.196 93.0254 251.533 93.0254C251.87 93.0254 252.139 93.1234 252.34 93.3193C252.545 93.5153 252.647 93.7591 252.647 94.0508C252.647 94.3424 252.545 94.5863 252.34 94.7822C252.139 94.9782 251.87 95.0762 251.533 95.0762C251.196 95.0762 250.925 94.9782 250.72 94.7822C250.519 94.5863 250.419 94.3424 250.419 94.0508ZM250.419 88.4111C250.419 88.1195 250.519 87.8757 250.72 87.6797C250.925 87.4837 251.196 87.3857 251.533 87.3857C251.87 87.3857 252.139 87.4837 252.34 87.6797C252.545 87.8757 252.647 88.1195 252.647 88.4111C252.647 88.7028 252.545 88.9466 252.34 89.1426C252.139 89.3385 251.87 89.4365 251.533 89.4365C251.196 89.4365 250.925 89.3385 250.72 89.1426C250.519 88.9466 250.419 88.7028 250.419 88.4111ZM259.012 85.0273V95.001H257.043V87.2969L254.678 88.0488V86.4971L258.8 85.0273H259.012ZM268.958 92.2734C268.958 92.8978 268.812 93.4242 268.521 93.8525C268.229 94.2764 267.828 94.5977 267.317 94.8164C266.812 95.0306 266.237 95.1377 265.595 95.1377C264.952 95.1377 264.376 95.0306 263.865 94.8164C263.355 94.5977 262.951 94.2764 262.655 93.8525C262.359 93.4242 262.211 92.8978 262.211 92.2734C262.211 91.8542 262.295 91.4759 262.464 91.1387C262.632 90.7969 262.867 90.5052 263.168 90.2637C263.473 90.0176 263.831 89.8307 264.241 89.7031C264.651 89.571 265.098 89.5049 265.581 89.5049C266.228 89.5049 266.807 89.6188 267.317 89.8467C267.828 90.0745 268.229 90.3958 268.521 90.8105C268.812 91.2253 268.958 91.7129 268.958 92.2734ZM266.976 92.1436C266.976 91.8382 266.916 91.5762 266.798 91.3574C266.684 91.1341 266.522 90.9632 266.312 90.8447C266.103 90.7262 265.859 90.667 265.581 90.667C265.303 90.667 265.059 90.7262 264.85 90.8447C264.64 90.9632 264.476 91.1341 264.357 91.3574C264.243 91.5762 264.187 91.8382 264.187 92.1436C264.187 92.4443 264.243 92.7041 264.357 92.9229C264.476 93.1416 264.64 93.3102 264.85 93.4287C265.064 93.5426 265.312 93.5996 265.595 93.5996C265.877 93.5996 266.121 93.5426 266.326 93.4287C266.536 93.3102 266.695 93.1416 266.805 92.9229C266.919 92.7041 266.976 92.4443 266.976 92.1436ZM268.746 87.6865C268.746 88.1924 268.612 88.6413 268.343 89.0332C268.074 89.4206 267.7 89.7236 267.222 89.9424C266.748 90.1611 266.205 90.2705 265.595 90.2705C264.979 90.2705 264.433 90.1611 263.954 89.9424C263.476 89.7236 263.102 89.4206 262.833 89.0332C262.564 88.6413 262.43 88.1924 262.43 87.6865C262.43 87.085 262.564 86.5791 262.833 86.1689C263.106 85.7542 263.48 85.4398 263.954 85.2256C264.433 85.0114 264.975 84.9043 265.581 84.9043C266.196 84.9043 266.741 85.0114 267.215 85.2256C267.693 85.4398 268.067 85.7542 268.336 86.1689C268.609 86.5791 268.746 87.085 268.746 87.6865ZM266.777 87.7754C266.777 87.5065 266.729 87.2741 266.634 87.0781C266.538 86.8776 266.401 86.7227 266.224 86.6133C266.05 86.5039 265.836 86.4492 265.581 86.4492C265.335 86.4492 265.123 86.5016 264.945 86.6064C264.772 86.7113 264.638 86.8639 264.542 87.0645C264.451 87.2604 264.405 87.4974 264.405 87.7754C264.405 88.0443 264.451 88.2812 264.542 88.4863C264.638 88.6868 264.774 88.8441 264.952 88.958C265.13 89.0719 265.344 89.1289 265.595 89.1289C265.845 89.1289 266.057 89.0719 266.23 88.958C266.408 88.8441 266.543 88.6868 266.634 88.4863C266.729 88.2812 266.777 88.0443 266.777 87.7754Z" fill="#2E3247"/>
  <rect x="226" y="78.501" width="52" height="23" rx="3.5" stroke="#E1E3ED"/>
  <rect x="274.5" y="116.501" width="7" height="123" rx="3.5" fill="#69D3A7" stroke="#69D3A7"/>
  <g clip-path="url(#clip6_13525_8748)">
    <circle cx="278" cy="248.001" r="3" fill="white" stroke="#D0D2E0" stroke-width="2" stroke-linecap="round" stroke-linejoin="round"/>
  </g>
  <rect x="300" y="152.001" width="8" height="88" rx="4" fill="#F59AA9"/>
  <g clip-path="url(#clip7_13525_8748)">
    <circle cx="304" cy="248.001" r="3" fill="white" stroke="#D0D2E0" stroke-width="2" stroke-linecap="round" stroke-linejoin="round"/>
  </g>
  <rect x="326" y="145.001" width="8" height="95" rx="4" fill="#F59AA9"/>
  <g clip-path="url(#clip8_13525_8748)">
    <circle cx="330" cy="248.001" r="3" fill="white" stroke="#D0D2E0" stroke-width="2" stroke-linecap="round" stroke-linejoin="round"/>
  </g>
  <rect x="352.5" y="126.501" width="7" height="113" rx="3.5" fill="#69D3A7" stroke="#69D3A7"/>
  <g clip-path="url(#clip9_13525_8748)">
    <circle cx="356" cy="248.001" r="3" fill="white" stroke="#D0D2E0" stroke-width="2" stroke-linecap="round" stroke-linejoin="round"/>
  </g>
  <rect x="378.5" y="152.501" width="7" height="87" rx="3.5" fill="#69D3A7" stroke="#69D3A7"/>
  <g clip-path="url(#clip10_13525_8748)">
    <circle cx="382" cy="248.001" r="3" fill="white" stroke="#D0D2E0" stroke-width="2" stroke-linecap="round" stroke-linejoin="round"/>
  </g>
  <rect x="404.5" y="140.501" width="7" height="99" rx="3.5" fill="#69D3A7" stroke="#69D3A7"/>
  <g clip-path="url(#clip11_13525_8748)">
    <circle cx="408" cy="248.001" r="3" fill="white" stroke="#D0D2E0" stroke-width="2" stroke-linecap="round" stroke-linejoin="round"/>
  </g>
  <rect x="430.5" y="126.501" width="7" height="113" rx="3.5" fill="#69D3A7" stroke="#69D3A7"/>
  <g clip-path="url(#clip12_13525_8748)">
    <circle cx="434" cy="248.001" r="3" fill="white" stroke="#D0D2E0" stroke-width="2" stroke-linecap="round" stroke-linejoin="round"/>
  </g>
  <rect x="456.5" y="121.501" width="7" height="118" rx="3.5" fill="#69D3A7" stroke="#69D3A7"/>
  <g clip-path="url(#clip13_13525_8748)">
    <circle cx="460" cy="248.001" r="3" fill="white" stroke="#D0D2E0" stroke-width="2" stroke-linecap="round" stroke-linejoin="round"/>
  </g>
  <rect x="482" y="166.001" width="8" height="74" rx="4" fill="#F59AA9"/>
  <g clip-path="url(#clip14_13525_8748)">
    <circle cx="486" cy="248.001" r="3" fill="white" stroke="#D0D2E0" stroke-width="2" stroke-linecap="round" stroke-linejoin="round"/>
  </g>
  <rect x="508" y="145.001" width="8" height="95" rx="4" fill="#9AA2FC"/>
  <g clip-path="url(#clip15_13525_8748)">
    <rect width="8" height="8" transform="translate(508 244.001)" fill="white"/>
    <g clip-path="url(#clip16_13525_8748)">
      <circle cx="512" cy="248.001" r="3" stroke="#E1E3ED" stroke-width="2" stroke-linecap="round" stroke-linejoin="round"/>
      <path d="M515 248.001C515 246.344 513.657 245.001 512 245.001" stroke="#9AA2FC" stroke-width="2" stroke-linecap="round" stroke-linejoin="round"/>
    </g>
  </g>
  <rect y="91.501" width="12" height="1" fill="#D0D2E0"/>
  <path d="M25.6729 91.4023H26.5752C27.0173 91.4023 27.3818 91.3294 27.6689 91.1836C27.9606 91.0332 28.1771 90.8304 28.3184 90.5752C28.4642 90.3154 28.5371 90.0238 28.5371 89.7002C28.5371 89.3174 28.4733 88.9961 28.3457 88.7363C28.2181 88.4766 28.0267 88.2806 27.7715 88.1484C27.5163 88.0163 27.1927 87.9502 26.8008 87.9502C26.4453 87.9502 26.1309 88.0208 25.8574 88.1621C25.5885 88.2988 25.3766 88.4948 25.2217 88.75C25.0713 89.0052 24.9961 89.306 24.9961 89.6523H23.7314C23.7314 89.1465 23.859 88.6862 24.1143 88.2715C24.3695 87.8568 24.7272 87.5264 25.1875 87.2803C25.6523 87.0342 26.1901 86.9111 26.8008 86.9111C27.4023 86.9111 27.9287 87.0182 28.3799 87.2324C28.8311 87.4421 29.182 87.7565 29.4326 88.1758C29.6833 88.5905 29.8086 89.1077 29.8086 89.7275C29.8086 89.9782 29.7493 90.2471 29.6309 90.5342C29.5169 90.8167 29.3369 91.0811 29.0908 91.3271C28.8493 91.5732 28.5348 91.776 28.1475 91.9355C27.7601 92.0905 27.2952 92.168 26.7529 92.168H25.6729V91.4023ZM25.6729 92.4414V91.6826H26.7529C27.3864 91.6826 27.9105 91.7578 28.3252 91.9082C28.7399 92.0586 29.0658 92.2591 29.3027 92.5098C29.5443 92.7604 29.7129 93.0361 29.8086 93.3369C29.9089 93.6331 29.959 93.9294 29.959 94.2256C29.959 94.6904 29.8792 95.1029 29.7197 95.4629C29.5648 95.8229 29.3438 96.1283 29.0566 96.3789C28.7741 96.6296 28.4414 96.8187 28.0586 96.9463C27.6758 97.0739 27.2588 97.1377 26.8076 97.1377C26.3747 97.1377 25.9668 97.0762 25.584 96.9531C25.2057 96.8301 24.8708 96.6523 24.5791 96.4199C24.2874 96.1829 24.0596 95.8936 23.8955 95.5518C23.7314 95.2054 23.6494 94.8112 23.6494 94.3691H24.9141C24.9141 94.7155 24.9893 95.0186 25.1396 95.2783C25.2946 95.5381 25.5133 95.7409 25.7959 95.8867C26.083 96.028 26.4202 96.0986 26.8076 96.0986C27.195 96.0986 27.5277 96.0326 27.8057 95.9004C28.0882 95.7637 28.3047 95.5586 28.4551 95.2852C28.61 95.0117 28.6875 94.6676 28.6875 94.2529C28.6875 93.8382 28.6009 93.4987 28.4277 93.2344C28.2546 92.9655 28.0085 92.7673 27.6895 92.6396C27.375 92.5075 27.0036 92.4414 26.5752 92.4414H25.6729ZM37.9502 91.2314V92.749C37.9502 93.5648 37.8773 94.2529 37.7314 94.8135C37.5856 95.374 37.376 95.8252 37.1025 96.167C36.8291 96.5088 36.4987 96.7572 36.1113 96.9121C35.7285 97.0625 35.2956 97.1377 34.8125 97.1377C34.4297 97.1377 34.0765 97.0898 33.7529 96.9941C33.4294 96.8984 33.1377 96.7458 32.8779 96.5361C32.6227 96.3219 32.404 96.0439 32.2217 95.7021C32.0394 95.3604 31.9004 94.9456 31.8047 94.458C31.709 93.9704 31.6611 93.4007 31.6611 92.749V91.2314C31.6611 90.4157 31.734 89.7321 31.8799 89.1807C32.0303 88.6292 32.2422 88.1872 32.5156 87.8545C32.7891 87.5173 33.1172 87.2757 33.5 87.1299C33.8874 86.984 34.3203 86.9111 34.7988 86.9111C35.1862 86.9111 35.5417 86.959 35.8652 87.0547C36.1934 87.1458 36.485 87.2939 36.7402 87.499C36.9954 87.6995 37.2119 87.9684 37.3896 88.3057C37.5719 88.6383 37.7109 89.0462 37.8066 89.5293C37.9023 90.0124 37.9502 90.5798 37.9502 91.2314ZM36.6787 92.9541V91.0195C36.6787 90.5729 36.6514 90.181 36.5967 89.8438C36.5465 89.502 36.4714 89.2103 36.3711 88.9688C36.2708 88.7272 36.1432 88.5312 35.9883 88.3809C35.8379 88.2305 35.6624 88.1211 35.4619 88.0527C35.266 87.9798 35.0449 87.9434 34.7988 87.9434C34.498 87.9434 34.2314 88.0003 33.999 88.1143C33.7666 88.2236 33.5706 88.3991 33.4111 88.6406C33.2562 88.8822 33.1377 89.1989 33.0557 89.5908C32.9736 89.9827 32.9326 90.459 32.9326 91.0195V92.9541C32.9326 93.4007 32.9577 93.7949 33.0078 94.1367C33.0625 94.4785 33.1423 94.7747 33.2471 95.0254C33.3519 95.2715 33.4795 95.4743 33.6299 95.6338C33.7803 95.7933 33.9535 95.9118 34.1494 95.9893C34.3499 96.0622 34.571 96.0986 34.8125 96.0986C35.1224 96.0986 35.3936 96.0394 35.626 95.9209C35.8584 95.8024 36.0521 95.6178 36.207 95.3672C36.3665 95.112 36.485 94.7861 36.5625 94.3896C36.64 93.9886 36.6787 93.5101 36.6787 92.9541ZM39.6592 96.3311C39.6592 96.1169 39.7253 95.9368 39.8574 95.791C39.9941 95.6406 40.1901 95.5654 40.4453 95.5654C40.7005 95.5654 40.8942 95.6406 41.0264 95.791C41.1631 95.9368 41.2314 96.1169 41.2314 96.3311C41.2314 96.5407 41.1631 96.7184 41.0264 96.8643C40.8942 97.0101 40.7005 97.083 40.4453 97.083C40.1901 97.083 39.9941 97.0101 39.8574 96.8643C39.7253 96.7184 39.6592 96.5407 39.6592 96.3311ZM39.666 90.2949C39.666 90.0807 39.7321 89.9007 39.8643 89.7549C40.001 89.6045 40.1969 89.5293 40.4521 89.5293C40.7074 89.5293 40.901 89.6045 41.0332 89.7549C41.1699 89.9007 41.2383 90.0807 41.2383 90.2949C41.2383 90.5046 41.1699 90.6823 41.0332 90.8281C40.901 90.974 40.7074 91.0469 40.4521 91.0469C40.1969 91.0469 40.001 90.974 39.8643 90.8281C39.7321 90.6823 39.666 90.5046 39.666 90.2949ZM49.2158 91.2314V92.749C49.2158 93.5648 49.1429 94.2529 48.9971 94.8135C48.8512 95.374 48.6416 95.8252 48.3682 96.167C48.0947 96.5088 47.7643 96.7572 47.377 96.9121C46.9941 97.0625 46.5612 97.1377 46.0781 97.1377C45.6953 97.1377 45.3421 97.0898 45.0186 96.9941C44.695 96.8984 44.4033 96.7458 44.1436 96.5361C43.8883 96.3219 43.6696 96.0439 43.4873 95.7021C43.305 95.3604 43.166 94.9456 43.0703 94.458C42.9746 93.9704 42.9268 93.4007 42.9268 92.749V91.2314C42.9268 90.4157 42.9997 89.7321 43.1455 89.1807C43.2959 88.6292 43.5078 88.1872 43.7812 87.8545C44.0547 87.5173 44.3828 87.2757 44.7656 87.1299C45.153 86.984 45.5859 86.9111 46.0645 86.9111C46.4518 86.9111 46.8073 86.959 47.1309 87.0547C47.459 87.1458 47.7507 87.2939 48.0059 87.499C48.2611 87.6995 48.4775 87.9684 48.6553 88.3057C48.8376 88.6383 48.9766 89.0462 49.0723 89.5293C49.168 90.0124 49.2158 90.5798 49.2158 91.2314ZM47.9443 92.9541V91.0195C47.9443 90.5729 47.917 90.181 47.8623 89.8438C47.8122 89.502 47.737 89.2103 47.6367 88.9688C47.5365 88.7272 47.4089 88.5312 47.2539 88.3809C47.1035 88.2305 46.9281 88.1211 46.7275 88.0527C46.5316 87.9798 46.3105 87.9434 46.0645 87.9434C45.7637 87.9434 45.4971 88.0003 45.2646 88.1143C45.0322 88.2236 44.8363 88.3991 44.6768 88.6406C44.5218 88.8822 44.4033 89.1989 44.3213 89.5908C44.2393 89.9827 44.1982 90.459 44.1982 91.0195V92.9541C44.1982 93.4007 44.2233 93.7949 44.2734 94.1367C44.3281 94.4785 44.4079 94.7747 44.5127 95.0254C44.6175 95.2715 44.7451 95.4743 44.8955 95.6338C45.0459 95.7933 45.2191 95.9118 45.415 95.9893C45.6156 96.0622 45.8366 96.0986 46.0781 96.0986C46.388 96.0986 46.6592 96.0394 46.8916 95.9209C47.124 95.8024 47.3177 95.6178 47.4727 95.3672C47.6322 95.112 47.7507 94.7861 47.8281 94.3896C47.9056 93.9886 47.9443 93.5101 47.9443 92.9541ZM57.0908 91.2314V92.749C57.0908 93.5648 57.0179 94.2529 56.8721 94.8135C56.7262 95.374 56.5166 95.8252 56.2432 96.167C55.9697 96.5088 55.6393 96.7572 55.252 96.9121C54.8691 97.0625 54.4362 97.1377 53.9531 97.1377C53.5703 97.1377 53.2171 97.0898 52.8936 96.9941C52.57 96.8984 52.2783 96.7458 52.0186 96.5361C51.7633 96.3219 51.5446 96.0439 51.3623 95.7021C51.18 95.3604 51.041 94.9456 50.9453 94.458C50.8496 93.9704 50.8018 93.4007 50.8018 92.749V91.2314C50.8018 90.4157 50.8747 89.7321 51.0205 89.1807C51.1709 88.6292 51.3828 88.1872 51.6562 87.8545C51.9297 87.5173 52.2578 87.2757 52.6406 87.1299C53.028 86.984 53.4609 86.9111 53.9395 86.9111C54.3268 86.9111 54.6823 86.959 55.0059 87.0547C55.334 87.1458 55.6257 87.2939 55.8809 87.499C56.1361 87.6995 56.3525 87.9684 56.5303 88.3057C56.7126 88.6383 56.8516 89.0462 56.9473 89.5293C57.043 90.0124 57.0908 90.5798 57.0908 91.2314ZM55.8193 92.9541V91.0195C55.8193 90.5729 55.792 90.181 55.7373 89.8438C55.6872 89.502 55.612 89.2103 55.5117 88.9688C55.4115 88.7272 55.2839 88.5312 55.1289 88.3809C54.9785 88.2305 54.8031 88.1211 54.6025 88.0527C54.4066 87.9798 54.1855 87.9434 53.9395 87.9434C53.6387 87.9434 53.3721 88.0003 53.1396 88.1143C52.9072 88.2236 52.7113 88.3991 52.5518 88.6406C52.3968 88.8822 52.2783 89.1989 52.1963 89.5908C52.1143 89.9827 52.0732 90.459 52.0732 91.0195V92.9541C52.0732 93.4007 52.0983 93.7949 52.1484 94.1367C52.2031 94.4785 52.2829 94.7747 52.3877 95.0254C52.4925 95.2715 52.6201 95.4743 52.7705 95.6338C52.9209 95.7933 53.0941 95.9118 53.29 95.9893C53.4906 96.0622 53.7116 96.0986 53.9531 96.0986C54.263 96.0986 54.5342 96.0394 54.7666 95.9209C54.999 95.8024 55.1927 95.6178 55.3477 95.3672C55.5072 95.112 55.6257 94.7861 55.7031 94.3896C55.7806 93.9886 55.8193 93.5101 55.8193 92.9541Z" fill="#5A5F7A"/>
  <rect y="143.501" width="12" height="1" fill="#D0D2E0"/>
  <path d="M30.3486 147.962V149.001H23.834V148.092L27.0947 144.462C27.4958 144.015 27.8057 143.637 28.0244 143.327C28.2477 143.013 28.4027 142.732 28.4893 142.486C28.5804 142.236 28.626 141.98 28.626 141.721C28.626 141.393 28.5576 141.096 28.4209 140.832C28.2887 140.563 28.0928 140.349 27.833 140.189C27.5732 140.03 27.2588 139.95 26.8896 139.95C26.4476 139.95 26.0785 140.037 25.7822 140.21C25.4906 140.379 25.2718 140.616 25.126 140.921C24.9801 141.226 24.9072 141.577 24.9072 141.974H23.6426C23.6426 141.413 23.7656 140.9 24.0117 140.436C24.2578 139.971 24.6224 139.602 25.1055 139.328C25.5885 139.05 26.1833 138.911 26.8896 138.911C27.5186 138.911 28.0563 139.023 28.5029 139.246C28.9495 139.465 29.2913 139.775 29.5283 140.176C29.7699 140.572 29.8906 141.037 29.8906 141.57C29.8906 141.862 29.8405 142.158 29.7402 142.459C29.6445 142.755 29.5101 143.051 29.3369 143.348C29.1683 143.644 28.9701 143.936 28.7422 144.223C28.5189 144.51 28.2796 144.792 28.0244 145.07L25.3584 147.962H30.3486ZM37.9502 143.231V144.749C37.9502 145.565 37.8773 146.253 37.7314 146.813C37.5856 147.374 37.376 147.825 37.1025 148.167C36.8291 148.509 36.4987 148.757 36.1113 148.912C35.7285 149.062 35.2956 149.138 34.8125 149.138C34.4297 149.138 34.0765 149.09 33.7529 148.994C33.4294 148.898 33.1377 148.746 32.8779 148.536C32.6227 148.322 32.404 148.044 32.2217 147.702C32.0394 147.36 31.9004 146.946 31.8047 146.458C31.709 145.97 31.6611 145.401 31.6611 144.749V143.231C31.6611 142.416 31.734 141.732 31.8799 141.181C32.0303 140.629 32.2422 140.187 32.5156 139.854C32.7891 139.517 33.1172 139.276 33.5 139.13C33.8874 138.984 34.3203 138.911 34.7988 138.911C35.1862 138.911 35.5417 138.959 35.8652 139.055C36.1934 139.146 36.485 139.294 36.7402 139.499C36.9954 139.7 37.2119 139.968 37.3896 140.306C37.5719 140.638 37.7109 141.046 37.8066 141.529C37.9023 142.012 37.9502 142.58 37.9502 143.231ZM36.6787 144.954V143.02C36.6787 142.573 36.6514 142.181 36.5967 141.844C36.5465 141.502 36.4714 141.21 36.3711 140.969C36.2708 140.727 36.1432 140.531 35.9883 140.381C35.8379 140.23 35.6624 140.121 35.4619 140.053C35.266 139.98 35.0449 139.943 34.7988 139.943C34.498 139.943 34.2314 140 33.999 140.114C33.7666 140.224 33.5706 140.399 33.4111 140.641C33.2562 140.882 33.1377 141.199 33.0557 141.591C32.9736 141.983 32.9326 142.459 32.9326 143.02V144.954C32.9326 145.401 32.9577 145.795 33.0078 146.137C33.0625 146.479 33.1423 146.775 33.2471 147.025C33.3519 147.271 33.4795 147.474 33.6299 147.634C33.7803 147.793 33.9535 147.912 34.1494 147.989C34.3499 148.062 34.571 148.099 34.8125 148.099C35.1224 148.099 35.3936 148.039 35.626 147.921C35.8584 147.802 36.0521 147.618 36.207 147.367C36.3665 147.112 36.485 146.786 36.5625 146.39C36.64 145.989 36.6787 145.51 36.6787 144.954ZM39.6592 148.331C39.6592 148.117 39.7253 147.937 39.8574 147.791C39.9941 147.641 40.1901 147.565 40.4453 147.565C40.7005 147.565 40.8942 147.641 41.0264 147.791C41.1631 147.937 41.2314 148.117 41.2314 148.331C41.2314 148.541 41.1631 148.718 41.0264 148.864C40.8942 149.01 40.7005 149.083 40.4453 149.083C40.1901 149.083 39.9941 149.01 39.8574 148.864C39.7253 148.718 39.6592 148.541 39.6592 148.331ZM39.666 142.295C39.666 142.081 39.7321 141.901 39.8643 141.755C40.001 141.604 40.1969 141.529 40.4521 141.529C40.7074 141.529 40.901 141.604 41.0332 141.755C41.1699 141.901 41.2383 142.081 41.2383 142.295C41.2383 142.505 41.1699 142.682 41.0332 142.828C40.901 142.974 40.7074 143.047 40.4521 143.047C40.1969 143.047 40.001 142.974 39.8643 142.828C39.7321 142.682 39.666 142.505 39.666 142.295ZM49.2158 143.231V144.749C49.2158 145.565 49.1429 146.253 48.9971 146.813C48.8512 147.374 48.6416 147.825 48.3682 148.167C48.0947 148.509 47.7643 148.757 47.377 148.912C46.9941 149.062 46.5612 149.138 46.0781 149.138C45.6953 149.138 45.3421 149.09 45.0186 148.994C44.695 148.898 44.4033 148.746 44.1436 148.536C43.8883 148.322 43.6696 148.044 43.4873 147.702C43.305 147.36 43.166 146.946 43.0703 146.458C42.9746 145.97 42.9268 145.401 42.9268 144.749V143.231C42.9268 142.416 42.9997 141.732 43.1455 141.181C43.2959 140.629 43.5078 140.187 43.7812 139.854C44.0547 139.517 44.3828 139.276 44.7656 139.13C45.153 138.984 45.5859 138.911 46.0645 138.911C46.4518 138.911 46.8073 138.959 47.1309 139.055C47.459 139.146 47.7507 139.294 48.0059 139.499C48.2611 139.7 48.4775 139.968 48.6553 140.306C48.8376 140.638 48.9766 141.046 49.0723 141.529C49.168 142.012 49.2158 142.58 49.2158 143.231ZM47.9443 144.954V143.02C47.9443 142.573 47.917 142.181 47.8623 141.844C47.8122 141.502 47.737 141.21 47.6367 140.969C47.5365 140.727 47.4089 140.531 47.2539 140.381C47.1035 140.23 46.9281 140.121 46.7275 140.053C46.5316 139.98 46.3105 139.943 46.0645 139.943C45.7637 139.943 45.4971 140 45.2646 140.114C45.0322 140.224 44.8363 140.399 44.6768 140.641C44.5218 140.882 44.4033 141.199 44.3213 141.591C44.2393 141.983 44.1982 142.459 44.1982 143.02V144.954C44.1982 145.401 44.2233 145.795 44.2734 146.137C44.3281 146.479 44.4079 146.775 44.5127 147.025C44.6175 147.271 44.7451 147.474 44.8955 147.634C45.0459 147.793 45.2191 147.912 45.415 147.989C45.6156 148.062 45.8366 148.099 46.0781 148.099C46.388 148.099 46.6592 148.039 46.8916 147.921C47.124 147.802 47.3177 147.618 47.4727 147.367C47.6322 147.112 47.7507 146.786 47.8281 146.39C47.9056 145.989 47.9443 145.51 47.9443 144.954ZM57.0908 143.231V144.749C57.0908 145.565 57.0179 146.253 56.8721 146.813C56.7262 147.374 56.5166 147.825 56.2432 148.167C55.9697 148.509 55.6393 148.757 55.252 148.912C54.8691 149.062 54.4362 149.138 53.9531 149.138C53.5703 149.138 53.2171 149.09 52.8936 148.994C52.57 148.898 52.2783 148.746 52.0186 148.536C51.7633 148.322 51.5446 148.044 51.3623 147.702C51.18 147.36 51.041 146.946 50.9453 146.458C50.8496 145.97 50.8018 145.401 50.8018 144.749V143.231C50.8018 142.416 50.8747 141.732 51.0205 141.181C51.1709 140.629 51.3828 140.187 51.6562 139.854C51.9297 139.517 52.2578 139.276 52.6406 139.13C53.028 138.984 53.4609 138.911 53.9395 138.911C54.3268 138.911 54.6823 138.959 55.0059 139.055C55.334 139.146 55.6257 139.294 55.8809 139.499C56.1361 139.7 56.3525 139.968 56.5303 140.306C56.7126 140.638 56.8516 141.046 56.9473 141.529C57.043 142.012 57.0908 142.58 57.0908 143.231ZM55.8193 144.954V143.02C55.8193 142.573 55.792 142.181 55.7373 141.844C55.6872 141.502 55.612 141.21 55.5117 140.969C55.4115 140.727 55.2839 140.531 55.1289 140.381C54.9785 140.23 54.8031 140.121 54.6025 140.053C54.4066 139.98 54.1855 139.943 53.9395 139.943C53.6387 139.943 53.3721 140 53.1396 140.114C52.9072 140.224 52.7113 140.399 52.5518 140.641C52.3968 140.882 52.2783 141.199 52.1963 141.591C52.1143 141.983 52.0732 142.459 52.0732 143.02V144.954C52.0732 145.401 52.0983 145.795 52.1484 146.137C52.2031 146.479 52.2829 146.775 52.3877 147.025C52.4925 147.271 52.6201 147.474 52.7705 147.634C52.9209 147.793 53.0941 147.912 53.29 147.989C53.4906 148.062 53.7116 148.099 53.9531 148.099C54.263 148.099 54.5342 148.039 54.7666 147.921C54.999 147.802 55.1927 147.618 55.3477 147.367C55.5072 147.112 55.6257 146.786 55.7031 146.39C55.7806 145.989 55.8193 145.51 55.8193 144.954Z" fill="#5A5F7A"/>
  <rect y="195.501" width="12" height="1" fill="#D0D2E0"/>
  <path d="M27.9834 190.993V201.001H26.7188V192.572L24.1689 193.502V192.36L27.7852 190.993H27.9834ZM37.9502 195.231V196.749C37.9502 197.565 37.8773 198.253 37.7314 198.813C37.5856 199.374 37.376 199.825 37.1025 200.167C36.8291 200.509 36.4987 200.757 36.1113 200.912C35.7285 201.062 35.2956 201.138 34.8125 201.138C34.4297 201.138 34.0765 201.09 33.7529 200.994C33.4294 200.898 33.1377 200.746 32.8779 200.536C32.6227 200.322 32.404 200.044 32.2217 199.702C32.0394 199.36 31.9004 198.946 31.8047 198.458C31.709 197.97 31.6611 197.401 31.6611 196.749V195.231C31.6611 194.416 31.734 193.732 31.8799 193.181C32.0303 192.629 32.2422 192.187 32.5156 191.854C32.7891 191.517 33.1172 191.276 33.5 191.13C33.8874 190.984 34.3203 190.911 34.7988 190.911C35.1862 190.911 35.5417 190.959 35.8652 191.055C36.1934 191.146 36.485 191.294 36.7402 191.499C36.9954 191.7 37.2119 191.968 37.3896 192.306C37.5719 192.638 37.7109 193.046 37.8066 193.529C37.9023 194.012 37.9502 194.58 37.9502 195.231ZM36.6787 196.954V195.02C36.6787 194.573 36.6514 194.181 36.5967 193.844C36.5465 193.502 36.4714 193.21 36.3711 192.969C36.2708 192.727 36.1432 192.531 35.9883 192.381C35.8379 192.23 35.6624 192.121 35.4619 192.053C35.266 191.98 35.0449 191.943 34.7988 191.943C34.498 191.943 34.2314 192 33.999 192.114C33.7666 192.224 33.5706 192.399 33.4111 192.641C33.2562 192.882 33.1377 193.199 33.0557 193.591C32.9736 193.983 32.9326 194.459 32.9326 195.02V196.954C32.9326 197.401 32.9577 197.795 33.0078 198.137C33.0625 198.479 33.1423 198.775 33.2471 199.025C33.3519 199.271 33.4795 199.474 33.6299 199.634C33.7803 199.793 33.9535 199.912 34.1494 199.989C34.3499 200.062 34.571 200.099 34.8125 200.099C35.1224 200.099 35.3936 200.039 35.626 199.921C35.8584 199.802 36.0521 199.618 36.207 199.367C36.3665 199.112 36.485 198.786 36.5625 198.39C36.64 197.989 36.6787 197.51 36.6787 196.954ZM39.6592 200.331C39.6592 200.117 39.7253 199.937 39.8574 199.791C39.9941 199.641 40.1901 199.565 40.4453 199.565C40.7005 199.565 40.8942 199.641 41.0264 199.791C41.1631 199.937 41.2314 200.117 41.2314 200.331C41.2314 200.541 41.1631 200.718 41.0264 200.864C40.8942 201.01 40.7005 201.083 40.4453 201.083C40.1901 201.083 39.9941 201.01 39.8574 200.864C39.7253 200.718 39.6592 200.541 39.6592 200.331ZM39.666 194.295C39.666 194.081 39.7321 193.901 39.8643 193.755C40.001 193.604 40.1969 193.529 40.4521 193.529C40.7074 193.529 40.901 193.604 41.0332 193.755C41.1699 193.901 41.2383 194.081 41.2383 194.295C41.2383 194.505 41.1699 194.682 41.0332 194.828C40.901 194.974 40.7074 195.047 40.4521 195.047C40.1969 195.047 40.001 194.974 39.8643 194.828C39.7321 194.682 39.666 194.505 39.666 194.295ZM49.2158 195.231V196.749C49.2158 197.565 49.1429 198.253 48.9971 198.813C48.8512 199.374 48.6416 199.825 48.3682 200.167C48.0947 200.509 47.7643 200.757 47.377 200.912C46.9941 201.062 46.5612 201.138 46.0781 201.138C45.6953 201.138 45.3421 201.09 45.0186 200.994C44.695 200.898 44.4033 200.746 44.1436 200.536C43.8883 200.322 43.6696 200.044 43.4873 199.702C43.305 199.36 43.166 198.946 43.0703 198.458C42.9746 197.97 42.9268 197.401 42.9268 196.749V195.231C42.9268 194.416 42.9997 193.732 43.1455 193.181C43.2959 192.629 43.5078 192.187 43.7812 191.854C44.0547 191.517 44.3828 191.276 44.7656 191.13C45.153 190.984 45.5859 190.911 46.0645 190.911C46.4518 190.911 46.8073 190.959 47.1309 191.055C47.459 191.146 47.7507 191.294 48.0059 191.499C48.2611 191.7 48.4775 191.968 48.6553 192.306C48.8376 192.638 48.9766 193.046 49.0723 193.529C49.168 194.012 49.2158 194.58 49.2158 195.231ZM47.9443 196.954V195.02C47.9443 194.573 47.917 194.181 47.8623 193.844C47.8122 193.502 47.737 193.21 47.6367 192.969C47.5365 192.727 47.4089 192.531 47.2539 192.381C47.1035 192.23 46.9281 192.121 46.7275 192.053C46.5316 191.98 46.3105 191.943 46.0645 191.943C45.7637 191.943 45.4971 192 45.2646 192.114C45.0322 192.224 44.8363 192.399 44.6768 192.641C44.5218 192.882 44.4033 193.199 44.3213 193.591C44.2393 193.983 44.1982 194.459 44.1982 195.02V196.954C44.1982 197.401 44.2233 197.795 44.2734 198.137C44.3281 198.479 44.4079 198.775 44.5127 199.025C44.6175 199.271 44.7451 199.474 44.8955 199.634C45.0459 199.793 45.2191 199.912 45.415 199.989C45.6156 200.062 45.8366 200.099 46.0781 200.099C46.388 200.099 46.6592 200.039 46.8916 199.921C47.124 199.802 47.3177 199.618 47.4727 199.367C47.6322 199.112 47.7507 198.786 47.8281 198.39C47.9056 197.989 47.9443 197.51 47.9443 196.954ZM57.0908 195.231V196.749C57.0908 197.565 57.0179 198.253 56.8721 198.813C56.7262 199.374 56.5166 199.825 56.2432 200.167C55.9697 200.509 55.6393 200.757 55.252 200.912C54.8691 201.062 54.4362 201.138 53.9531 201.138C53.5703 201.138 53.2171 201.09 52.8936 200.994C52.57 200.898 52.2783 200.746 52.0186 200.536C51.7633 200.322 51.5446 200.044 51.3623 199.702C51.18 199.36 51.041 198.946 50.9453 198.458C50.8496 197.97 50.8018 197.401 50.8018 196.749V195.231C50.8018 194.416 50.8747 193.732 51.0205 193.181C51.1709 192.629 51.3828 192.187 51.6562 191.854C51.9297 191.517 52.2578 191.276 52.6406 191.13C53.028 190.984 53.4609 190.911 53.9395 190.911C54.3268 190.911 54.6823 190.959 55.0059 191.055C55.334 191.146 55.6257 191.294 55.8809 191.499C56.1361 191.7 56.3525 191.968 56.5303 192.306C56.7126 192.638 56.8516 193.046 56.9473 193.529C57.043 194.012 57.0908 194.58 57.0908 195.231ZM55.8193 196.954V195.02C55.8193 194.573 55.792 194.181 55.7373 193.844C55.6872 193.502 55.612 193.21 55.5117 192.969C55.4115 192.727 55.2839 192.531 55.1289 192.381C54.9785 192.23 54.8031 192.121 54.6025 192.053C54.4066 191.98 54.1855 191.943 53.9395 191.943C53.6387 191.943 53.3721 192 53.1396 192.114C52.9072 192.224 52.7113 192.399 52.5518 192.641C52.3968 192.882 52.2783 193.199 52.1963 193.591C52.1143 193.983 52.0732 194.459 52.0732 195.02V196.954C52.0732 197.401 52.0983 197.795 52.1484 198.137C52.2031 198.479 52.2829 198.775 52.3877 199.025C52.4925 199.271 52.6201 199.474 52.7705 199.634C52.9209 199.793 53.0941 199.912 53.29 199.989C53.4906 200.062 53.7116 200.099 53.9531 200.099C54.263 200.099 54.5342 200.039 54.7666 199.921C54.999 199.802 55.1927 199.618 55.3477 199.367C55.5072 199.112 55.6257 198.786 55.7031 198.39C55.7806 197.989 55.8193 197.51 55.8193 196.954Z" fill="#5A5F7A"/>
  <defs>
    <linearGradient id="paint0_linear_13525_8748" x1="15" y1="247.001" x2="0" y2="247.001" gradientUnits="userSpaceOnUse">
      <stop stop-color="#D0D2E0"/>
      <stop offset="1" stop-color="#D0D2E0" stop-opacity="0"/>
    </linearGradient>
    <clipPath id="clip0_13525_8748">
      <rect width="8" height="8" fill="white" transform="translate(96 244.001)"/>
    </clipPath>
    <clipPath id="clip1_13525_8748">
      <rect width="8" height="8" fill="white" transform="translate(122 244.001)"/>
    </clipPath>
    <clipPath id="clip2_13525_8748">
      <rect width="8" height="8" fill="white" transform="translate(148 244.001)"/>
    </clipPath>
    <clipPath id="clip3_13525_8748">
      <rect width="8" height="8" fill="white" transform="translate(174 244.001)"/>
    </clipPath>
    <clipPath id="clip4_13525_8748">
      <rect width="8" height="8" fill="white" transform="translate(200 244.001)"/>
    </clipPath>
    <clipPath id="clip5_13525_8748">
      <rect width="8" height="8" fill="white" transform="translate(248 244.001)"/>
    </clipPath>
    <clipPath id="clip6_13525_8748">
      <rect width="8" height="8" fill="white" transform="translate(274 244.001)"/>
    </clipPath>
    <clipPath id="clip7_13525_8748">
      <rect width="8" height="8" fill="white" transform="translate(300 244.001)"/>
    </clipPath>
    <clipPath id="clip8_13525_8748">
      <rect width="8" height="8" fill="white" transform="translate(326 244.001)"/>
    </clipPath>
    <clipPath id="clip9_13525_8748">
      <rect width="8" height="8" fill="white" transform="translate(352 244.001)"/>
    </clipPath>
    <clipPath id="clip10_13525_8748">
      <rect width="8" height="8" fill="white" transform="translate(378 244.001)"/>
    </clipPath>
    <clipPath id="clip11_13525_8748">
      <rect width="8" height="8" fill="white" transform="translate(404 244.001)"/>
    </clipPath>
    <clipPath id="clip12_13525_8748">
      <rect width="8" height="8" fill="white" transform="translate(430 244.001)"/>
    </clipPath>
    <clipPath id="clip13_13525_8748">
      <rect width="8" height="8" fill="white" transform="translate(456 244.001)"/>
    </clipPath>
    <clipPath id="clip14_13525_8748">
      <rect width="8" height="8" fill="white" transform="translate(482 244.001)"/>
    </clipPath>
    <clipPath id="clip15_13525_8748">
      <rect width="8" height="8" fill="white" transform="translate(508 244.001)"/>
    </clipPath>
    <clipPath id="clip16_13525_8748">
      <rect width="8" height="8" fill="white" transform="translate(508 244.001)"/>
    </clipPath>
  </defs>
</svg>
