<svg width="16" height="16" viewBox="0 0 16 16" fill="none"
  xmlns="http://www.w3.org/2000/svg">
  <g clip-path="url(#clip0_4115_5682)">
    <path d="M4.16101 6.92571C4.16101 6.92571 1.67158 8.67795 1.57422 9.34546L1.76102 9.30706C1.76102 9.30706 4.74213 7.33107 7.10524 7.09107L7.15884 6.79107L4.16109 6.92651L4.16101 6.92571ZM8.069 6.67531L6.10901 8.06611L6.21501 8.15115C6.29501 8.08667 9.6982 7.04731 9.6982 7.04731L10.4158 6.59747C9.93436 6.65747 8.07004 6.67531 8.07004 6.67531H8.069ZM9.77316 8.35755C11.1656 8.35755 13.2527 6.99387 13.2527 6.99387L12.578 6.86547C12.5447 6.89883 11.49 6.82851 11.49 6.82851L10.9894 6.68947L9.7934 8.05235L9.69604 8.28883C9.78204 8.25387 9.77324 8.35763 9.77324 8.35763L9.77316 8.35755ZM14.3168 12.7065L13.8867 12.8276L11.8992 12.7847L10.656 11.8179L9.15332 12.1939L7.41524 12.0435L6.44197 13.107L4.61573 13.6526L3.70389 13.3698L3.65797 13.3303L4.06725 14.3325C4.06725 14.3325 4.99429 15.3264 5.51205 15.4433C6.02981 15.5602 6.96524 15.4349 7.66684 15.3262C8.36844 15.2176 8.92796 14.9662 9.1534 14.558C9.37884 14.1498 9.41228 14.0318 9.41228 14.0318C9.41228 14.0318 10.0805 14.9755 10.6568 15.0842C11.233 15.1928 12.9451 14.608 12.9451 14.608C12.9451 14.608 13.9891 14.324 14.1728 13.965C14.3565 13.6059 14.8411 12.429 14.8411 12.429L14.3168 12.7074V12.7065ZM3.89509 13.523L3.86629 13.5097L3.70525 13.3708L3.89517 13.523H3.89509Z" fill="#CB3349"/>
    <path d="M16.0051 5.60676L15.9891 5.44596L15.9719 5.33204C15.8285 5.21124 15.6655 5.10404 15.4958 5.00644C15.3118 4.899 15.1195 4.80276 14.923 4.7134L14.3262 4.45684L14.0223 4.33868L13.7155 4.22476L14.3567 4.36396L14.7679 4.48212C13.799 1.94973 11.4824 0.300537 8.953 0.300537C6.42365 0.300537 4.10686 1.94973 3.13814 4.48212C3.27438 4.43956 3.4115 4.39972 3.5491 4.36396C3.76134 4.3094 3.97494 4.26044 4.19054 4.22476L3.88334 4.33868L3.57862 4.45676C3.37702 4.53804 3.17734 4.62132 2.98182 4.71332C2.78582 4.80268 2.59326 4.89892 2.40934 5.00636C2.23974 5.10396 2.07678 5.21132 1.93278 5.33196C1.92678 5.36852 1.92078 5.40796 1.91678 5.44588C1.91038 5.49924 1.90438 5.55292 1.90078 5.60668C1.89134 5.71468 1.8875 5.82292 1.88662 5.93148C1.88446 6.14851 1.8991 6.36555 1.92662 6.57947C1.95622 6.79483 1.99574 7.00875 2.05422 7.21547C2.08302 7.31907 2.11566 7.42123 2.15342 7.52011C2.17238 7.56947 2.19302 7.61811 2.21454 7.66539C2.22516 7.68862 2.23617 7.71166 2.24758 7.73451L2.26134 7.76075L2.3099 7.78475L2.40622 7.83075L2.59566 7.91875C2.59909 7.91587 2.60237 7.91283 2.6055 7.90963L2.4267 7.22859C2.46462 7.21819 2.80414 7.13059 3.38926 7.01923C3.34126 7.01027 3.29438 7.00003 3.2475 6.98883C3.1143 6.95571 2.9827 6.91523 2.8555 6.86371C2.7915 6.83707 2.73006 6.80795 2.6707 6.77451C2.61134 6.74043 2.55294 6.70187 2.50774 6.65067C3.15062 6.86043 4.47894 6.76539 5.65973 6.64347C6.73973 6.53227 7.82212 6.46003 8.91012 6.45787C9.99828 6.46003 11.0811 6.53227 12.1605 6.64347C13.3418 6.76547 14.6701 6.86051 15.3129 6.65067C15.2678 6.70187 15.2095 6.74051 15.1501 6.77451C15.0903 6.80773 15.0287 6.83751 14.9655 6.86371C14.8381 6.91531 14.7067 6.95571 14.5735 6.98883C14.5537 6.99363 14.5338 6.99787 14.514 7.00211C15.1556 7.12115 15.5292 7.21787 15.5691 7.22851L15.398 7.87651L15.502 7.83059L15.5982 7.78459L15.6467 7.76059L15.66 7.73435C15.6719 7.71163 15.683 7.68858 15.6935 7.66523C15.7151 7.61803 15.7358 7.56923 15.7547 7.51995C15.7925 7.42107 15.8252 7.31891 15.8539 7.21531C15.9123 7.00851 15.9519 6.79451 15.9815 6.57931C16.0091 6.36451 16.0235 6.14747 16.0215 5.93131C16.0207 5.82284 16.0167 5.71532 16.0071 5.60652L16.0051 5.60676Z" fill="#F4EDAE"/>
    <path d="M9.68157 14.6128L9.42669 14.6428L9.26189 14.6509L9.24253 14.6513L9.39613 14.3041L9.68157 14.6127V14.6128ZM9.86661 14.8014C10.1309 15.0632 10.4584 15.2131 10.8189 15.2398C10.2133 15.4857 9.64277 15.5806 9.20317 15.6102C8.76493 15.6396 8.32061 15.5878 7.88525 15.4686C7.91692 15.4627 7.94875 15.4576 7.98069 15.4534C8.01645 15.4491 8.79717 15.3473 9.14909 14.824H9.18213H9.26853C9.32693 14.824 9.38013 14.8192 9.43605 14.817C9.56708 14.8056 9.69737 14.7869 9.82629 14.7608L9.86661 14.8008V14.8014Z" fill="#E6CCAD"/>
    <path d="M10.6157 6.96558L10.5319 7.07302C10.3772 7.26854 10.1628 7.51861 9.90836 7.76317L8.99604 7.74901C8.47925 7.74901 7.98365 7.76261 7.51309 7.78557C8.17709 7.50957 8.97676 7.24014 9.84108 7.07822C10.0937 7.03038 10.3531 6.99214 10.615 6.96558H10.6157ZM6.72421 7.26334C6.48693 7.43006 6.21885 7.64285 5.95893 7.90093C5.29334 7.96757 4.7127 8.04829 4.23358 8.12493C4.97014 7.78637 5.81061 7.47477 6.72421 7.26254V7.26334ZM14.857 8.63757L14.5863 10.532L13.2893 11.4404L9.90668 11.0558L9.39748 9.37901C9.38548 9.33901 9.35108 9.30821 9.30884 9.30141C9.18348 9.28117 9.0726 9.27085 8.9802 9.27085C8.8878 9.27085 8.777 9.28125 8.651 9.30141C8.60924 9.30829 8.57501 9.33821 8.56253 9.37901L8.06653 11.015L4.70278 11.7636L3.36902 10.8296L3.10638 8.70381L3.28046 8.60781L3.55846 8.55149L3.80598 10.5573C3.80794 10.5728 3.81312 10.5877 3.8212 10.601C3.82928 10.6143 3.84006 10.6258 3.85286 10.6347L4.76982 11.2772C4.7887 11.29 4.8111 11.2969 4.83342 11.2969C4.84142 11.2969 4.84942 11.2961 4.8579 11.2943L7.62349 10.6789C7.63304 10.6768 7.64228 10.6734 7.65101 10.669C7.66403 10.6621 7.67556 10.6528 7.68492 10.6414C7.69429 10.63 7.70131 10.6169 7.70557 10.6028L8.20357 8.96301C8.33717 8.92861 8.67932 8.84861 8.98004 8.84861C9.28004 8.84861 9.62244 8.92861 9.75604 8.96301L10.254 10.6028C10.2668 10.6454 10.304 10.6758 10.3481 10.681L13.1137 10.9952C13.1405 10.9981 13.1679 10.9912 13.1899 10.9758L14.1075 10.3338C14.1197 10.3248 14.1301 10.3135 14.1379 10.3005C14.1458 10.2876 14.151 10.2731 14.1533 10.2581L14.3983 8.54453L14.8569 8.63829L14.857 8.63757ZM15.1986 7.44958L14.9605 8.35357C14.4736 8.24621 13.404 8.03557 11.9482 7.89381C12.4239 7.69101 12.9082 7.43661 13.3506 7.11782C14.217 7.24022 14.853 7.37142 15.1986 7.44958Z" fill="#656C67"/>
    <path d="M5.44578 10.2752C5.63434 10.1733 5.84738 10.1884 6.18178 10.1888L6.29378 10.1884L6.39442 10.1866C6.7381 10.1833 7.02402 10.2159 7.0189 9.67624C7.01378 9.13656 6.77394 8.7004 6.43058 8.70384C6.08682 8.7068 5.75426 9.14896 5.77482 9.68832C5.78042 9.82879 5.80106 9.93015 5.83418 10.0033C5.53458 10.0783 5.45202 10.2636 5.44738 10.2753L5.44578 10.2752ZM9.57833 8.05521C9.44513 8.16321 9.30473 8.26321 9.15833 8.35216L8.67057 8.64656C8.36465 8.68384 8.09913 8.75952 8.08417 8.76392C8.07521 8.76632 8.06657 8.77032 8.05881 8.77512C8.03513 8.78872 8.01721 8.81152 8.00841 8.83864L7.51161 10.4754L4.85682 11.0658L4.02067 10.4802L3.77747 8.50952C4.25234 8.42152 4.88738 8.32136 5.64946 8.23593C5.5677 8.33392 5.48834 8.43656 5.41306 8.54432L4.9589 9.19632L5.62018 8.75552C5.63002 8.74864 6.05114 8.47152 6.74002 8.13473C7.42657 8.08321 8.18425 8.04993 8.99505 8.04993L9.57745 8.05553L9.57833 8.05521Z" fill="#E5CAA3"/>
    <path d="M12.4854 10.054C12.482 10.0412 12.4098 9.82417 12.09 9.86225C12.1268 9.78201 12.1433 9.67377 12.1316 9.52625C12.0894 8.98785 11.7762 8.55985 11.4328 8.57185C11.0895 8.58385 10.8695 9.03025 10.8884 9.57009C10.9073 10.1093 11.1956 10.1056 11.539 10.0935C12.0006 10.085 12.2542 9.94313 12.4854 10.0549V10.054ZM14.1798 8.50321L13.9404 10.1787L13.0972 10.7691L10.446 10.4679L9.95138 8.83881C9.94589 8.8211 9.93612 8.80502 9.92293 8.79199C9.90975 8.77896 9.89355 8.76938 9.87578 8.76409C9.85938 8.75929 9.53114 8.66569 9.18298 8.63553L9.24658 8.63129C9.30154 8.62729 10.216 8.51529 11.3079 8.13873C12.5171 8.23153 13.5046 8.38033 14.1797 8.50329L14.1798 8.50321Z" fill="#E5CAA3"/>
    <path d="M5.44578 10.2752C5.63434 10.1733 5.84738 10.1884 6.18178 10.1888L6.29378 10.1884L6.39442 10.1866C6.7381 10.1833 7.02402 10.2159 7.0189 9.67624C7.01378 9.13656 6.77394 8.7004 6.43058 8.70384C6.08682 8.7068 5.75426 9.14896 5.77482 9.68832C5.78042 9.82879 5.80106 9.93015 5.83418 10.0033C5.53458 10.0783 5.45202 10.2636 5.44738 10.2753L5.44578 10.2752ZM9.57833 8.05521C9.44513 8.16321 9.30473 8.26321 9.15833 8.35216L8.67057 8.64656C8.36465 8.68384 8.09913 8.75952 8.08417 8.76392C8.07521 8.76632 8.06657 8.77032 8.05881 8.77512C8.03513 8.78872 8.01721 8.81152 8.00841 8.83864L7.51161 10.4754L4.85682 11.0658L4.02067 10.4802L3.77747 8.50952C4.25234 8.42152 4.88738 8.32136 5.64946 8.23593C5.5677 8.33392 5.48834 8.43656 5.41306 8.54432L4.9589 9.19632L5.62018 8.75552C5.63002 8.74864 6.05114 8.47152 6.74002 8.13473C7.42657 8.08321 8.18425 8.04993 8.99505 8.04993L9.57745 8.05553L9.57833 8.05521Z" fill="#C7B39A"/>
    <path d="M12.4854 10.054C12.482 10.0412 12.4098 9.82417 12.09 9.86225C12.1268 9.78201 12.1433 9.67377 12.1316 9.52625C12.0894 8.98785 11.7762 8.55985 11.4328 8.57185C11.0895 8.58385 10.8695 9.03025 10.8884 9.57009C10.9073 10.1093 11.1956 10.1056 11.539 10.0935C12.0006 10.085 12.2542 9.94313 12.4854 10.0549V10.054ZM14.1798 8.50321L13.9404 10.1787L13.0972 10.7691L10.446 10.4679L9.95138 8.83881C9.94589 8.8211 9.93612 8.80502 9.92293 8.79199C9.90975 8.77896 9.89355 8.76938 9.87578 8.76409C9.85938 8.75929 9.53114 8.66569 9.18298 8.63553L9.24658 8.63129C9.30154 8.62729 10.216 8.51529 11.3079 8.13873C12.5171 8.23153 13.5046 8.38033 14.1797 8.50329L14.1798 8.50321Z" fill="#C7B39A"/>
    <path d="M15.337 9.24012C15.3776 9.27372 15.409 9.36044 15.3735 9.76476C15.3287 10.2598 15.1207 11.1287 14.9919 11.2687C14.8496 11.2963 14.5515 11.2636 14.3696 11.2211C14.4011 11.0963 14.41 11.0367 14.4354 10.9092L14.7534 10.6868C14.7659 10.678 14.7764 10.6669 14.7844 10.6539C14.7924 10.641 14.7976 10.6265 14.7998 10.6115L15.022 9.0542C15.1569 9.12716 15.2956 9.2062 15.3371 9.2402L15.337 9.24012ZM3.61358 11.2726L3.6635 11.4406C3.4923 11.4908 3.1439 11.539 2.9863 11.5115C2.85566 11.3799 2.6119 10.4742 2.5587 9.99323C2.51526 9.60364 2.54574 9.51932 2.58534 9.48652C2.63134 9.44788 2.80358 9.34988 2.95278 9.26996L3.15438 10.9059C3.15822 10.9374 3.17494 10.9652 3.20126 10.9833L3.61366 11.2727L3.61358 11.2726ZM10.0456 11.2955L10.0336 11.3999C10.0336 11.3999 9.66716 11.7397 9.07708 11.8159C8.487 11.892 8.02348 11.5293 8.02348 11.5293C8.04284 11.5923 8.07036 11.7347 8.20396 11.8562C8.04676 11.8374 7.877 11.8247 7.69893 11.8247C7.63487 11.8248 7.57082 11.8265 7.50684 11.8296C7.14365 11.8486 6.63293 12.3976 6.27373 12.9507L4.90893 13.3697C4.31374 12.5457 4.0211 11.7023 3.99134 11.6151L3.99174 11.6147L3.95654 11.5132L4.10958 11.6203V11.6207L4.48766 11.8847L4.61406 11.9727C4.63294 11.986 4.65526 11.9929 4.67758 11.9929C4.68577 11.9929 4.69394 11.992 4.70197 11.9904L8.17676 11.2168C8.21572 11.2083 8.24716 11.179 8.25876 11.1408L8.75428 9.50884C8.83988 9.49724 8.91492 9.49124 8.9794 9.49124C9.04388 9.49124 9.11908 9.49724 9.2046 9.50884L9.71452 11.1886C9.72748 11.2311 9.76444 11.2622 9.80812 11.2667L10.0457 11.2939L10.0456 11.2955ZM14.0127 11.2052L14.1249 11.1265L14.0651 11.3582C13.9091 11.858 13.7251 12.3001 13.5207 12.6907C13.4728 12.6939 13.4248 12.6956 13.3767 12.6955C13.219 12.6955 13.0579 12.6822 12.8795 12.6659L11.9239 12.5633L10.9527 11.7941L10.9123 11.7605C10.8453 11.7039 10.7683 11.6395 10.6149 11.6395C10.4749 11.6395 10.2703 11.6905 9.77492 11.8401C10.0319 11.6481 10.0336 11.4001 10.0336 11.4001L10.0456 11.2957L13.3054 11.6661C13.3323 11.6691 13.3595 11.6622 13.3818 11.6468L14.0118 11.2054L14.0127 11.2052Z" fill="#E6CCAD"/>
    <path d="M11.6135 4.34697C11.6235 4.63697 11.6162 5.16249 11.4811 5.65457C11.4757 5.67353 11.4765 5.69297 11.4811 5.71089L10.9655 5.66289C11.1584 5.25857 11.2005 4.82801 11.2096 4.67633C11.3578 4.57097 11.5053 4.44465 11.6136 4.34625L11.6135 4.34697ZM6.69515 4.67697C6.70411 4.82865 6.74619 5.25833 6.93883 5.66233L6.42363 5.71001C6.42827 5.69241 6.42883 5.67345 6.42363 5.65449C6.28875 5.16329 6.28187 4.63737 6.29131 4.34689C6.39955 4.44529 6.54731 4.57089 6.69531 4.67697H6.69515Z" fill="#EBD599"/>
    <path d="M12.4854 10.0539C12.2534 9.94226 12.0006 10.0841 11.5391 10.0927C11.1958 10.1047 10.9075 10.1085 10.8886 9.56923C10.8696 9.02947 11.0896 8.58315 11.433 8.57099C11.7763 8.55883 12.0895 8.98699 12.1318 9.52539C12.1434 9.67371 12.127 9.78194 12.0902 9.86138C12.4099 9.82322 12.4822 10.0402 12.4854 10.0531V10.0539ZM11.4063 9.26371C11.5031 9.26155 11.5803 9.18163 11.5787 9.08491C11.577 8.98819 11.4971 8.91051 11.3999 8.91267C11.3768 8.91307 11.3541 8.91801 11.3329 8.92721C11.3118 8.93641 11.2927 8.94969 11.2767 8.9663C11.2607 8.9829 11.2481 9.0025 11.2397 9.02396C11.2313 9.04543 11.2272 9.06834 11.2277 9.09139C11.2293 9.18803 11.3093 9.26547 11.4063 9.26371Z" fill="#2D3136"/>
    <path d="M11.4063 9.26297C11.5032 9.2612 11.5803 9.1812 11.5785 9.08428C11.5768 8.98736 11.4968 8.91024 11.3999 8.91201C11.3029 8.91378 11.2258 8.99379 11.2276 9.0907C11.2294 9.18762 11.3094 9.26475 11.4063 9.26297Z" fill="#EDF6FA"/>
    <path d="M7.01732 9.67623C7.02236 10.216 6.73652 10.1834 6.39285 10.1866L6.29221 10.1884C6.25515 10.1894 6.21807 10.1895 6.18101 10.1888C5.84757 10.1884 5.63437 10.1733 5.44501 10.2752C5.44965 10.2636 5.53301 10.0784 5.83181 10.0032C5.79869 9.93007 5.77797 9.82879 5.77245 9.68823C5.75189 9.14903 6.08445 8.70663 6.42821 8.70375C6.77196 8.70087 7.0114 9.13655 7.01652 9.67623H7.01732ZM6.4866 9.39383C6.5834 9.39143 6.6598 9.31039 6.65724 9.21383C6.6546 9.11671 6.57404 9.04023 6.47725 9.04287C6.38005 9.04527 6.30349 9.12607 6.30605 9.22287C6.30861 9.32007 6.38941 9.39647 6.48652 9.39391L6.4866 9.39383Z" fill="#2D3136"/>
    <path d="M6.48651 9.39418C6.58346 9.39169 6.66004 9.31107 6.65754 9.21412C6.65505 9.11717 6.57444 9.0406 6.47749 9.04309C6.38054 9.04559 6.30396 9.1262 6.30645 9.22315C6.30895 9.3201 6.38956 9.39667 6.48651 9.39418Z" fill="#EDF6FA"/>
    <path opacity="0.8" d="M4.3946 6.01239C4.3946 6.01239 4.44796 5.31704 4.557 5.05056C4.61316 4.9132 4.95667 4.82656 5.21907 4.76256C5.48147 4.69856 5.89971 4.5752 5.98099 4.94368C6.06227 5.31216 6.19323 5.58071 6.28067 5.69935L6.16835 4.18176L4.3626 4.6196L4.24396 5.96239L4.3002 6.06855L4.3938 6.01231L4.3946 6.01239ZM13.527 6.01239C13.527 6.01239 13.4737 5.31704 13.3646 5.05056C13.3083 4.9132 12.9648 4.82656 12.7026 4.76256C12.4403 4.69856 12.0226 4.5752 11.9405 4.94368C11.8584 5.31216 11.7282 5.58071 11.6407 5.69935L11.7532 4.18176L13.5582 4.61888L13.6768 5.96175L13.6206 6.06791L13.527 6.01167" fill="#EBD599"/>
    <path opacity="0.75" d="M10.9758 1.47024C10.9758 1.47024 10.928 5.11023 10.0779 5.11023H7.86773C7.01765 5.11023 6.94901 1.47264 6.94901 1.47264L6.53062 2.70688L6.53742 4.40152L6.83398 4.63728L6.96878 5.36495L7.15733 5.78951L10.7959 5.79623L10.9643 5.49223L11.1059 4.98024L11.1262 4.6568L11.528 3.5096L10.9751 1.4696L10.9758 1.47024ZM13.653 4.86352C13.653 4.86352 13.828 6.11887 14.2909 6.34527C14.7539 6.57167 14.2909 6.34527 14.2909 6.34527L13.6427 6.14975L13.6531 4.86352H13.653ZM4.25126 4.86352C4.25126 4.86352 4.0763 6.11887 3.61327 6.34527C3.15023 6.57167 3.61327 6.34527 3.61327 6.34527L4.26158 6.14975L4.25118 4.86352H4.25126Z" fill="#EBD599"/>
    <path d="M13.7775 6.14397C13.9979 6.21613 14.2196 6.29261 14.4204 6.40997C14.313 6.36741 14.202 6.33693 14.0903 6.30941L13.7543 6.23549L13.0745 6.12933L12.3908 6.05541L11.705 6.00341C10.7893 5.94709 9.87107 5.93301 8.95299 5.93205C8.03435 5.93253 7.11603 5.94965 6.201 6.00381C5.97204 6.01709 5.7438 6.03581 5.51524 6.05581C5.2868 6.07504 5.05884 6.09966 4.83156 6.12965C4.6038 6.15725 4.37733 6.19333 4.15173 6.23581C4.03886 6.25697 3.92665 6.28149 3.81525 6.30933C3.70325 6.33685 3.59261 6.36733 3.48517 6.40989C3.68517 6.29261 3.90757 6.21573 4.12837 6.14349C4.14693 6.13749 4.16573 6.13229 4.18461 6.12637C4.18341 6.12157 4.18205 6.11733 4.18117 6.11221C4.17733 6.08685 4.09557 5.48341 4.23717 4.62061C4.24405 4.57933 4.27365 4.54581 4.31413 4.53461L4.54748 4.46822C4.5982 2.65822 5.34364 1.80694 5.36692 1.7807C4.70084 2.85246 4.70692 4.12358 4.71844 4.41958L6.16868 4.00742C6.16996 4.00702 6.17076 4.00702 6.17204 4.00662C6.17812 4.00534 6.18404 4.00446 6.19012 4.00406C6.19172 4.00406 6.19412 4.00358 6.19612 4.00358C6.2041 4.0033 6.21208 4.00402 6.21988 4.00574C6.22108 4.00574 6.22228 4.00654 6.22412 4.00702C6.23012 4.0083 6.23572 4.01038 6.24204 4.01302C6.24468 4.0143 6.24636 4.01566 6.24892 4.01702C6.25381 4.01973 6.25854 4.02272 6.26308 4.02598C6.26436 4.02678 6.2658 4.02726 6.26708 4.02862C6.26788 4.02942 6.26868 4.03038 6.26964 4.03118C6.27092 4.03246 6.2726 4.03334 6.27396 4.0347C6.30711 4.06748 6.34077 4.09975 6.37492 4.1315C6.36036 3.65366 6.38308 2.28286 7.03588 1.14751C7.02212 1.18735 6.5042 2.70174 6.68268 4.3991C6.74029 4.44548 6.79978 4.48949 6.861 4.53101C6.87518 4.54077 6.88683 4.55377 6.89497 4.56894C6.90311 4.58411 6.90751 4.601 6.9078 4.61821C6.90828 4.62381 6.9206 5.16485 7.15964 5.62509C7.163 5.63197 7.16555 5.63925 7.16779 5.64653C7.76219 5.60613 8.35803 5.59053 8.95275 5.58941C9.54763 5.58981 10.1431 5.60701 10.7373 5.64781C10.7394 5.6399 10.7423 5.63225 10.7461 5.62501C10.985 5.16477 10.9975 4.62373 10.9975 4.61813C10.9983 4.58325 11.0159 4.55069 11.0455 4.53013C11.1064 4.48839 11.1658 4.44436 11.2234 4.39814C11.4021 2.70078 10.8842 1.18639 10.8714 1.14655C11.5236 2.28254 11.5469 3.65342 11.5323 4.13054L11.6331 4.03454C11.6344 4.03326 11.6363 4.03238 11.6374 4.03102C11.6383 4.03022 11.6388 4.02942 11.64 4.02846C11.6412 4.0275 11.6427 4.0267 11.644 4.02582C11.6488 4.02246 11.6536 4.01942 11.6582 4.01638C11.6604 4.01558 11.6625 4.01422 11.6646 4.01294C11.6707 4.01033 11.677 4.00819 11.6835 4.00654C11.6847 4.00654 11.6861 4.00574 11.6875 4.00574C11.6952 4.00399 11.7032 4.00326 11.7111 4.00358C11.7133 4.00358 11.7151 4.00406 11.7167 4.00406C11.7229 4.00447 11.7291 4.00533 11.7351 4.00662C11.7361 4.0071 11.7374 4.0071 11.7385 4.00742L13.1889 4.41958C13.2006 4.12358 13.2065 2.85158 12.5406 1.7807C12.5646 1.80694 13.3086 2.6583 13.3595 4.46822L13.5933 4.53461C13.6129 4.5402 13.6306 4.55125 13.6442 4.56647C13.6578 4.5817 13.6669 4.60047 13.6703 4.62061C13.8124 5.48349 13.7304 6.08685 13.7269 6.11221C13.7261 6.11713 13.7249 6.12199 13.7235 6.12677L13.7801 6.14397H13.7775ZM13.5138 6.06653C13.525 5.96997 13.5778 5.44253 13.4658 4.72253L11.825 4.25598C11.8397 4.53397 11.8462 5.13693 11.6884 5.71197C11.6863 5.71907 11.6836 5.72597 11.6803 5.73261C11.6966 5.73421 11.713 5.73557 11.7288 5.73773C12.1904 5.79053 12.6488 5.86445 13.1048 5.96413C13.2418 5.99597 13.3789 6.02997 13.5147 6.06677L13.5138 6.06653ZM11.4818 5.65453C11.6168 5.16253 11.6242 4.63693 11.6142 4.34694C11.5059 4.44534 11.3584 4.57093 11.2102 4.67693C11.2011 4.82861 11.159 5.25917 10.966 5.66349L11.4817 5.71149C11.4767 5.69308 11.4767 5.67366 11.4817 5.65525L11.4818 5.65453ZM6.9394 5.66237C6.74676 5.25837 6.70468 4.82861 6.69572 4.67701C6.54708 4.57173 6.40004 4.44542 6.29172 4.34702C6.28212 4.63741 6.28916 5.16349 6.42404 5.65461C6.42924 5.67357 6.42868 5.69245 6.42404 5.71013L6.93924 5.66237H6.9394ZM6.22476 5.73149C6.22162 5.72513 6.219 5.71852 6.21692 5.71173C6.05892 5.13677 6.06492 4.53389 6.07996 4.25574L4.43812 4.72237C4.32773 5.44093 4.37925 5.96901 4.39037 6.06613C4.5266 6.02917 4.66236 5.99517 4.80076 5.96341C5.02756 5.91317 5.2562 5.87109 5.48524 5.83237C5.71484 5.79413 5.945 5.76493 6.17532 5.73701C6.19172 5.73485 6.20764 5.73365 6.22396 5.73141L6.22476 5.73149ZM10.6828 1.5179V2.8799H9.71739V2.48198H9.49979V4.32038H9.82779V5.34837H8.13979V4.32038H8.46715V2.48198H8.25115V2.87998H7.28635V1.51782H10.6837L10.6828 1.5179ZM10.3927 2.59054V1.80654H7.57403V2.59054H7.95931V2.19262H8.75643V4.61061H8.42843V5.05909H9.53763V4.61061H9.20963V2.19254H10.0067V2.59046H10.3919L10.3927 2.59054Z" fill="#2D3136"/>
    <path d="M8.42848 5.05901V4.61053H8.75648V2.19254H7.95944V2.59046H7.57416V1.80646H10.3921V2.59046H10.0068V2.19254H9.20967V4.61053H9.53767V5.05901H8.42848Z" fill="#CB3349"/>
    <path d="M2.79411 7.44957L3.3581 7.33197L2.86035 7.69973L2.79395 7.44957H2.79411Z" fill="#656C67"/>
    <path d="M7.94659 11.1824C7.94659 11.1824 7.98595 11.4356 7.63156 11.544C7.27716 11.6524 5.033 12.3212 4.777 12.285C4.521 12.2488 3.87141 11.8151 3.87141 11.8151L3.71381 11.2548L4.67508 11.8541L7.94643 11.1824L7.94659 11.1824ZM9.95715 11.1333C9.95715 11.1333 9.92883 11.3879 10.2875 11.4809C10.6463 11.574 12.9175 12.1445 13.1715 12.0972C13.4255 12.05 14.0558 11.5884 14.0558 11.5884L14.1888 11.0217L13.3052 11.5488L9.95707 11.1334L9.95715 11.1333Z" fill="#C7B39A"/>
    <path d="M2.61157 10.7164C2.61157 10.7164 2.92253 11.3384 3.42485 11.1231L3.78365 11.2547L3.74781 11.5187L2.99421 11.6143L2.79101 11.4948L2.61157 10.7172V10.7164ZM15.3426 10.5457C15.3426 10.5457 14.8343 11.1949 14.332 10.9796L14.1704 11.0838L14.2063 11.3478L14.9599 11.4435L15.1631 11.3239L15.3426 10.5466V10.5457ZM7.481 15.4323C7.481 15.4323 9.32339 16.3603 11.4095 15.0972L10.7395 15.0516C10.7395 15.0516 9.27779 15.6302 8.12052 15.3104L7.481 15.4323V15.4323Z" fill="#C7B39A"/>
    <path d="M9.34868 13.7208L9.4762 13.8728C9.47908 13.8764 9.76236 14.2136 10.1087 14.5569C10.3391 14.7852 10.6172 14.9007 10.9361 14.9007C11.0449 14.9007 11.1593 14.8867 11.2749 14.8588L11.6179 14.7764L12.7729 14.4903C12.8197 14.477 12.8719 14.4651 12.9269 14.4525C13.2417 14.3797 13.6733 14.2795 13.9019 13.8213L14.4776 12.7045C14.3286 12.7733 14.1723 12.8485 14.0614 12.9061C13.8903 12.996 13.6663 13.0395 13.3767 13.0395C13.2046 13.0395 13.0355 13.0251 12.8483 13.0083C12.4743 12.9739 11.8415 12.8995 11.835 12.8985L11.7865 12.8932L11.7483 12.8625C11.7427 12.8584 11.188 12.4165 10.7398 12.0641L10.6902 12.0231C10.6422 11.9828 10.6422 11.9828 10.6148 11.9828C10.4711 11.9828 10.0532 12.1124 9.13788 12.3962L9.08164 12.414L9.02644 12.3932C9.0202 12.3912 8.41964 12.1692 7.70004 12.1692C7.64175 12.1692 7.58346 12.1707 7.52524 12.1737C7.45324 12.1774 7.0486 12.3696 6.53125 13.1881L6.49765 13.2407L6.43845 13.2597C6.42989 13.2627 5.53941 13.5501 4.59509 13.8201L4.53381 13.8376L4.47581 13.8106C4.46965 13.8082 4.10013 13.6367 3.74861 13.4751C3.94037 13.7583 4.18557 14.1117 4.40141 14.3888C4.77821 14.8742 5.25341 15.3228 6.16413 15.3228C6.28451 15.3225 6.40478 15.3154 6.52437 15.3016C7.45076 15.1968 7.6894 15.1546 7.8178 15.1322C7.86124 15.1248 7.89564 15.1186 7.93956 15.1132C7.9466 15.1124 8.70516 15.0142 8.91812 14.5367L9.18372 13.9247L9.26116 13.718C9.26116 13.718 9.27076 13.6644 9.28652 13.6479L9.28844 13.6495C9.31284 13.6671 9.349 13.7216 9.349 13.7216L9.34868 13.7208ZM3.57861 4.45599C3.37733 4.53711 3.17734 4.62079 2.98182 4.71279C2.78582 4.80239 2.59334 4.89839 2.40942 5.00559C2.23982 5.10335 2.07686 5.21063 1.9331 5.33167C1.92694 5.36807 1.9211 5.40782 1.9163 5.4455L1.89966 5.6063C1.89006 5.71398 1.88638 5.82254 1.88526 5.9311C1.88318 6.14814 1.89806 6.36518 1.92542 6.58006C1.95518 6.79542 1.99454 7.00966 2.05294 7.21622C2.08198 7.31982 2.1143 7.42206 2.15238 7.52054C2.17102 7.57038 2.19174 7.61878 2.21334 7.66598C2.22395 7.68921 2.23497 7.71225 2.24638 7.7351L2.26014 7.76118C2.27613 7.76945 2.29227 7.77745 2.30854 7.78518L2.40502 7.8311L2.5943 7.91854C2.59798 7.91558 2.60134 7.9123 2.60422 7.90942L2.42582 7.22862C2.46342 7.21822 2.80318 7.13046 3.38837 7.01902C3.34038 7.01022 3.29318 6.99998 3.24638 6.98862C3.11342 6.95558 2.98158 6.91502 2.85454 6.86358C2.79158 6.8367 2.72894 6.80758 2.66974 6.77398C2.61054 6.74038 2.55214 6.70158 2.50694 6.65022C3.14958 6.86078 4.47781 6.76558 5.65861 6.64398C6.73861 6.53254 7.82084 6.46054 8.90884 6.45798C9.99684 6.46038 11.0799 6.53238 12.1592 6.64398C13.3408 6.76574 14.6691 6.86102 15.3117 6.65102C15.2666 6.70238 15.2083 6.74078 15.149 6.77478C15.0897 6.80878 15.0272 6.83734 14.9642 6.86438C14.8366 6.91574 14.7053 6.95638 14.5719 6.98942L14.5127 7.0027C15.1543 7.12158 15.5279 7.21846 15.5676 7.22926L15.3966 7.87782L15.4996 7.8319L15.5962 7.78598L15.6447 7.76198L15.6579 7.7359C15.6696 7.71312 15.6808 7.69007 15.6915 7.66678C15.7131 7.61958 15.7337 7.5711 15.7528 7.52134C15.7906 7.42154 15.8236 7.31998 15.8517 7.21702C15.9101 7.01038 15.9499 6.79622 15.9793 6.58086C16.007 6.36598 16.0215 6.14886 16.0195 5.9319C16.0187 5.82342 16.0145 5.71486 16.0054 5.6071C16.0008 5.55326 15.995 5.4999 15.9883 5.4463C15.9836 5.40823 15.9779 5.37027 15.9713 5.33246C15.8275 5.21143 15.6649 5.10423 15.495 5.00639C15.311 4.89919 15.1187 4.80319 14.9222 4.71359C14.7271 4.62159 14.5267 4.53799 14.3254 4.45679L14.0214 4.33871L13.7146 4.22487C13.9303 4.26047 14.1442 4.30967 14.3556 4.36407C14.4937 4.40005 14.6308 4.43956 14.7669 4.48255C13.7989 1.94991 11.4813 0.300799 8.95212 0.300799C6.42237 0.300799 4.10605 1.94991 3.13742 4.48255C3.27358 4.43991 3.41069 4.39975 3.54821 4.36415C3.76021 4.30991 3.97397 4.26063 4.18981 4.22495L3.88245 4.33879C3.78062 4.37674 3.6793 4.41608 3.57853 4.45679L3.57861 4.45599ZM16.333 5.92126C16.3447 6.15438 16.3384 6.3879 16.3123 6.6199C16.2879 6.85142 16.244 7.08086 16.1827 7.3083C16.1508 7.42202 16.1133 7.5341 16.0704 7.64414C16.0484 7.69958 16.0248 7.75478 15.9984 7.80974C15.9854 7.83752 15.9714 7.86486 15.9566 7.89174L15.9339 7.9327C15.9255 7.94758 15.9189 7.95878 15.906 7.97862L15.8825 8.01518L15.8457 8.03414C15.8103 8.05233 15.7745 8.06975 15.7383 8.08638L15.6345 8.13318C15.5651 8.1627 15.4952 8.1911 15.4249 8.21838L15.2919 8.2723L15.1764 8.71126L15.0738 8.68606L15.0675 8.73198C15.1951 8.79862 15.4456 8.93373 15.531 9.00421C15.7028 9.14621 15.715 9.37117 15.6768 9.79141C15.6573 10.0072 15.5856 10.4271 15.4864 10.8128C15.3149 11.4766 15.2238 11.5546 15.1062 11.5848C15.0275 11.6044 14.9467 11.6147 14.8655 11.6154C14.6843 11.6154 14.4373 11.6204 14.2711 11.5802C14.2285 11.7312 14.1067 12.1252 13.8657 12.6172C13.8777 12.6113 13.8897 12.6064 13.9005 12.6006C14.1979 12.4444 14.7693 12.1955 14.7935 12.1846L15.2449 11.9884L15.0129 12.4232C15.0075 12.4327 14.5118 13.3651 14.2081 13.9739C13.9065 14.5769 13.3413 14.7083 13.0029 14.7859L12.8643 14.8199C12.6215 14.8882 12.1299 15.0055 11.6963 15.1097C11.6912 15.111 11.6859 15.1124 11.6805 15.1131C11.4137 15.2779 11.1226 15.4251 10.8041 15.5459C9.63868 15.9873 8.41028 15.9625 7.2966 15.5532L6.56117 15.641C6.42876 15.6561 6.29563 15.6639 6.16237 15.6643C5.10125 15.6643 4.53885 15.1254 4.12837 14.5979C3.68893 14.0329 3.15142 13.1942 3.12862 13.1591L2.81862 12.674L3.34541 12.9108L4.56181 13.4708L4.61317 13.456C4.25661 12.9474 3.96421 12.3676 3.75757 11.7252C3.58197 11.7782 3.31149 11.8192 3.1011 11.8192C3.0243 11.8192 2.95534 11.8135 2.90238 11.801C2.78478 11.7741 2.65054 11.6607 2.46798 11.0174C2.36198 10.644 2.28286 10.2363 2.25974 10.0265C2.21414 9.61685 2.22246 9.39733 2.3927 9.25557C2.49534 9.16997 2.8415 8.98805 2.91326 8.95077L2.8979 8.82438C1.7979 9.47077 1.1387 10.042 1.12534 10.0537L0.338623 10.7441L0.899022 9.86037C1.34254 9.15997 1.85486 8.59382 2.32622 8.15766L2.27022 8.13414L2.16622 8.08734C2.13062 8.0707 2.09822 8.05534 2.05902 8.0351L2.02222 8.01614L1.99862 7.97958C1.98534 7.95958 1.97958 7.94854 1.97086 7.93366L1.94686 7.8927L1.90542 7.8107C1.87968 7.75636 1.85593 7.70109 1.83422 7.64502C1.79126 7.53499 1.75377 7.42291 1.7219 7.30918C1.6603 7.08174 1.6167 6.85318 1.5923 6.62078C1.5667 6.38878 1.55998 6.15518 1.5715 5.92214C1.57776 5.80562 1.58894 5.68941 1.60502 5.57382C1.61334 5.51582 1.62206 5.45782 1.63366 5.40022C1.64535 5.34052 1.65917 5.28126 1.6751 5.22255L1.6875 5.17743L1.71982 5.15207C1.90334 5.00791 2.10126 4.89903 2.30254 4.80247C2.46773 4.72545 2.63618 4.65562 2.80742 4.59319C3.28286 3.27375 4.10037 2.10375 5.17461 1.2884C6.28557 0.445599 7.59172 0 8.9522 0C10.3127 0 11.6189 0.445599 12.7296 1.28848C13.804 2.10391 14.6216 3.27407 15.0967 4.59303C15.2673 4.65599 15.4359 4.72423 15.6019 4.80263C15.8031 4.89911 16.0019 5.00799 16.1846 5.15223L16.2169 5.17759L16.2294 5.22271C16.2457 5.28132 16.2595 5.3406 16.2707 5.40038C16.2822 5.45792 16.2917 5.51582 16.2993 5.57398C16.3157 5.68947 16.3269 5.80564 16.3328 5.92214L16.333 5.92126ZM15.3734 9.76365C15.4099 9.35949 15.378 9.27245 15.337 9.23933C15.2959 9.20493 15.1572 9.12637 15.0222 9.05293L14.7998 10.6101C14.7976 10.6251 14.7924 10.6396 14.7844 10.6525C14.7764 10.6655 14.7659 10.6767 14.7534 10.6854L14.4352 10.9078C14.41 11.0352 14.4008 11.0954 14.3699 11.22C14.5517 11.2623 14.8499 11.2951 14.9919 11.2676C15.1208 11.1278 15.329 10.2597 15.3733 9.76349L15.3734 9.76365ZM14.9606 8.35182L15.1987 7.44782C14.8533 7.36958 14.2171 7.23862 13.3507 7.11598C12.9083 7.43406 12.4242 7.68838 11.9484 7.89118C13.4043 8.03278 14.4739 8.24366 14.9606 8.35094V8.35182ZM14.5862 10.5308L14.857 8.6367L14.3986 8.5431L14.1538 10.2569C14.1492 10.2871 14.1326 10.3149 14.1078 10.3323L13.19 10.9741C13.168 10.9896 13.141 10.9965 13.1143 10.9936L10.3485 10.6792C10.327 10.6768 10.3066 10.6681 10.2898 10.6543C10.2731 10.6405 10.2608 10.6221 10.2544 10.6013L9.75628 8.96133C9.62284 8.92693 9.28028 8.84693 8.9806 8.84693C8.67948 8.84693 8.3374 8.92693 8.20396 8.96133L7.70572 10.6013C7.70141 10.6153 7.69437 10.6284 7.68501 10.6397C7.67565 10.6509 7.66414 10.6603 7.65116 10.6671C7.64284 10.6717 7.63332 10.6749 7.62372 10.6771L4.85861 11.2936C4.84981 11.2953 4.84245 11.2962 4.83413 11.2962C4.81144 11.2963 4.78929 11.2893 4.77077 11.2762L3.85341 10.6338C3.82781 10.616 3.81069 10.5878 3.80661 10.5564L3.55941 8.55062L3.28101 8.60686L3.1071 8.7039L3.36949 10.8293L4.70277 11.7633L8.06652 11.015L8.56308 9.37901C8.56904 9.359 8.58052 9.34107 8.59619 9.32728C8.61187 9.31348 8.63111 9.30438 8.65172 9.30101C8.77764 9.28077 8.88772 9.27045 8.981 9.27045C9.07324 9.27045 9.18388 9.28085 9.3094 9.30101C9.35164 9.30765 9.38596 9.33781 9.39804 9.37901L9.90732 11.0555L13.2899 11.4401L14.5867 10.5316L14.5862 10.5308ZM13.9406 10.178L14.1799 8.50214C13.5047 8.37926 12.5175 8.23062 11.3082 8.13782C10.2164 8.51438 9.30204 8.62646 9.24692 8.63022L9.18316 8.63478C9.5314 8.6647 9.85948 8.7583 9.87596 8.76318C9.91212 8.77398 9.94028 8.80158 9.95148 8.83782L10.4464 10.4671L13.0974 10.7682L13.9406 10.178V10.178ZM14.1248 11.1256L14.0125 11.2042L13.3826 11.6458C13.3602 11.6612 13.333 11.6682 13.3063 11.6652L9.80932 11.2676C9.78778 11.2652 9.76744 11.2564 9.7508 11.2426C9.73416 11.2287 9.72194 11.2102 9.71564 11.1895L9.20548 9.50965C9.1202 9.49805 9.04436 9.49205 8.98148 9.49205C8.91668 9.49205 8.84148 9.49789 8.75612 9.50965L8.26076 11.141C8.24916 11.1791 8.21772 11.2082 8.17876 11.2167L4.70301 11.992C4.69497 11.9935 4.6868 11.9943 4.67861 11.9944C4.65621 11.9944 4.63381 11.9877 4.61477 11.9741L4.48853 11.8863L4.11045 11.6217V11.6209L3.95845 11.5141C3.96925 11.5485 3.98165 11.5821 3.99365 11.6156L3.99317 11.616C4.02261 11.7034 4.31541 12.5458 4.91053 13.3704L6.27509 12.9517C6.63413 12.3984 7.14524 11.8496 7.50852 11.8306C7.57253 11.8275 7.6366 11.8258 7.70068 11.8257C7.86942 11.8263 8.03798 11.8368 8.20548 11.8572C8.07188 11.7358 8.04444 11.5933 8.025 11.5304C8.025 11.5304 8.48844 11.8928 9.0786 11.8171C9.66884 11.7408 10.0354 11.4008 10.0354 11.4008C10.0354 11.4008 10.0338 11.6489 9.77652 11.841C10.2711 11.6914 10.4757 11.6402 10.6157 11.6402C10.7701 11.6402 10.8464 11.7048 10.9131 11.7618C10.9259 11.7722 10.9388 11.7832 10.9536 11.7954L11.9248 12.5645L12.8803 12.6672C13.0587 12.6832 13.2199 12.6969 13.3776 12.6969C13.4286 12.6969 13.4763 12.6948 13.5214 12.6919C13.726 12.3015 13.9099 11.8591 14.066 11.3596C14.0872 11.2827 14.1071 11.2053 14.1255 11.1276L14.1248 11.1256ZM12.9221 6.99814C12.9213 6.99766 12.9205 6.99718 12.9197 6.99718L12.1336 6.94518L11.0403 6.89174C10.9994 6.95185 10.9574 7.0112 10.9144 7.06974C10.716 7.33814 10.3225 7.82974 9.81804 8.24814C10.5321 8.12014 11.7708 7.80334 12.8423 7.05574L12.9223 6.9983L12.9221 6.99814ZM10.532 7.07222L10.6156 6.96502C10.3562 6.99131 10.0981 7.02889 9.84196 7.07766C8.97684 7.23958 8.17796 7.50886 7.51396 7.78462C8.008 7.76052 8.50254 7.74839 8.99716 7.74822C9.3098 7.74822 9.6138 7.75358 9.90948 7.7623C10.1639 7.51782 10.3783 7.26774 10.5328 7.07222H10.532ZM10.819 15.239C10.4588 15.2124 10.1312 15.0626 9.86676 14.8008L9.8266 14.7599C9.69759 14.7859 9.56722 14.8047 9.43612 14.8162C9.38028 14.8183 9.32732 14.8232 9.26892 14.8232L9.18228 14.824L9.14924 14.8232C8.79756 15.3464 8.01644 15.4482 7.98084 15.4528C7.9486 15.4564 7.92212 15.461 7.88564 15.4676C8.321 15.5868 8.76532 15.6387 9.20356 15.6092C9.64292 15.5799 10.2137 15.4846 10.8192 15.239H10.819ZM9.427 14.6422C9.51148 14.6356 9.59636 14.6248 9.68172 14.612C9.58464 14.5109 9.48947 14.408 9.39628 14.3034L9.24268 14.6506H9.26212C9.31476 14.6507 9.37236 14.645 9.42692 14.6423L9.427 14.6422ZM9.15868 8.35166C9.30484 8.26342 9.44524 8.16238 9.57868 8.0547L8.99644 8.04894C8.24394 8.04903 7.4917 8.07735 6.74133 8.13382C6.05333 8.47062 5.63133 8.74758 5.62149 8.75462L4.96005 9.19573L5.41445 8.54374C5.48941 8.4355 5.56885 8.33286 5.65093 8.23518C4.88805 8.32046 4.25277 8.42158 3.77893 8.50894L4.02197 10.4795L4.85821 11.0651L7.51292 10.4749L8.00988 8.83774C8.0182 8.81078 8.03628 8.78814 8.06004 8.7743C8.06782 8.7693 8.07632 8.76552 8.08524 8.7631C8.1006 8.75894 8.36524 8.6831 8.67212 8.6459L9.15964 8.3515L9.15868 8.35166ZM9.46396 6.84862L8.90892 6.84366L8.09372 6.85246L7.59212 7.09006C7.59172 7.09046 7.58892 7.09166 7.58508 7.0939C7.50972 7.1307 6.85117 7.46294 6.23149 8.0555C6.78693 7.7635 7.60316 7.38206 8.56372 7.0863C8.85148 6.99814 9.153 6.91686 9.46372 6.84854L9.46396 6.84862ZM5.95861 7.90078C6.21861 7.64278 6.48701 7.4299 6.72397 7.26342C5.81077 7.47542 4.97013 7.78686 4.23373 8.12566C4.71293 8.04822 5.29309 7.9675 5.95853 7.90086L5.95861 7.90078ZM6.13141 7.10478C6.43741 7.01902 6.75301 6.94398 7.07644 6.8811L5.68501 6.94574L4.87981 6.9991L4.47925 7.0347C4.44117 7.03838 4.40389 7.04254 4.36581 7.0475C4.01621 7.25662 2.67566 8.09822 1.75542 9.19869C2.64982 8.5771 4.20773 7.64326 6.13141 7.10486V7.10478ZM3.66341 11.4408C3.64596 11.385 3.6294 11.3289 3.61373 11.2726L3.20078 10.9836C3.18796 10.9747 3.17716 10.9632 3.16908 10.9499C3.16101 10.9365 3.15583 10.9216 3.1539 10.9061L2.95262 9.27013C2.8035 9.35013 2.63126 9.44813 2.58526 9.48669C2.5455 9.51949 2.51526 9.60349 2.55838 9.99325C2.61182 10.4733 2.85534 11.3799 2.98622 11.5116C3.14366 11.5394 3.49237 11.491 3.66341 11.4408ZM3.35821 7.33198L2.79422 7.44958L2.86062 7.69974C3.02191 7.57102 3.18795 7.44835 3.35837 7.33198H3.35821Z" fill="#2D3136"/>
  </g>
  <defs>
    <clipPath id="clip0_4115_5682">
      <rect width="16" height="16" fill="white" transform="translate(0.338623)"/>
    </clipPath>
  </defs>
</svg>
